<svg xmlns="http://www.w3.org/2000/svg" width="480" height="354" viewBox="0 0 480 354">
  <g id="benefit-img01" transform="translate(-53.533 -4.935)">
    <path id="Контур_269" data-name="Контур 269" d="M205.724,308.873l-5.483,5.279a10.99,10.99,0,0,1-6.855,2.982H76.179c-5.483,0-10.738-5.277-11.652-11.471L23.63,28.271a10.709,10.709,0,0,1,3.427-10.1l.914-.688,8.911-5.506L38.938,16.8H146.549c5.483,0,10.738,5.277,11.652,11.472l40.9,277.392c0,.459.228,1.146.228,1.605Z" transform="translate(30.062 9.025)" fill="#194290"/>
    <path id="Контур_270" data-name="Контур 270" d="M194.121,309.184H79.2c-4.57,0-9.139-4.359-9.824-9.866L28.7,22.149c-.685-5.507,2.285-9.866,7.083-9.866H150.481c4.57,0,9.139,4.36,9.824,9.866l40.669,277.169C201.887,304.825,198.689,309.184,194.121,309.184Z" transform="translate(36.64 9.412)" fill="#fff"/>
    <path id="Контур_271" data-name="Контур 271" d="M194.668,311.919H79.975c-5.483,0-10.738-5.277-11.652-11.471l-40.9-277.4c-.914-6.424,2.742-11.472,8.225-11.472H150.344c5.483,0,10.738,5.277,11.652,11.472l40.9,277.166C204.035,306.642,200.151,311.919,194.668,311.919Zm-122.918-11.7c.686,4.359,4.341,8.03,8,8.03H194.44c3.884,0,6.4-3.672,5.711-8.03L159.483,23.051c-.685-4.359-4.341-8.031-8-8.031H36.793c-3.884,0-6.4,3.671-5.712,8.031Z" transform="translate(34.948 8.51)" fill="#194290"/>
    <path id="Контур_272" data-name="Контур 272" d="M31.941,58.459a1.969,1.969,0,0,1-1.828-1.834L27.372,37.831A1.468,1.468,0,0,1,28.743,36a1.969,1.969,0,0,1,1.828,1.834l2.742,18.794C33.312,57.771,32.855,58.459,31.941,58.459Z" transform="translate(35.002 39.855)" fill="#fff"/>
    <path id="Контур_273" data-name="Контур 273" d="M35.672,83.827a1.969,1.969,0,0,1-1.828-1.834l-4.793-31.4a1.619,1.619,0,0,1,1.594-1.834,1.969,1.969,0,0,1,1.828,1.834l4.569,31.4C37.043,82.91,36.586,83.827,35.672,83.827Z" transform="translate(37.44 56.234)" fill="#fff"/>
    <path id="Контур_274" data-name="Контур 274" d="M166.345,141.253l-37.926-3.9,1.827-55.236,36.785,3.9Z" transform="translate(164.385 99.056)" fill="#006848"/>
    <path id="Контур_275" data-name="Контур 275" d="M163.568,140.695l-38.154-4.124,8.681-54.55,3.2,2.063,3.882-1.146,29.7,2.98Z" transform="translate(160.537 98.927)" fill="#194290"/>
    <path id="Контур_276" data-name="Контур 276" d="M169.68,141.786l-38.156-4.126,1.829-55.237,36.783,3.667Z" transform="translate(168.359 99.443)" fill="#1f5bd7"/>
    <path id="Контур_277" data-name="Контур 277" d="M144.559,84.734a.917.917,0,1,1-.915.917A.838.838,0,0,1,144.559,84.734Z" transform="translate(183.88 102.377)" fill="#5c49d8"/>
    <path id="Контур_278" data-name="Контур 278" d="M138.36,84.847a.913.913,0,1,0-.915.917A.984.984,0,0,0,138.36,84.847Z" transform="translate(174.778 101.346)" fill="#5c49d8"/>
    <path id="Контур_279" data-name="Контур 279" d="M134.825,105.2c-.228-.229,0-9.168.915-18.106.912-12.147,2.742-18.107,5.255-18.336a.229.229,0,0,1,0,.458c-4.112.458-5.714,23.607-6.17,35.984Z" transform="translate(172.372 81.893)" fill="#1f5bd7"/>
    <path id="Контур_280" data-name="Контур 280" d="M148.012,103.824c-.915-1.146-12.8-30.025-10.282-34.379a.732.732,0,0,1,.687-.688l.228.229-.228.229c-.228,0-.228.229-.456.458-2.285,4.355,10.052,33.692,10.052,34.15.228,0,.228-.229,0,0Z" transform="translate(175.862 81.893)" fill="#1f5bd7"/>
    <path id="Контур_281" data-name="Контур 281" d="M123.071,43.132l10.054,2.98v11.46l-2.97,13.523.912,8.251H119.645l-.458-7.793h-3.426c-4.571-.229-4.8-8.251-4.8-8.251l-1.371-.688c-.456-.688-.684-.917-.456-1.375l1.371-5.042c-.228-5.5,1.827-12.606,1.827-12.606Z" transform="translate(139.591 49.013)" fill="#fcc5b6"/>
    <path id="Контур_282" data-name="Контур 282" d="M102.734,90.161l-7.311-6.647L91.31,81.681,89.483,77.1l-1.828-.688c-.914-.229-1.142-.917-1.371-1.6L85.6,71.138a1.888,1.888,0,0,1,.228-1.6l2.97-2.98a5.723,5.723,0,0,1,1.6-.917h.228A24.97,24.97,0,0,1,86.512,58.3l.914-1.6,2.742,5.042L94.281,66.1l3.427,11.231,7.311,5.271Z" transform="translate(109.46 66.419)" fill="#fcc5b6"/>
    <path id="Контур_283" data-name="Контур 283" d="M108.676,129.907c2.742-2.979,6.626-5.271,10.28-7.1,8.911-4.354,19.421-6.416,29.245-4.354,10.054,2.062,18.965,8.48,23.077,17.649a20.079,20.079,0,0,1-6.4,2.748c-6.626,1.375-13.48-.687-20.334-.917-13.48-.917-26.731,4.815-39.755,3.439C104.564,136.783,105.934,132.657,108.676,129.907Z" transform="translate(134.108 144.612)" fill="#455a64"/>
    <path id="Контур_284" data-name="Контур 284" d="M140.073,117.594l6.626,84.573-8.225.23-15.765-81.823Z" transform="translate(157.079 144.62)" fill="#fcc5b6"/>
    <path id="Контур_285" data-name="Контур 285" d="M107.483,118.4l4.571,83.887h7.538l6.626-80.219Z" transform="translate(137.592 145.649)" fill="#fcc5b6"/>
    <path id="Контур_286" data-name="Контур 286" d="M137.662,78.753,153.2,74.169l-2.285-6.417-13.48,3.667Z" transform="translate(175.928 80.593)" fill="#fcc5b6"/>
    <path id="Контур_287" data-name="Контур 287" d="M141.441,69.055l3.2-1.375a4.448,4.448,0,0,1,1.829-.229l5.483.687,1.827.688c0-.229.23-.688.458-.688l.912-.229h.915l.915.229a7.977,7.977,0,0,1,2.055,1.375l1.371,2.063a2.176,2.176,0,0,1-.456,2.979l-2.513,2.292a4.765,4.765,0,0,1-4.34.688l-5.483-2.292-3.656.687Z" transform="translate(181.056 80.206)" fill="#fcc5b6"/>
    <path id="Контур_288" data-name="Контур 288" d="M94.939,92.924l.229,2.063a10.531,10.531,0,0,0,4.8,7.563l4.569,2.75a9.772,9.772,0,0,1,.457-2.521,9.469,9.469,0,0,1,5.255-5.042,13.541,13.541,0,0,1,8.221-.514,7.423,7.423,0,0,1,5.026,4.025,5.919,5.919,0,0,1,.865,1.4,82.54,82.54,0,0,0,6.679-9.95l.264,10.343,31.036,1.971V96.362l1.827-7.105,2.742,7.793c1.371-.917,4.343-.917,5.942-.688a9.641,9.641,0,0,1,6.167,3.667,3.45,3.45,0,0,1,.915,2.521l11.881-2.979c2.285-.917,4.112-2.292,4.8-4.584l.228-.458,3.426-2.063v-.229a16.03,16.03,0,0,0-2.283-5.959l-.458-.917-4.568.229-1.6-.688a5.678,5.678,0,0,0-4.343-.458l-7.766,1.834-6.17-17.648a12.059,12.059,0,0,0-8.225-8.022l-3.2-.917a37.056,37.056,0,0,0-6.854-1.6l-.228-1.834-5.255-.458h-1.6l-5.255.229-.456,1.6c-.687,0-1.143.229-1.6.229l-5.714.917a11.218,11.218,0,0,0-7.769,5.042L112.532,86.965l-6.169-3.438a5.1,5.1,0,0,0-4.113-.229l-1.371.688L97,81.235l-.685.688A25.032,25.032,0,0,0,91.055,88.8Z" transform="translate(116.55 65.265)" fill="#194290"/>
    <path id="Контур_289" data-name="Контур 289" d="M97.065,83.3l2.056.917c5.254,2.98,13.794-.579,16-2.827a4.379,4.379,0,0,0,1.14-1.069,11.213,11.213,0,0,0-.684-1.6,7.54,7.54,0,0,0-5.713-4.355,10.141,10.141,0,0,0-7.31.917,8.244,8.244,0,0,0-5.255,5.042A17.872,17.872,0,0,1,97.065,83.3Z" transform="translate(124.258 88.663)" fill="#687da2"/>
    <path id="Контур_290" data-name="Контур 290" d="M124.412,74.355l.228.917a8.057,8.057,0,0,0,10.282,5.5l2.513-.687a4.823,4.823,0,0,0-.915-2.521,10.047,10.047,0,0,0-6.17-3.667C128.981,73.667,126.011,73.438,124.412,74.355Z" transform="translate(159.261 88.212)" fill="#687da2"/>
    <path id="Контур_291" data-name="Контур 291" d="M99.466,74.245l2.741-4.584h.23v.229l-2.971,4.355Z" transform="translate(127.113 83.04)" opacity="0.2"/>
    <path id="Контур_292" data-name="Контур 292" d="M123.266,75.758c.915-2.98,1.829-5.959,2.744-8.71h.228v.229c-.915,2.75-2.057,5.5-2.972,8.48Z" transform="translate(157.666 79.689)" opacity="0.2"/>
    <path id="Контур_293" data-name="Контур 293" d="M139.588,77.281a40.734,40.734,0,0,0-3.656-7.793v-.229h.228a19.416,19.416,0,0,1,3.428,8.022c.228,0,.228-.229,0,0C139.36,77.052,139.36,77.281,139.588,77.281Z" transform="translate(174.008 82.526)" opacity="0.2"/>
    <path id="Контур_294" data-name="Контур 294" d="M109.013,78.581c-.228,0-.228-.229-.228-.458,1.827-3.438,4.112-7.334,6.4-10.772h.23v.229c-2.285,3.438-4.343,7.334-6.4,11Z" transform="translate(139.261 80.078)" opacity="0.2"/>
    <path id="Контур_295" data-name="Контур 295" d="M93.158,76.807a22.5,22.5,0,0,1,4.569-8.251h.229v.229a25.821,25.821,0,0,0-4.8,8.022Z" transform="translate(119.259 81.623)" opacity="0.2"/>
    <path id="Контур_296" data-name="Контур 296" d="M117.121,77.423l-2.972-.458-6.4,56.841c-4.343,40.108-3.2,61.425-3.2,61.425,12.337-.917,21.248-11.689,38.156-14.44s29.7,8.25,29.7,8.25l-1.827-12.6-5.942-39.88-3.656-25.212A66.174,66.174,0,0,0,153.9,90.488l-8.225-14.9A85.076,85.076,0,0,1,117.121,77.423Z" transform="translate(133.66 90.719)" fill="#263238"/>
    <path id="Контур_297" data-name="Контур 297" d="M110.285,79.622c-.019.009.012.021,0,0a2.671,2.671,0,0,1,0-.458c4.694,1.645,22.847,1.375,29.473-.458v.458c-3.656,1.146-10.5,1.584-16.812,1.723S110.749,79.92,110.285,79.622Z" transform="translate(140.955 94.642)" fill="#455a64"/>
    <path id="Контур_298" data-name="Контур 298" d="M105.807,136.022a.709.709,0,0,1-.228-.458c4.8-1.6,9.139-4.584,13.48-7.1,2.285-1.6,4.568-2.979,7.082-4.584a50.051,50.051,0,0,1,18.051-5.5,51.291,51.291,0,0,1,18.735,2.062.229.229,0,0,1,0,.458,47.265,47.265,0,0,0-36.555,3.437,46.741,46.741,0,0,0-7.084,4.584c-4.112,2.751-8.681,5.729-13.48,7.1Z" transform="translate(135.148 145.37)" fill="#455a64"/>
    <path id="Контур_299" data-name="Контур 299" d="M177.971,136.341l-38.154,4.354-9.6-54.548,36.783-4.126Z" transform="translate(166.69 98.927)" fill="#1f5bd7"/>
    <path id="Контур_300" data-name="Контур 300" d="M171.019,137.357l-38.154,3.9-2.744-55.006,3.656,1.375,3.428-2.292,29.7-3.209Z" transform="translate(166.562 99.056)" fill="#004c33"/>
    <path id="Контур_301" data-name="Контур 301" d="M180.95,136.269l-37.926,4.126-9.6-54.55,36.557-4.126Z" transform="translate(170.792 98.54)" fill="#006848"/>
    <path id="Контур_302" data-name="Контур 302" d="M145.761,83.328a.986.986,0,0,1,.915.917.915.915,0,1,1-1.829,0A.986.986,0,0,1,145.761,83.328Z" transform="translate(185.418 100.572)" fill="#004c33"/>
    <path id="Контур_303" data-name="Контур 303" d="M138.682,84.165a.917.917,0,1,1-.915.917C137.539,84.394,138,83.936,138.682,84.165Z" transform="translate(176.282 101.57)" fill="#004c33"/>
    <path id="Контур_304" data-name="Контур 304" d="M155.327,103.142c-.228-.229-3.2-8.71-6.626-17.419-5.939-13.981-8.909-16.732-10.738-16.5l-.228-.229.228-.229c6.17-.688,17.136,32.546,17.364,34.379.228,0,.228-.229,0,0Z" transform="translate(176.313 81.887)" fill="#1f5bd7"/>
    <path id="Контур_305" data-name="Контур 305" d="M139.161,104.97c0-.688,2.972-31.4-.684-35.3a.912.912,0,0,0-.915-.458.229.229,0,0,1,0-.458c.456,0,.687,0,.915.458,4.112,4.126.912,33.921.684,35.755Z" transform="translate(175.803 81.893)" fill="#1f5bd7"/>
    <path id="Контур_306" data-name="Контур 306" d="M117.565,155.132c-2.285,2.523-7.769,5.043-15.993,6.877-1.829.458-.915,4.813,3.426,4.813h27.19a1.623,1.623,0,0,0,1.6-1.834l-2.742-9.625c0-.458-.687-.689-.915-.689H118.706A2.767,2.767,0,0,1,117.565,155.132Z" transform="translate(128.884 192.113)" fill="#333"/>
    <path id="Контур_307" data-name="Контур 307" d="M141.058,154.272h-11.2c-.228,0-.912.458-.912.689l-.915,10.084c-.228.917.915,1.834,1.6,1.834,4.112,0,17.136-1.6,21.707-2.292S155.453,160,153.623,160c-8.225-1.834-8.225-2.751-10.738-5.273A2.738,2.738,0,0,0,141.058,154.272Z" transform="translate(163.857 191.598)" fill="#333"/>
    <path id="Контур_308" data-name="Контур 308" d="M106.464,156.1c-.456-.228-.684-.458-.684-.917a1,1,0,0,1,.228-.687c.912-.917,5.255,1.375,5.939,1.6v.23l-.228.228c-.915,0-2.285.23-3.2.23S106.692,156.786,106.464,156.1Zm-.456-1.375c0,.458,0,.917.228.917.915.917,3.884.458,4.8.23C109.434,155.181,106.692,154.264,106.008,154.722Z" transform="translate(135.414 191.606)" fill="#194290"/>
    <path id="Контур_309" data-name="Контур 309" d="M106.589,153.871c0-.458.228-.687.912-.687,2.513-.458,3.428,4.354,3.2,4.584.228-.458.228,0,0,0C109.1,157.08,106.36,155.018,106.589,153.871Zm1.143-.458c-.687,0-.687.458-.687.23-.228.687,1.6,2.52,3.2,3.209,0-.689-.912-3.439-2.511-3.439Z" transform="translate(136.432 190.165)" fill="#194290"/>
    <path id="Контур_310" data-name="Контур 310" d="M135.319,152.993c.228,0,.456-.228.915-.228a.8.8,0,0,1,.456.228c.687.917-1.143,3.668-1.371,4.126h-.228l-.228-.23V154.6C134.635,153.91,134.635,153.452,135.319,152.993Zm.456.23c-.456,0-.684,0-.912.228-.687.458-.687,2.292-.458,2.979C135.547,155.285,136.234,153.452,135.775,153.223Z" transform="translate(171.879 189.668)" fill="#194290"/>
    <path id="Контур_311" data-name="Контур 311" d="M137.171,153.48c.228,0,.456.23.456.689,0,1.6-2.97,2.062-3.2,1.834.228.228,0,.228,0,0C134.885,154.856,136.486,153.252,137.171,153.48Zm.228.689c0-.458-.228-.458-.228-.458-.456-.23-1.827,1.145-2.513,2.062.687-.228,2.742-.687,2.742-1.6Z" transform="translate(172.084 190.556)" fill="#194290"/>
    <path id="Контур_312" data-name="Контур 312" d="M120.523,69.79c-3.2-3.438-5.942-8.939-8.453-13.064-1.6-2.292-3.2-4.813-2.972-7.563a7.236,7.236,0,0,1,2.972-5.042,11.409,11.409,0,0,1,5.483-2.063c5.483-.688,11.422,0,15.079,4.125A17.943,17.943,0,0,1,136.516,62c-.687,2.292.915,5.271,0,7.563-.458,1.6-3.2,3.438-5.255,3.667A12.609,12.609,0,0,1,120.523,69.79Z" transform="translate(139.63 47.334)" fill="#263238"/>
    <path id="Контур_313" data-name="Контур 313" d="M141.359,57.479c2.97,5.959,3.884,12.606,3.656,19.253-.228,2.98-.687,5.959-2.285,8.48a14.65,14.65,0,0,1-8,5.042c-5.027,1.146-10.738.458-14.85-2.75a19.247,19.247,0,0,1-7.312-12.147,38.441,38.441,0,0,1,.458-14.439c.915-4.584,2.742-9.4,6.4-12.376a13.7,13.7,0,0,1,6.4-2.979c1.829-.229,3.656.917,5.255,1.834A23.046,23.046,0,0,1,141.359,57.479Z" transform="translate(143.464 52.094)" fill="#263238"/>
    <path id="Контур_314" data-name="Контур 314" d="M171.386,85.976C184.41,94,205.658,92.623,218.91,82.768c8-5.73,11.194-13.293,9.824-19.94l-1.143-7.563-.684,2.75a22.358,22.358,0,0,0-7.312-7.334c-13.024-8.022-34.272-6.647-47.521,3.209-5.027,3.667-8.227,8.022-9.367,12.377l-1.829-1.6,1.143,7.793C162.475,77.726,165.675,82.539,171.386,85.976Z" transform="translate(205.917 52.017)" fill="#ffc257"/>
    <path id="Контур_315" data-name="Контур 315" d="M198.019,56.4l2.057,12.376A45.607,45.607,0,0,1,177.685,76.8L175.4,61.9Z" transform="translate(224.522 66.028)" fill="#ffc257"/>
    <path id="Контур_316" data-name="Контур 316" d="M181.887,60.674c0,.229,1.371,8.251,1.829,11.46a58.486,58.486,0,0,1-10.969-.229l-2.055-11.689Z" transform="translate(218.498 70.924)" fill="#ffc257"/>
    <path id="Контур_317" data-name="Контур 317" d="M162.019,61.778l-1.143-7.793,1.829,1.6c.228-.458.228-.917.456-1.375l1.371.687,8.911,10.772,1.827,11.918c-1.371-.687-2.742-1.375-3.884-2.063C165.675,71.633,162.475,66.82,162.019,61.778Z" transform="translate(205.933 62.934)" fill="#ffc257"/>
    <path id="Контур_318" data-name="Контур 318" d="M176.567,62.174l1.827,11.918a36.232,36.232,0,0,1-10.054-2.75l-2.055-12.835Z" transform="translate(212.857 68.733)" fill="#ffc257"/>
    <path id="Контур_319" data-name="Контур 319" d="M197.29,86.849c18.514-2.448,32.192-14.5,30.549-26.927s-17.984-20.509-36.5-18.061-32.192,14.5-30.549,26.927S178.775,89.3,197.29,86.849Z" transform="translate(205.636 46.824)" fill="#ffe691"/>
    <path id="Контур_320" data-name="Контур 320" d="M187.294,79.34a29.966,29.966,0,0,1-15.765-4.126c-4.571-2.75-7.312-6.876-7.54-11.46-.228-4.813,2.742-9.855,7.769-13.752,10.282-7.563,26.959-8.71,37.013-2.521,4.569,2.75,7.31,6.876,7.538,11.46.228,4.813-2.742,9.855-7.769,13.752C202.6,77.278,194.6,79.34,187.294,79.34Zm5.483-35.3a37.306,37.306,0,0,0-21.02,6.418c-5.027,3.667-8,8.709-7.769,13.523.228,4.355,2.742,8.251,7.312,11.231,10.052,6.188,26.5,5.042,36.555-2.292,5.027-3.667,8-8.71,7.769-13.523-.228-4.355-2.742-8.251-7.312-11.231C204.2,45.419,198.717,44.044,192.778,44.044Z" transform="translate(209.89 49.477)" fill="#fff"/>
    <path id="Контур_321" data-name="Контур 321" d="M190.423,63.655l-1.6-8.939a.229.229,0,1,1,.458,0l1.14,8.939Z" transform="translate(241.708 63.574)" fill="#fff"/>
    <path id="Контур_322" data-name="Контур 322" d="M187.117,67.072l-1.6-8.939a.229.229,0,1,1,.458,0l1.14,8.939Z" transform="translate(237.477 67.958)" fill="#fff"/>
    <path id="Контур_323" data-name="Контур 323" d="M182.51,69.483c-.228,0-.228-.229,0,0l-1.6-8.939a.228.228,0,1,1,.456,0l1.143,8.939Z" transform="translate(231.58 71.052)" fill="#fff"/>
    <path id="Контур_324" data-name="Контур 324" d="M177.3,70.589h0l-1.6-8.939a.228.228,0,1,1,.456,0l1.143,8.939Z" transform="translate(224.913 72.47)" fill="#fff"/>
    <path id="Контур_325" data-name="Контур 325" d="M172.493,70.388h0l-1.6-8.939a.228.228,0,1,1,.456,0l1.143,8.939Z" transform="translate(218.759 72.212)" fill="#fff"/>
    <path id="Контур_326" data-name="Контур 326" d="M168.085,69.182l-1.6-8.939a.228.228,0,1,1,.456,0l1.143,8.939Z" transform="translate(213.117 70.665)" fill="#fff"/>
    <path id="Контур_327" data-name="Контур 327" d="M164.781,67.172l-1.6-8.939a.229.229,0,0,1,.458,0l1.143,8.939C165.009,67.172,165.009,66.943,164.781,67.172Z" transform="translate(208.885 68.087)" fill="#fff"/>
    <path id="Контур_328" data-name="Контур 328" d="M160.117,232.158a12.549,12.549,0,0,1-12.565-12.606V114.122a12.549,12.549,0,0,1,12.565-12.606H323.705a12.549,12.549,0,0,1,12.565,12.606V219.551a12.548,12.548,0,0,1-12.565,12.606Z" transform="translate(188.807 124.026)" fill="#194290"/>
    <path id="Контур_329" data-name="Контур 329" d="M319.362,102.722h-164.5c-4.8,0-6.626,7.1.228,6.646s164.272,0,164.272,0,7.538-1.145,7.538,8.939V226.489a12.468,12.468,0,0,0,3.656-8.939V118.307C330.556,108.91,328.043,102.722,319.362,102.722Z" transform="translate(192.692 125.571)" fill="#687da2"/>
    <path id="Контур_330" data-name="Контур 330" d="M270.737,156.226H214.989a16.5,16.5,0,0,1,0-33h55.748a8.691,8.691,0,0,1,8.681,8.708v15.585A8.692,8.692,0,0,1,270.737,156.226Z" transform="translate(254.114 151.828)" fill="#006848"/>
    <path id="Контур_331" data-name="Контур 331" d="M212.908,149.941a12.606,12.606,0,1,0-12.565-12.606A12.586,12.586,0,0,0,212.908,149.941Z" transform="translate(256.424 153.704)" fill="#004c33"/>
    <path id="Контур_332" data-name="Контур 332" d="M316.131,108.606H151.585a.223.223,0,0,1-.227-.228l.227-.23H316.131a.229.229,0,0,1,0,.458Z" transform="translate(193.682 132.414)" fill="#687da2"/>
    <path id="Контур_333" data-name="Контур 333" d="M317,155.836H151.586a.225.225,0,0,1-.228-.23l.228-.228H317a.229.229,0,0,1,0,.458Z" transform="translate(193.682 193.015)" fill="#687da2"/>
    <path id="Контур_334" data-name="Контур 334" d="M74.806,107.479a9.475,9.475,0,0,1-8.91-7.793L56.757,43.991c-.685-4.355,2.056-7.793,6.4-7.793a9.476,9.476,0,0,1,8.911,7.793L81.2,99.686C81.889,104.041,79.147,107.479,74.806,107.479Z" transform="translate(72.531 40.125)" fill="#194290"/>
    <path id="Контур_335" data-name="Контур 335" d="M84.086,36.411A33.211,33.211,0,0,0,56.9,46.037l8.682,53.632a35.262,35.262,0,0,0,11.2,3.209,33.434,33.434,0,0,0,7.311-66.467Z" transform="translate(72.843 40.142)" fill="#ffe691"/>
    <path id="Контур_336" data-name="Контур 336" d="M98.982,49.27A25.191,25.191,0,0,0,57.6,51.562v.458a27.815,27.815,0,0,1,5.848-6.876,24.678,24.678,0,0,1,15.744-5.73,13.592,13.592,0,0,1,2.924.229,24.839,24.839,0,0,1,16.869,9.4,25.935,25.935,0,0,1-3.824,35.984,24.642,24.642,0,0,1-18.443,5.5,23.408,23.408,0,0,1-13.495-5.959v.458a25.748,25.748,0,0,0,13.27,5.73c.9,0,2.024.229,2.924.229a25.759,25.759,0,0,0,15.969-5.73,25.451,25.451,0,0,0,9.447-17.419A27.3,27.3,0,0,0,98.982,49.27Z" transform="translate(73.74 44.247)" fill="#fff"/>
    <path id="Контур_337" data-name="Контур 337" d="M99.537,49.242a25.334,25.334,0,0,0-17.135-9.4c-.914,0-1.828-.229-2.97-.229a25.787,25.787,0,0,0-15.993,5.73,24.813,24.813,0,0,0-5.94,6.876l5.483,33a26.582,26.582,0,0,0,13.708,5.959,25.02,25.02,0,0,0,18.735-5.5,25.457,25.457,0,0,0,9.367-17.19A24.7,24.7,0,0,0,99.537,49.242Z" transform="translate(73.612 44.505)" fill="#ffd269"/>
    <path id="Контур_338" data-name="Контур 338" d="M69.81,136.518h56.2a10.309,10.309,0,0,0,10.51-12.376,15.114,15.114,0,0,0-14.394-12.376H65.7a10.309,10.309,0,0,0-10.51,12.376A15.36,15.36,0,0,0,69.81,136.518Z" transform="translate(70.47 137.072)" fill="#006848"/>
    <path id="Контур_339" data-name="Контур 339" d="M61.2,114.579h1.828l.914,4.124h1.142l2.742-4.124h2.285l-3.427,4.813,5.94,5.043H70.343l-4.8-4.126H64.4l.914,4.126H63.488Z" transform="translate(78.358 140.67)" fill="#fff"/>
    <path id="Контур_340" data-name="Контур 340" d="M66.169,119.482c-.457-2.064.685-3.9,2.742-3.9a4.633,4.633,0,0,1,4.341,3.9,1.59,1.59,0,0,1,.065.458H67.768a2.676,2.676,0,0,0,2.513,1.834,1.854,1.854,0,0,0,1.828-.917l1.142.917a10.753,10.753,0,0,1-1.571,1.072,2.427,2.427,0,0,1-1.171.3C68.682,123.378,66.626,121.774,66.169,119.482Zm5.255-.458c-.457-1.147-1.142-2.064-2.285-2.064s-1.6.689-1.371,2.064Z" transform="translate(84.586 141.958)" fill="#fff"/>
    <path id="Контур_341" data-name="Контур 341" d="M69.374,115.685h1.843l1.371,5.958h2.97l-1.371-5.958h1.6l1.371,5.958h2.97l-1.371-5.958h1.6l1.6,7.333H70.989Z" transform="translate(89.128 142.087)" fill="#fff"/>
    <path id="Контур_342" data-name="Контур 342" d="M77.494,123.967a7.746,7.746,0,0,1-1.828-3.629c-.685-3.437,0-5.043,2.742-5.5l2.513-.458.685,1.606-2.513.458c-1.6.228-2.285,1.145-2.056,2.52a2.947,2.947,0,0,1,2.513-1.145,3.993,3.993,0,0,1,4.113,3.437,2.808,2.808,0,0,1-2.97,3.668A5.688,5.688,0,0,1,77.494,123.967Zm4.341-2.712a2.679,2.679,0,0,0-2.513-2.062,1.754,1.754,0,0,0-1.828,2.292,2.5,2.5,0,0,0,2.742,2.29A1.805,1.805,0,0,0,81.835,121.255Z" transform="translate(96.553 140.413)" fill="#fff"/>
    <path id="Контур_343" data-name="Контур 343" d="M84.717,118.793a2.715,2.715,0,0,0-2.285-1.834,2.481,2.481,0,0,0-2.056.917l-1.142-1.145a3.415,3.415,0,0,1,2.742-1.147,4.653,4.653,0,0,1,4.57,3.9c.457,2.292-.686,3.9-2.97,3.9a6.15,6.15,0,0,1-3.427-1.145l.685-1.147a3.262,3.262,0,0,0,2.285.917c1.142,0,1.828-.687,1.6-1.834H81.29l-.229-1.375Z" transform="translate(101.437 141.958)" fill="#fff"/>
    <path id="Контур_344" data-name="Контур 344" d="M85.226,118.664h.914l1.6-2.979H89.8l-2.285,3.665,4.113,3.9H89.567l-3.2-2.981h-.914l.685,2.981h-1.6l-1.6-7.335h1.6Z" transform="translate(106.181 142.088)" fill="#fff"/>
    <path id="Контур_345" data-name="Контур 345" d="M145.348,19.931l5.711-11.46a1.1,1.1,0,0,1,1.371-.458l10.738,5.5a1.1,1.1,0,0,1,.458,1.375l-5.713,11.46Z" transform="translate(186.057 3.827)" fill="#ffc257"/>
    <path id="Контур_346" data-name="Контур 346" d="M155.037,31.979l6.3-12.472L148.9,13.19l-6.3,12.473Z" transform="translate(182.545 10.574)" fill="#ffc257"/>
    <path id="Контур_347" data-name="Контур 347" d="M152.286,37.479l6.3-12.472L146.15,18.69l-6.3,12.473Z" transform="translate(179.024 17.618)" fill="#ffc257"/>
    <path id="Контур_348" data-name="Контур 348" d="M149.582,42.89l6.3-12.473L143.444,24.1l-6.3,12.473Z" transform="translate(175.56 24.549)" fill="#ffc257"/>
    <path id="Контур_349" data-name="Контур 349" d="M134.58,41.027l5.711-11.46,12.565,6.418-5.711,11.46a1.1,1.1,0,0,1-1.371.458l-10.738-5.5A1.022,1.022,0,0,1,134.58,41.027Z" transform="translate(172.16 31.604)" fill="#ffc257"/>
    <path id="Контур_350" data-name="Контур 350" d="M156.8,19.175l-11.2-5.5s-.228-.229,0-.229c0,0,.228-.229.228,0l10.969,5.5c.228,0,.228,0,0,.229Z" transform="translate(186.259 10.77)" fill="#fff"/>
    <path id="Контур_351" data-name="Контур 351" d="M154.1,24.6,142.9,19.1s-.228-.229,0-.229c0,0,.228-.229.228,0l10.966,5.5c.228,0,.228.229,0,.229Z" transform="translate(182.797 17.721)" fill="#fff"/>
    <path id="Контур_352" data-name="Контур 352" d="M151.293,30.129l-11.2-5.5s-.228-.229,0-.229c0,0,.228-.229.228,0l10.969,5.5c.228-.229.228,0,0,.229C151.521,30.129,151.521,29.9,151.293,30.129Z" transform="translate(179.206 24.8)" fill="#fff"/>
    <path id="Контур_353" data-name="Контур 353" d="M148.586,35.555l-11.194-5.5s-.228-.229,0-.229c0,0,.228-.229.228,0L148.586,35.1c.228.229.228.229,0,.458Z" transform="translate(175.745 31.75)" fill="#fff"/>
    <path id="Контур_354" data-name="Контур 354" d="M49.623,75.49h86.134a7.4,7.4,0,0,1,7.311,6.418l6.169,47.673c.457,3.668-1.828,6.418-5.483,6.418H58.762a7.4,7.4,0,0,1-7.311-6.418L44.14,81.907A5.329,5.329,0,0,1,49.623,75.49Z" transform="translate(56.391 90.546)" fill="#00945f"/>
    <path id="Контур_355" data-name="Контур 355" d="M64.981,92.128H54.472a6.852,6.852,0,0,1-6.626-5.73l-.228-2.063a4.74,4.74,0,0,1,4.8-5.73H63.154a6.852,6.852,0,0,1,6.626,5.73l.228,2.063A5.129,5.129,0,0,1,64.981,92.128Z" transform="translate(60.909 94.518)" fill="#fff" opacity="0.2"/>
    <g id="Сгруппировать_46" data-name="Сгруппировать 46" transform="translate(161.032 174.727)" opacity="0.4">
      <path id="Контур_356" data-name="Контур 356" d="M80.739,81.318l.685,4.584h2.97l-.457-2.521h2.742c1.6,0,2.742-.688,2.742-2.063Z" transform="translate(-57.663 -76.734)" fill="#fff" opacity="0.4"/>
      <path id="Контур_357" data-name="Контур 357" d="M88.663,80.2a3.852,3.852,0,0,0-2.285-.687h-5.94a.844.844,0,0,0,.228.687v.229a4,4,0,0,0,4.113,2.521h5.027v-.458A2.532,2.532,0,0,0,88.663,80.2Z" transform="translate(-58.048 -79.05)" fill="#fff" opacity="0.4"/>
      <path id="Контур_358" data-name="Контур 358" d="M81.158,80.426l-1.371,4.355h-.228l-.686-5.271H76.132l1.142,8.939h2.285a2.6,2.6,0,0,0,1.371-.687L82.3,83.406h.229l.685,5.271h2.742l-1.142-8.939H82.529C82.072,79.28,81.387,79.739,81.158,80.426Z" transform="translate(-63.564 -79.05)" fill="#fff" opacity="0.4"/>
      <path id="Контур_359" data-name="Контур 359" d="M75.42,80.912l1.828,4.126.685-4.126A1.319,1.319,0,0,1,79.3,79.537h2.742l1.142,8.939H80.446L79.761,83.2h-.229l-.685,5.271H76.79L74.277,83.2h-.228l.685,5.271H71.992l-1.371-9.168h2.742A3.029,3.029,0,0,1,75.42,80.912Z" transform="translate(-70.622 -79.308)" fill="#fff" opacity="0.4"/>
    </g>
    <path id="Контур_376" data-name="Контур 376" d="M127.973,62.84c-15.309.458-33.13-11.46-39.755-26.587-3.884-8.939-2.97-16.961,1.6-22.232l4.8-5.959-.685,2.75a19.815,19.815,0,0,1,10.053-2.521c15.308-.458,33.128,11.46,39.754,26.587,2.513,5.73,3.2,11,2.057,15.585L148.079,50l-5.027,6.188C139.852,60.09,134.827,62.611,127.973,62.84Z" transform="translate(109.805 4.006)" fill="#ffc257"/>
    <path id="Контур_377" data-name="Контур 377" d="M145.334,52.953c7.6-9.948,1.74-27.248-13.083-38.643s-33-12.567-40.6-2.619S89.912,38.94,104.736,50.334,137.737,62.9,145.334,52.953Z" transform="translate(113.066 0)" fill="#ffe691"/>
    <path id="Контур_378" data-name="Контур 378" d="M123.375,50.2c-11.653,0-25.133-9.168-30.159-20.628-2.513-5.959-2.513-11.689,0-15.814,2.285-3.9,6.626-5.959,12.109-6.188,11.88-.458,25.588,8.939,30.843,20.628,2.513,5.959,2.513,11.689,0,15.815-2.283,3.9-6.626,5.959-12.109,6.188ZM106.01,8.027h-.685c-5.255.229-9.6,2.292-11.881,5.959-2.513,4.125-2.513,9.626,0,15.585,5.026,11.46,18.278,20.4,29.93,20.4h.684c5.255-.229,9.6-2.292,11.881-5.959,2.513-4.126,2.513-9.626,0-15.585C130.913,16.966,117.661,8.027,106.01,8.027Z" transform="translate(116.914 3.353)" fill="#fff"/>
    <path id="Контур_379" data-name="Контур 379" d="M85.942,20.119c-.228,0-.228-.229,0-.229l5.712-7.105h.229v.229Z" transform="translate(109.804 10.055)" fill="#fff"/>
    <path id="Контур_380" data-name="Контур 380" d="M87.145,24.742c-.229,0-.229-.229,0-.229l5.712-7.105h.228v.229Z" transform="translate(111.343 15.976)" fill="#fff"/>
    <path id="Контур_381" data-name="Контур 381" d="M89.95,28.934c-.229,0-.229-.229,0-.229l5.712-6.876h.228v.229l-5.94,6.876Z" transform="translate(114.933 21.639)" fill="#fff"/>
    <path id="Контур_382" data-name="Контур 382" d="M93.956,32.68h0c-.228,0-.228-.229,0-.229l5.712-7.105H99.9v.229Z" transform="translate(120.061 26.144)" fill="#fff"/>
    <path id="Контур_383" data-name="Контур 383" d="M98.164,34.863h0c-.228,0-.228-.229,0-.229l5.712-6.876h.228v.229l-5.94,6.876Z" transform="translate(125.447 29.233)" fill="#fff"/>
    <path id="Контур_384" data-name="Контур 384" d="M102.57,35.968c-.228,0-.228-.229,0-.229l5.485-6.876h.228v.229Z" transform="translate(131.087 30.649)" fill="#fff"/>
    <path id="Контур_385" data-name="Контур 385" d="M106.477,35.868h0c-.228,0-.228-.229,0-.229l5.483-6.876h.228v.229Z" transform="translate(136.088 30.52)" fill="#fff"/>
    <path id="Контур_386" data-name="Контур 386" d="M105.881,7.761H105.2c-5.255.229-9.6,2.292-11.881,5.959-2.513,4.126-2.513,9.626,0,15.585,5.026,11.46,18.277,20.4,29.93,20.4h.684c5.255-.229,9.6-2.292,11.881-5.959,2.513-4.126,2.513-9.626,0-15.585C130.786,16.7,117.534,7.761,105.881,7.761Z" transform="translate(117.042 3.62)" fill="#ffd269"/>
    <path id="Контур_387" data-name="Контур 387" d="M192.773,43.735a37.3,37.3,0,0,0-21.018,6.417c-5.027,3.667-8,8.71-7.769,13.523.228,4.355,2.742,8.251,7.31,11.231,10.054,6.188,26.5,5.042,36.557-2.292,5.025-3.667,8-8.709,7.766-13.522-.228-4.355-2.742-8.251-7.31-11.231C204.2,45.111,198.715,43.735,192.773,43.735Z" transform="translate(209.888 49.787)" fill="#ffd269"/>
    <path id="Контур_388" data-name="Контур 388" d="M209.6,82.843a33.374,33.374,0,0,0-36.785,29.566,34.059,34.059,0,0,0,5.255,22.232h55.52a36.562,36.562,0,0,0,5.483-14.9A33.429,33.429,0,0,0,209.6,82.843Z" transform="translate(220.924 99.707)" fill="#ffe691"/>
    <path id="Контур_389" data-name="Контур 389" d="M183.96,130.147h35.415a25.471,25.471,0,0,0,7.766-15.585,25.559,25.559,0,0,0-22.619-28.191c-.912,0-1.827-.229-2.97-.229a25.792,25.792,0,0,0-15.993,5.73,25.461,25.461,0,0,0-9.367,17.19A24.829,24.829,0,0,0,183.96,130.147Z" transform="translate(225.316 104.205)" fill="#ffd269"/>
    <path id="Контур_390" data-name="Контур 390" d="M183.528,130.483h.456a25.683,25.683,0,0,1,1.6-38.5,25.313,25.313,0,0,1,15.993-5.73,14.035,14.035,0,0,1,2.972.229,25.457,25.457,0,0,1,14.85,43.777h.456a26.468,26.468,0,0,0,7.54-15.586,25.767,25.767,0,0,0-5.483-19.023,25.227,25.227,0,0,0-17.364-9.626,25.9,25.9,0,0,0-28.561,22.92A26.5,26.5,0,0,0,183.528,130.483Z" transform="translate(225.064 103.868)" fill="#fff"/>
  </g>
</svg>
