<svg id="benefit-img01" xmlns="http://www.w3.org/2000/svg" width="199" height="165" viewBox="0 0 199 165">
  <path id="Контур_269" data-name="Контур 269" d="M103.708,150.38l-2.414,2.461a4.713,4.713,0,0,1-3.018,1.39h-51.6c-2.414,0-4.728-2.46-5.13-5.347L23.541,19.575a5.161,5.161,0,0,1,1.509-4.706l.4-.321,3.923-2.567.905,2.246H77.656c2.414,0,4.728,2.46,5.13,5.348l18.005,129.308c0,.214.1.534.1.748Z" transform="translate(-23.471 -4.496)" fill="#194290"/>
  <path id="Контур_270" data-name="Контур 270" d="M101.475,150.689h-50.6c-2.012,0-4.024-2.032-4.325-4.6L28.65,16.882c-.3-2.567,1.006-4.6,3.118-4.6H82.262c2.012,0,4.024,2.032,4.325,4.6l17.9,129.208C104.894,148.657,103.486,150.689,101.475,150.689Z" transform="translate(-23.449 -4.477)" fill="#fff"/>
  <path id="Контур_271" data-name="Контур 271" d="M100.976,151.587H50.482c-2.414,0-4.728-2.46-5.13-5.347L27.347,16.927c-.4-2.995,1.207-5.348,3.621-5.348H81.463c2.414,0,4.728,2.46,5.13,5.348l18,129.2C105.1,149.127,103.39,151.587,100.976,151.587Zm-54.115-5.455c.3,2.032,1.911,3.743,3.521,3.743h50.494c1.71,0,2.817-1.712,2.514-3.743l-17.9-129.2c-.3-2.032-1.911-3.744-3.521-3.744H31.471c-1.71,0-2.816,1.711-2.515,3.744Z" transform="translate(-23.455 -4.521)" fill="#194290"/>
  <path id="Контур_272" data-name="Контур 272" d="M29.359,46.459a.893.893,0,0,1-.8-.854l-1.207-8.753a.677.677,0,0,1,.6-.854.893.893,0,0,1,.8.854L29.962,45.6C29.962,46.139,29.761,46.459,29.359,46.459Z" transform="translate(-23.455 -2.941)" fill="#fff"/>
  <path id="Контур_273" data-name="Контур 273" d="M31.946,65.092a.893.893,0,0,1-.8-.854l-2.11-14.625a.741.741,0,0,1,.7-.854.893.893,0,0,1,.8.854L32.55,64.238C32.55,64.665,32.349,65.092,31.946,65.092Z" transform="translate(-23.327 -2.118)" fill="#fff"/>
  <path id="Контур_274" data-name="Контур 274" d="M145.116,109.662l-16.7-1.814.8-25.726,16.195,1.815Z" transform="translate(-29.759 0.038)" fill="#006848"/>
  <path id="Контур_275" data-name="Контур 275" d="M142.211,109.349l-16.8-1.921,3.822-25.407,1.409.961,1.709-.534,13.077,1.388Z" transform="translate(-29.682 0.031)" fill="#194290"/>
  <path id="Контур_276" data-name="Контур 276" d="M148.322,110.072l-16.8-1.922.805-25.727,16.194,1.708Z" transform="translate(-29.945 0.057)" fill="#1f5bd7"/>
  <path id="Контур_277" data-name="Контур 277" d="M144.047,84.734a.428.428,0,1,1-.4.427A.379.379,0,0,1,144.047,84.734Z" transform="translate(-30.079 0.179)" fill="#5c49d8"/>
  <path id="Контур_278" data-name="Контур 278" d="M137.337,84.358a.4.4,0,1,0-.4.427A.446.446,0,0,0,137.337,84.358Z" transform="translate(-29.688 0.127)" fill="#5c49d8"/>
  <path id="Контур_279" data-name="Контур 279" d="M134.729,85.73a66.873,66.873,0,0,1,.4-8.433c.4-5.658,1.207-8.433,2.314-8.54.1,0,.1.107.1.107a.1.1,0,0,1-.1.107c-1.81.214-2.515,11-2.716,16.76Z" transform="translate(-29.65 -0.833)" fill="#1f5bd7"/>
  <path id="Контур_280" data-name="Контур 280" d="M142.061,85.089c-.4-.534-5.633-13.984-4.527-16.012a.331.331,0,0,1,.3-.32l.1.107-.1.107c-.1,0-.1.107-.2.214-1.006,2.028,4.425,15.692,4.425,15.906.1,0,.1-.107,0,0Z" transform="translate(-29.863 -0.833)" fill="#1f5bd7"/>
  <path id="Контур_281" data-name="Контур 281" d="M115.221,43.132l4.426,1.388v5.337l-1.307,6.3.4,3.843h-5.029l-.2-3.629H112c-2.012-.107-2.113-3.843-2.113-3.843l-.6-.32c-.2-.32-.3-.427-.2-.64l.6-2.349a23.605,23.605,0,0,1,.8-5.871Z" transform="translate(-28.423 -2.48)" fill="#fcc5b6"/>
  <path id="Контур_282" data-name="Контур 282" d="M93.09,72.284l-3.219-3.1-1.811-.854-.8-2.135-.8-.32c-.4-.107-.5-.427-.6-.747l-.3-1.708a.922.922,0,0,1,.1-.747l1.308-1.388a2.488,2.488,0,0,1,.7-.427h.1a11.864,11.864,0,0,1-1.811-3.416l.4-.747,1.207,2.349,1.811,2.028,1.509,5.231L94.1,68.761Z" transform="translate(-27.023 -1.609)" fill="#fcc5b6"/>
  <path id="Контур_283" data-name="Контур 283" d="M106.488,123.355a15.821,15.821,0,0,1,4.526-3.309,19.351,19.351,0,0,1,12.875-2.028,14.286,14.286,0,0,1,10.16,8.22,8.6,8.6,0,0,1-2.817,1.28c-2.917.641-5.935-.32-8.952-.427-5.935-.427-11.769,2.243-17.5,1.6A7.219,7.219,0,0,1,106.488,123.355Z" transform="translate(-28.693 2.301)" fill="#455a64"/>
  <path id="Контур_284" data-name="Контур 284" d="M130.354,117.594l2.917,39.39-3.621.107-6.941-38.109Z" transform="translate(-29.213 2.358)" fill="#fcc5b6"/>
  <path id="Контур_285" data-name="Контур 285" d="M107.483,118.4l2.012,39.07h3.319l2.917-37.362Z" transform="translate(-28.272 2.408)" fill="#fcc5b6"/>
  <path id="Контур_286" data-name="Контур 286" d="M137.534,72.876l6.84-2.135-1.006-2.989-5.934,1.708Z" transform="translate(-29.94 -0.907)" fill="#fcc5b6"/>
  <path id="Контур_287" data-name="Контур 287" d="M141.441,68.2l1.408-.64a1.859,1.859,0,0,1,.805-.107l2.414.32.8.32c0-.107.1-.32.2-.32l.4-.107h.4l.4.107a3.51,3.51,0,0,1,.9.641l.6.961a1.053,1.053,0,0,1-.2,1.388l-1.107,1.067a2,2,0,0,1-1.911.32l-2.414-1.068-1.61.32Z" transform="translate(-30.223 -0.926)" fill="#fcc5b6"/>
  <path id="Контур_288" data-name="Контур 288" d="M92.765,73.087l.1.961a4.941,4.941,0,0,0,2.112,3.523l2.012,1.281a4.789,4.789,0,0,1,.2-1.174A4.283,4.283,0,0,1,99.5,75.329a5.655,5.655,0,0,1,3.619-.24,3.307,3.307,0,0,1,2.213,1.875,2.794,2.794,0,0,1,.381.65,38.654,38.654,0,0,0,2.941-4.634l.116,4.817,13.664.918V74.688l.8-3.309,1.207,3.629a4.372,4.372,0,0,1,2.616-.32A4.209,4.209,0,0,1,129.78,76.4a1.663,1.663,0,0,1,.4,1.174l5.231-1.388a3.341,3.341,0,0,0,2.113-2.135l.1-.214,1.508-.961v-.107a7.733,7.733,0,0,0-1.005-2.775l-.2-.427-2.011.107-.7-.32a2.379,2.379,0,0,0-1.912-.213l-3.419.854-2.716-8.22a5.461,5.461,0,0,0-3.621-3.736l-1.409-.427a15.566,15.566,0,0,0-3.017-.747l-.1-.854-2.314-.214H116l-2.314.107-.2.747c-.3,0-.5.107-.7.107l-2.515.427a4.926,4.926,0,0,0-3.42,2.348L100.51,70.312l-2.716-1.6a2.134,2.134,0,0,0-1.811-.107l-.6.32-1.71-1.281-.3.32a11.614,11.614,0,0,0-2.314,3.2Z" transform="translate(-28.344 -1.662)" fill="#194290"/>
  <path id="Контур_289" data-name="Контур 289" d="M97.065,78.355l.905.427c2.313,1.388,6.073-.27,7.042-1.317a1.973,1.973,0,0,0,.5-.5,5.386,5.386,0,0,0-.3-.747,3.353,3.353,0,0,0-2.515-2.028,4.249,4.249,0,0,0-3.218.427,3.732,3.732,0,0,0-2.313,2.348A8.8,8.8,0,0,1,97.065,78.355Z" transform="translate(-27.681 -0.503)" fill="#687da2"/>
  <path id="Контур_290" data-name="Контур 290" d="M124.412,74l.1.427a3.519,3.519,0,0,0,4.527,2.562l1.107-.32a2.327,2.327,0,0,0-.4-1.174,4.387,4.387,0,0,0-2.716-1.708A4.47,4.47,0,0,0,124.412,74Z" transform="translate(-29.164 -0.527)" fill="#687da2"/>
  <path id="Контур_291" data-name="Контур 291" d="M99.37,71.8l1.207-2.135h.1v.107L99.37,71.8Z" transform="translate(-27.653 -0.786)" opacity="0.2"/>
  <path id="Контур_292" data-name="Контур 292" d="M123.209,71.1c.4-1.388.805-2.775,1.208-4.057h.1v.107c-.4,1.281-.906,2.562-1.308,3.95Z" transform="translate(-28.968 -0.952)" opacity="0.2"/>
  <path id="Контур_293" data-name="Контур 293" d="M137.542,73a19.494,19.494,0,0,0-1.61-3.629v-.107h.1A9.321,9.321,0,0,1,137.542,73c.1,0,.1-.107,0,0C137.441,72.889,137.441,73,137.542,73Z" transform="translate(-29.683 -0.811)" opacity="0.2"/>
  <path id="Контур_294" data-name="Контур 294" d="M108.885,72.581c-.1,0-.1-.107-.1-.214.8-1.6,1.81-3.416,2.816-5.017h.1v.107c-1.006,1.6-1.912,3.416-2.817,5.124Z" transform="translate(-28.213 -0.932)" opacity="0.2"/>
  <path id="Контур_295" data-name="Контур 295" d="M93.158,72.4a10.667,10.667,0,0,1,2.012-3.843h.1v.107A12.184,12.184,0,0,0,93.158,72.4Z" transform="translate(-27.329 -0.856)" opacity="0.2"/>
  <path id="Контур_296" data-name="Контур 296" d="M110.01,76.444,108.7,76.23,105.886,102.7c-1.912,18.681-1.409,28.609-1.409,28.609,5.431-.427,9.355-5.444,16.8-6.725s13.076,3.842,13.076,3.842l-.8-5.87-2.616-18.574-1.61-11.743a32.048,32.048,0,0,0-3.118-9.714l-3.621-6.939A35.461,35.461,0,0,1,110.01,76.444Z" transform="translate(-28.69 -0.344)" fill="#263238"/>
  <path id="Контур_297" data-name="Контур 297" d="M110.279,79.132c-.009,0,.005.01,0,0a1.311,1.311,0,0,1,0-.213c2.067.766,10.059.64,12.976-.214v.214a30.92,30.92,0,0,1-7.4.8A19.712,19.712,0,0,1,110.279,79.132Z" transform="translate(-28.644 -0.208)" fill="#455a64"/>
  <path id="Контур_298" data-name="Контур 298" d="M105.679,126.521a.34.34,0,0,1-.1-.214A32.743,32.743,0,0,0,111.514,123c1.006-.747,2.011-1.387,3.118-2.135a21.164,21.164,0,0,1,7.947-2.561,21.412,21.412,0,0,1,8.248.96c.1,0,.1.106.1.106a.1.1,0,0,1-.1.107,19.791,19.791,0,0,0-16.093,1.6,20.49,20.49,0,0,0-3.119,2.135,21.908,21.908,0,0,1-5.934,3.309Z" transform="translate(-28.626 2.335)" fill="#455a64"/>
  <path id="Контур_299" data-name="Контур 299" d="M151.244,107.321l-16.8,2.028-4.224-25.406,16.194-1.922Z" transform="translate(-30.011 0.031)" fill="#1f5bd7"/>
  <path id="Контур_300" data-name="Контур 300" d="M148.126,107.848l-16.8,1.814-1.208-25.619,1.61.64,1.509-1.068,13.076-1.494Z" transform="translate(-29.896 0.038)" fill="#004c33"/>
  <path id="Контур_301" data-name="Контур 301" d="M154.349,107.126l-16.7,1.922-4.225-25.407,16.094-1.922Z" transform="translate(-30.204 0.012)" fill="#006848"/>
  <path id="Контур_302" data-name="Контур 302" d="M145.249,83.328a.447.447,0,0,1,.4.427.4.4,0,1,1-.805,0A.447.447,0,0,1,145.249,83.328Z" transform="translate(-30.145 0.089)" fill="#004c33"/>
  <path id="Контур_303" data-name="Контур 303" d="M138.137,84.133a.428.428,0,1,1-.4.427C137.634,84.24,137.835,84.026,138.137,84.133Z" transform="translate(-29.753 0.138)" fill="#004c33"/>
  <path id="Контур_304" data-name="Контур 304" d="M145.48,84.77c-.1-.107-1.408-4.057-2.917-8.113-2.615-6.512-3.922-7.793-4.727-7.686l-.1-.107.1-.107c2.716-.32,7.544,15.158,7.645,16.012.1,0,.1-.107,0,0Z" transform="translate(-29.987 -0.834)" fill="#1f5bd7"/>
  <path id="Контур_305" data-name="Контур 305" d="M138.138,85.623c0-.32,1.308-14.625-.3-16.439a.394.394,0,0,0-.4-.214c-.1,0-.1-.107-.1-.107a.1.1,0,0,1,.1-.107c.2,0,.3,0,.4.214,1.81,1.921.4,15.8.3,16.653Z" transform="translate(-29.752 -0.833)" fill="#1f5bd7"/>
  <path id="Контур_306" data-name="Контур 306" d="M108.115,154.888c-1.006,1.175-3.42,2.349-7.041,3.2-.805.214-.4,2.241,1.508,2.241h11.97a.743.743,0,0,0,.7-.854l-1.207-4.483c0-.214-.3-.321-.4-.321h-5.03A1.184,1.184,0,0,1,108.115,154.888Z" transform="translate(-28.036 4.668)" fill="#333"/>
  <path id="Контур_307" data-name="Контур 307" d="M133.752,154.272h-4.929c-.1,0-.4.214-.4.321l-.4,4.7c-.1.427.4.854.7.854,1.81,0,7.544-.747,9.556-1.068s1.811-2.134,1.005-2.134c-3.621-.854-3.621-1.281-4.728-2.456A1.155,1.155,0,0,0,133.752,154.272Z" transform="translate(-29.561 4.643)" fill="#333"/>
  <path id="Контур_308" data-name="Контур 308" d="M106.081,155.126a.445.445,0,0,1-.3-.427.482.482,0,0,1,.1-.32c.4-.427,2.314.641,2.615.747v.107l-.1.106c-.4,0-1.006.107-1.408.107S106.182,155.446,106.081,155.126Zm-.2-.641c0,.214,0,.427.1.427.4.427,1.71.214,2.112.107C107.389,154.7,106.182,154.272,105.88,154.485Z" transform="translate(-28.041 4.644)" fill="#194290"/>
  <path id="Контур_309" data-name="Контур 309" d="M106.581,153.488c0-.214.1-.32.4-.32,1.107-.214,1.509,2.028,1.409,2.135.1-.214.1,0,0,0C107.688,154.982,106.481,154.022,106.581,153.488Zm.5-.214c-.3,0-.3.214-.3.107-.1.32.7,1.174,1.408,1.495,0-.321-.4-1.6-1.106-1.6Z" transform="translate(-28.066 4.573)" fill="#194290"/>
  <path id="Контур_310" data-name="Контур 310" d="M134.731,152.871c.1,0,.2-.106.4-.106a.345.345,0,0,1,.2.106c.3.427-.5,1.708-.6,1.922h-.1l-.1-.107v-1.067C134.43,153.3,134.43,153.085,134.731,152.871Zm.2.107c-.2,0-.3,0-.4.106-.3.214-.3,1.068-.2,1.387C134.831,153.939,135.134,153.085,134.932,152.979Z" transform="translate(-29.574 4.549)" fill="#194290"/>
  <path id="Контур_311" data-name="Контур 311" d="M135.636,153.469c.1,0,.2.107.2.321,0,.747-1.307.96-1.408.854.1.106,0,.106,0,0C134.63,154.109,135.335,153.362,135.636,153.469Zm.1.321c0-.214-.1-.214-.1-.214-.2-.107-.8.533-1.107.96.3-.106,1.207-.32,1.207-.747Z" transform="translate(-29.591 4.592)" fill="#194290"/>
  <path id="Контур_312" data-name="Контур 312" d="M114.116,54.849a39.9,39.9,0,0,1-3.721-6.085,5.83,5.83,0,0,1-1.308-3.523,3.41,3.41,0,0,1,1.308-2.349,4.861,4.861,0,0,1,2.414-.961c2.414-.32,5.029,0,6.638,1.921a8.714,8.714,0,0,1,1.71,7.366c-.3,1.067.4,2.455,0,3.523a3.124,3.124,0,0,1-2.314,1.708A5.364,5.364,0,0,1,114.116,54.849Z" transform="translate(-28.47 -2.565)" fill="#263238"/>
  <path id="Контур_313" data-name="Контур 313" d="M124.966,51.1a19.452,19.452,0,0,1,1.61,8.967,8.805,8.805,0,0,1-1.006,3.95,6.419,6.419,0,0,1-3.521,2.348,7.543,7.543,0,0,1-6.538-1.281,9.064,9.064,0,0,1-3.219-5.658,18.919,18.919,0,0,1,.2-6.725,9.976,9.976,0,0,1,2.817-5.764,5.892,5.892,0,0,1,2.816-1.388,3.881,3.881,0,0,1,2.314.854A10.442,10.442,0,0,1,124.966,51.1Z" transform="translate(-28.708 -2.323)" fill="#263238"/>
  <path id="Контур_314" data-name="Контур 314" d="M165.5,64.336c5.734,3.736,15.088,3.1,20.922-1.494,3.521-2.669,4.928-6.191,4.325-9.287l-.5-3.523-.3,1.281a10.156,10.156,0,0,0-3.219-3.416c-5.734-3.736-15.088-3.1-20.921,1.494a10.847,10.847,0,0,0-4.124,5.764l-.805-.747.5,3.629A8.29,8.29,0,0,0,165.5,64.336Z" transform="translate(-32.335 -2.327)" fill="#ffc257"/>
  <path id="Контур_315" data-name="Контур 315" d="M185.359,56.4l.906,5.764a19.4,19.4,0,0,1-9.858,3.736L175.4,58.959Z" transform="translate(-32.276 -1.632)" fill="#ffc257"/>
  <path id="Контур_316" data-name="Контур 316" d="M175.621,60.429c0,.107.6,3.843.805,5.337a24.347,24.347,0,0,1-4.829-.107l-.9-5.444Z" transform="translate(-31.775 -1.389)" fill="#ffc257"/>
  <path id="Контур_317" data-name="Контур 317" d="M161.379,57.614l-.5-3.629.805.747c.1-.214.1-.427.2-.64l.6.32,3.923,5.017.8,5.551c-.6-.32-1.207-.64-1.71-.961C162.989,62.2,161.58,59.963,161.379,57.614Z" transform="translate(-31.246 -1.786)" fill="#ffc257"/>
  <path id="Контур_318" data-name="Контур 318" d="M170.812,60.215l.8,5.551a15.276,15.276,0,0,1-4.426-1.281l-.9-5.978Z" transform="translate(-31.509 -1.498)" fill="#ffc257"/>
  <path id="Контур_319" data-name="Контур 319" d="M176.785,62.581c8.151-1.14,14.173-6.755,13.45-12.541s-7.918-9.552-16.069-8.412-14.173,6.755-13.45,12.541S168.633,63.722,176.785,62.581Z" transform="translate(-32.301 -2.587)" fill="#ffe691"/>
  <path id="Контур_320" data-name="Контур 320" d="M174.242,60.19a12.641,12.641,0,0,1-6.941-1.921,6.731,6.731,0,0,1-3.32-5.337c-.1-2.242,1.207-4.59,3.42-6.4,4.527-3.523,11.869-4.057,16.3-1.174a6.732,6.732,0,0,1,3.319,5.337c.1,2.242-1.207,4.59-3.42,6.4A15.014,15.014,0,0,1,174.242,60.19Zm2.414-16.439a15.8,15.8,0,0,0-9.254,2.989,7.883,7.883,0,0,0-3.42,6.3,6.754,6.754,0,0,0,3.219,5.231c4.425,2.882,11.667,2.348,16.093-1.068a7.883,7.883,0,0,0,3.42-6.3,6.753,6.753,0,0,0-3.219-5.231A11.845,11.845,0,0,0,176.656,43.75Z" transform="translate(-32.178 -2.457)" fill="#fff"/>
  <path id="Контур_321" data-name="Контур 321" d="M189.528,58.757l-.7-4.163s0-.107.1-.107a.1.1,0,0,1,.1.107l.5,4.163Z" transform="translate(-32.562 -1.758)" fill="#fff"/>
  <path id="Контур_322" data-name="Контур 322" d="M186.222,62.174l-.7-4.163s0-.107.1-.107a.1.1,0,0,1,.1.107l.5,4.163Z" transform="translate(-32.38 -1.539)" fill="#fff"/>
  <path id="Контур_323" data-name="Контур 323" d="M181.615,64.585c-.1,0-.1-.107,0,0l-.7-4.163s0-.107.1-.107a.1.1,0,0,1,.1.107l.5,4.163Z" transform="translate(-32.124 -1.384)" fill="#fff"/>
  <path id="Контур_324" data-name="Контур 324" d="M176.406,65.691h0l-.7-4.163s0-.107.1-.107a.1.1,0,0,1,.1.107l.5,4.163Z" transform="translate(-31.841 -1.313)" fill="#fff"/>
  <path id="Контур_325" data-name="Контур 325" d="M171.6,65.49h0l-.7-4.163s0-.107.1-.107a.1.1,0,0,1,.1.107l.5,4.163Z" transform="translate(-31.575 -1.326)" fill="#fff"/>
  <path id="Контур_326" data-name="Контур 326" d="M167.19,64.284l-.7-4.163s0-.107.1-.107a.1.1,0,0,1,.1.107l.5,4.163Z" transform="translate(-31.334 -1.403)" fill="#fff"/>
  <path id="Контур_327" data-name="Контур 327" d="M163.885,62.274l-.7-4.163a.1.1,0,0,1,.1-.107.1.1,0,0,1,.1.107l.5,4.163C163.985,62.274,163.985,62.168,163.885,62.274Z" transform="translate(-31.152 -1.532)" fill="#fff"/>
  <path id="Контур_328" data-name="Контур 328" d="M153.084,162.363a5.694,5.694,0,0,1-5.532-5.871v-49.1a5.691,5.691,0,0,1,5.532-5.871H225.1a5.694,5.694,0,0,1,5.532,5.871v49.1a5.691,5.691,0,0,1-5.532,5.871Z" transform="translate(-35.359 1.356)" fill="#194290"/>
  <path id="Контур_329" data-name="Контур 329" d="M224.89,102.722H152.468c-2.113,0-2.917,3.309.1,3.1s72.322,0,72.322,0,3.319-.533,3.319,4.163v50.386a5.948,5.948,0,0,0,1.61-4.163V109.981C229.818,105.6,228.712,102.722,224.89,102.722Z" transform="translate(-35.346 1.431)" fill="#687da2"/>
  <path id="Контур_330" data-name="Контур 330" d="M230.325,138.594H205.782a7.7,7.7,0,0,1,0-15.372h24.543a3.942,3.942,0,0,1,3.822,4.056v7.259A3.943,3.943,0,0,1,230.325,138.594Z" transform="translate(-35.147 2.709)" fill="#006848"/>
  <path id="Контур_331" data-name="Контур 331" d="M205.875,136.472a5.882,5.882,0,1,0-5.532-5.871A5.709,5.709,0,0,0,205.875,136.472Z" transform="translate(-35.14 2.757)" fill="#004c33"/>
  <path id="Контур_332" data-name="Контур 332" d="M223.9,108.362H151.458c-.1,0-.1-.106-.1-.106l.1-.107H223.9c.1,0,.1.107.1.107S224,108.362,223.9,108.362Z" transform="translate(-35.343 1.678)" fill="#687da2"/>
  <path id="Контур_333" data-name="Контур 333" d="M224.283,155.591H151.458c-.1,0-.1-.107-.1-.107l.1-.106h72.825c.1,0,.1.106.1.106S224.384,155.591,224.283,155.591Z" transform="translate(-35.343 4.712)" fill="#687da2"/>
  <path id="Контур_334" data-name="Контур 334" d="M64.644,69.4a4.255,4.255,0,0,1-3.923-3.629L56.7,39.828C56.4,37.8,57.6,36.2,59.514,36.2a4.255,4.255,0,0,1,3.923,3.629l4.023,25.94C67.762,67.8,66.555,69.4,64.644,69.4Z" transform="translate(-25.394 -2.918)" fill="#194290"/>
  <path id="Контур_335" data-name="Контур 335" d="M68.867,36.3A14.163,14.163,0,0,0,56.9,40.788l3.822,24.979a14.886,14.886,0,0,0,4.929,1.495c8.047.961,15.289-5.231,16.194-13.771S76.914,37.266,68.867,36.3Z" transform="translate(-25.566 -2.918)" fill="#ffe691"/>
  <path id="Контур_336" data-name="Контур 336" d="M75.817,44a10.763,10.763,0,0,0-7.526-4.483,10.549,10.549,0,0,0-8.219,2.562A11.456,11.456,0,0,0,57.6,45.072v.214a12.8,12.8,0,0,1,2.574-3.2A10.512,10.512,0,0,1,67.1,39.415a5.664,5.664,0,0,1,1.287.107A10.8,10.8,0,0,1,75.817,43.9a12.506,12.506,0,0,1,2.376,8.753,12.121,12.121,0,0,1-4.06,8.006,10.444,10.444,0,0,1-8.12,2.562,10.045,10.045,0,0,1-5.941-2.775v.214a11.034,11.034,0,0,0,5.842,2.669c.4,0,.891.107,1.287.107a10.965,10.965,0,0,0,7.03-2.669,12.058,12.058,0,0,0,4.159-8.113A13.223,13.223,0,0,0,75.817,44Z" transform="translate(-25.559 -2.715)" fill="#fff"/>
  <path id="Контур_337" data-name="Контур 337" d="M76.005,44.1a11.006,11.006,0,0,0-7.544-4.377c-.4,0-.8-.107-1.308-.107a10.977,10.977,0,0,0-7.041,2.669,11.4,11.4,0,0,0-2.615,3.2l2.414,15.372a11.4,11.4,0,0,0,6.035,2.775,10.6,10.6,0,0,0,8.248-2.562,12.058,12.058,0,0,0,4.124-8.006A11.982,11.982,0,0,0,76.005,44.1Z" transform="translate(-25.554 -2.702)" fill="#ffd269"/>
  <path id="Контур_338" data-name="Контур 338" d="M61.531,123.294H86.275A4.722,4.722,0,0,0,90.9,117.53a6.781,6.781,0,0,0-6.337-5.764H59.72a4.722,4.722,0,0,0-4.627,5.764A6.884,6.884,0,0,0,61.531,123.294Z" transform="translate(-25.67 1.924)" fill="#006848"/>
  <path id="Контур_339" data-name="Контур 339" d="M61.2,114.579h.8l.4,1.921h.5l1.207-1.921h1.006l-1.509,2.241,2.615,2.349H65.227l-2.112-1.922h-.5l.4,1.922h-.8Z" transform="translate(-25.591 2.096)" fill="#fff"/>
  <path id="Контур_340" data-name="Контур 340" d="M66.113,117.4c-.2-.961.3-1.815,1.207-1.815a2.085,2.085,0,0,1,1.911,1.815.781.781,0,0,1,.029.214H66.817a1.186,1.186,0,0,0,1.106.854.8.8,0,0,0,.8-.427l.5.427a4.737,4.737,0,0,1-.692.5,1.02,1.02,0,0,1-.516.142A1.942,1.942,0,0,1,66.113,117.4Zm2.313-.214c-.2-.534-.5-.961-1.006-.961s-.7.321-.6.961Z" transform="translate(-25.842 2.159)" fill="#fff"/>
  <path id="Контур_341" data-name="Контур 341" d="M69.374,115.685h.812l.6,2.775H72.1l-.6-2.775h.7l.6,2.775h1.308l-.6-2.775h.7l.7,3.415H70.085Z" transform="translate(-25.928 2.165)" fill="#fff"/>
  <path id="Контур_342" data-name="Контур 342" d="M76.333,118.844a3.684,3.684,0,0,1-.8-1.69c-.3-1.6,0-2.349,1.207-2.562l1.106-.214.3.748-1.106.214a.94.94,0,0,0-.905,1.174,1.272,1.272,0,0,1,1.106-.533,1.789,1.789,0,0,1,1.811,1.6,1.289,1.289,0,0,1-1.308,1.708A2.413,2.413,0,0,1,76.333,118.844Zm1.911-1.263a1.2,1.2,0,0,0-1.106-.96c-.6,0-.905.427-.8,1.068a1.119,1.119,0,0,0,1.207,1.067A.841.841,0,0,0,78.244,117.581Z" transform="translate(-26.37 2.083)" fill="#fff"/>
  <path id="Контур_343" data-name="Контур 343" d="M81.648,117.079c-.2-.427-.5-.854-1.006-.854a1.067,1.067,0,0,0-.905.427l-.5-.533a1.467,1.467,0,0,1,1.207-.534,2.086,2.086,0,0,1,2.012,1.815c.2,1.068-.3,1.814-1.308,1.814a2.61,2.61,0,0,1-1.509-.533l.3-.534a1.394,1.394,0,0,0,1.006.427.658.658,0,0,0,.7-.854H80.139l-.1-.641Z" transform="translate(-26.576 2.159)" fill="#fff"/>
  <path id="Контур_344" data-name="Контур 344" d="M83.947,117.072h.4l.7-1.387h.905l-1.006,1.707,1.811,1.815h-.905l-1.408-1.388h-.4l.3,1.388h-.7l-.7-3.416h.7Z" transform="translate(-26.792 2.165)" fill="#fff"/>
  <path id="Контур_345" data-name="Контур 345" d="M145.348,13.515l2.514-5.337a.47.47,0,0,1,.6-.213l4.728,2.562a.529.529,0,0,1,.2.64L150.88,16.5Z" transform="translate(-30.431 -4.748)" fill="#ffc257"/>
  <path id="Контур_346" data-name="Контур 346" d="M148.078,21.941l2.772-5.809-5.474-2.942L142.6,19Z" transform="translate(-30.28 -4.42)" fill="#ffc257"/>
  <path id="Контур_347" data-name="Контур 347" d="M145.327,27.441l2.772-5.809-5.474-2.942L139.853,24.5Z" transform="translate(-30.123 -4.078)" fill="#ffc257"/>
  <path id="Контур_348" data-name="Контур 348" d="M142.622,32.852l2.771-5.809L139.919,24.1l-2.772,5.809Z" transform="translate(-29.968 -3.74)" fill="#ffc257"/>
  <path id="Контур_349" data-name="Контур 349" d="M134.53,34.9l2.514-5.337,5.532,2.989-2.514,5.337a.47.47,0,0,1-.6.213l-4.728-2.562A.488.488,0,0,1,134.53,34.9Z" transform="translate(-29.811 -3.354)" fill="#ffc257"/>
  <path id="Контур_350" data-name="Контур 350" d="M150.479,16.059,145.549,13.5s-.1-.107,0-.107c0,0,.1-.107.1,0l4.829,2.562c.1,0,.1,0,0,.107Z" transform="translate(-30.33 -4.411)" fill="#fff"/>
  <path id="Контур_351" data-name="Контур 351" d="M147.773,21.486l-4.928-2.562s-.1-.107,0-.107c0,0,.1-.107.1,0l4.828,2.562c.1,0,.1.107,0,.107Z" transform="translate(-30.178 -4.073)" fill="#fff"/>
  <path id="Контур_352" data-name="Контур 352" d="M144.969,27.013l-4.929-2.562s-.1-.107,0-.107c0,0,.1-.107.1,0l4.829,2.562c.1-.107.1,0,0,.107C145.069,27.013,145.069,26.906,144.969,27.013Z" transform="translate(-30.02 -3.728)" fill="#fff"/>
  <path id="Контур_353" data-name="Контур 353" d="M142.264,32.439l-4.928-2.562s-.1-.107,0-.107c0,0,.1-.107.1,0l4.828,2.455c.1.107.1.107,0,.214Z" transform="translate(-29.868 -3.39)" fill="#fff"/>
  <path id="Контур_354" data-name="Контур 354" d="M46.49,75.49H84.412a3.324,3.324,0,0,1,3.219,2.989l2.716,22.2a2.447,2.447,0,0,1-2.414,2.989H50.514a3.324,3.324,0,0,1-3.219-2.989l-3.219-22.2A2.441,2.441,0,0,1,46.49,75.49Z" transform="translate(-23.385 -0.389)" fill="#00945f"/>
  <path id="Контур_355" data-name="Контур 355" d="M55.226,84.9H50.6a3.076,3.076,0,0,1-2.917-2.669l-.1-.961a2.172,2.172,0,0,1,2.112-2.669h4.728a3.076,3.076,0,0,1,2.917,2.669l.1.961A2.344,2.344,0,0,1,55.226,84.9Z" transform="translate(-23.371 -0.21)" fill="#fff" opacity="0.2"/>
  <g id="Сгруппировать_46" data-name="Сгруппировать 46" transform="translate(44.372 79.142)" opacity="0.4">
    <path id="Контур_356" data-name="Контур 356" d="M80.739,81.318l.3,2.135h1.308l-.2-1.174h1.207c.7,0,1.207-.32,1.207-.961Z" transform="translate(-70.58 -79.183)" fill="#fff" opacity="0.4"/>
    <path id="Контур_357" data-name="Контур 357" d="M84.059,79.829a1.631,1.631,0,0,0-1.006-.32H80.438a.408.408,0,0,0,.1.32v.107a1.753,1.753,0,0,0,1.811,1.174h2.213V80.9A1.2,1.2,0,0,0,84.059,79.829Z" transform="translate(-70.581 -79.296)" fill="#fff" opacity="0.4"/>
    <path id="Контур_358" data-name="Контур 358" d="M78.345,79.936l-.6,2.028h-.1l-.3-2.455H76.132l.5,4.163h1.006a1.126,1.126,0,0,0,.6-.32l.6-2.028h.1l.3,2.455h1.207l-.5-4.163H78.948C78.747,79.4,78.445,79.616,78.345,79.936Z" transform="translate(-70.599 -79.296)" fill="#fff" opacity="0.4"/>
    <path id="Контур_359" data-name="Контур 359" d="M72.734,80.055l.8,1.921.3-1.921a.6.6,0,0,1,.6-.64h1.207l.5,4.163H74.947l-.3-2.455h-.1l-.3,2.455h-.905l-1.106-2.455h-.1l.3,2.455H71.225l-.6-4.27h1.207A1.35,1.35,0,0,1,72.734,80.055Z" transform="translate(-70.622 -79.308)" fill="#fff" opacity="0.4"/>
  </g>
  <path id="Контур_376" data-name="Контур 376" d="M104.355,33.575c-6.74.213-14.585-5.337-17.5-12.383-1.71-4.163-1.308-7.9.7-10.355l2.112-2.775-.3,1.281a8.351,8.351,0,0,1,4.426-1.174c6.739-.214,14.585,5.337,17.5,12.383a11.875,11.875,0,0,1,.906,7.259l1.006-.214-2.213,2.882A8.4,8.4,0,0,1,104.355,33.575Z" transform="translate(-27.43 -4.74)" fill="#ffc257"/>
  <path id="Контур_377" data-name="Контур 377" d="M113.424,27.3c3.345-4.633.766-12.691-5.76-18S93.135,3.448,89.79,8.082s-.766,12.691,5.761,18S110.079,31.932,113.424,27.3Z" transform="translate(-27.571 -4.935)" fill="#ffe691"/>
  <path id="Контур_378" data-name="Контур 378" d="M105.438,27.416c-5.13,0-11.065-4.27-13.278-9.607-1.106-2.775-1.106-5.444,0-7.366A6.03,6.03,0,0,1,97.492,7.56c5.23-.214,11.265,4.163,13.579,9.607,1.107,2.775,1.107,5.444,0,7.366a6.029,6.029,0,0,1-5.331,2.882ZM97.793,7.774h-.3a6.131,6.131,0,0,0-5.231,2.776c-1.106,1.921-1.106,4.483,0,7.259,2.213,5.337,8.047,9.5,13.177,9.5h.3a6.132,6.132,0,0,0,5.231-2.775c1.107-1.921,1.107-4.483,0-7.259C108.757,11.937,102.923,7.774,97.793,7.774Z" transform="translate(-27.618 -4.771)" fill="#fff"/>
  <path id="Контур_379" data-name="Контур 379" d="M85.847,16.2c-.1,0-.1-.107,0-.107l2.515-3.309h.1v.107Z" transform="translate(-26.93 -4.446)" fill="#fff"/>
  <path id="Контур_380" data-name="Контур 380" d="M87.049,20.824c-.1,0-.1-.107,0-.107l2.515-3.309h.1v.107Z" transform="translate(-26.997 -4.158)" fill="#fff"/>
  <path id="Контур_381" data-name="Контур 381" d="M89.854,25.138c-.1,0-.1-.107,0-.107l2.515-3.2h.1v.107l-2.615,3.2Z" transform="translate(-27.152 -3.882)" fill="#fff"/>
  <path id="Контур_382" data-name="Контур 382" d="M93.86,28.762h0c-.1,0-.1-.107,0-.107l2.515-3.309h.1v.107Z" transform="translate(-27.375 -3.663)" fill="#fff"/>
  <path id="Контур_383" data-name="Контур 383" d="M98.068,31.067h0c-.1,0-.1-.107,0-.107l2.515-3.2h.1v.107l-2.615,3.2Z" transform="translate(-27.608 -3.513)" fill="#fff"/>
  <path id="Контур_384" data-name="Контур 384" d="M102.474,32.172c-.1,0-.1-.107,0-.107l2.415-3.2h.1v.107Z" transform="translate(-27.851 -3.444)" fill="#fff"/>
  <path id="Контур_385" data-name="Контур 385" d="M106.381,32.072h0c-.1,0-.1-.107,0-.107l2.414-3.2h.1v.107Z" transform="translate(-28.068 -3.45)" fill="#fff"/>
  <path id="Контур_386" data-name="Контур 386" d="M97.792,7.761h-.3a6.132,6.132,0,0,0-5.231,2.775c-1.106,1.921-1.106,4.483,0,7.259,2.213,5.337,8.047,9.5,13.177,9.5h.3a6.131,6.131,0,0,0,5.231-2.775c1.107-1.921,1.107-4.483,0-7.259C108.757,11.924,102.922,7.761,97.792,7.761Z" transform="translate(-27.619 -4.759)" fill="#ffd269"/>
  <path id="Контур_387" data-name="Контур 387" d="M176.653,43.735a15.8,15.8,0,0,0-9.253,2.989,7.883,7.883,0,0,0-3.42,6.3,6.754,6.754,0,0,0,3.218,5.231c4.426,2.882,11.668,2.349,16.094-1.068a7.882,7.882,0,0,0,3.419-6.3,6.755,6.755,0,0,0-3.218-5.231A11.846,11.846,0,0,0,176.653,43.735Z" transform="translate(-32.163 -2.441)" fill="#ffd269"/>
  <path id="Контур_388" data-name="Контур 388" d="M188.89,82.731C180.843,81.77,173.6,87.961,172.7,96.5a16.592,16.592,0,0,0,2.314,10.354h24.443a17.651,17.651,0,0,0,2.414-6.939C202.771,91.377,196.938,83.691,188.89,82.731Z" transform="translate(-33.054 0.067)" fill="#ffe691"/>
  <path id="Контур_389" data-name="Контур 389" d="M179.52,106.637h15.591a12.316,12.316,0,0,0,1.005-16.012,11,11,0,0,0-7.544-4.377c-.4,0-.8-.107-1.307-.107a10.978,10.978,0,0,0-7.041,2.669,12.307,12.307,0,0,0-.7,17.827Z" transform="translate(-32.899 0.288)" fill="#ffd269"/>
  <path id="Контур_390" data-name="Контур 390" d="M179.22,106.653h.2A12.376,12.376,0,0,1,176,96.726a12.059,12.059,0,0,1,4.124-8.006,10.777,10.777,0,0,1,7.041-2.669,5.847,5.847,0,0,1,1.308.107,11,11,0,0,1,7.543,4.377,12.356,12.356,0,0,1,2.414,8.753,12.133,12.133,0,0,1-3.419,7.259h.2a12.623,12.623,0,0,0,3.32-7.259,12.5,12.5,0,0,0-2.414-8.86,10.967,10.967,0,0,0-7.645-4.483,10.829,10.829,0,0,0-8.349,2.562,12,12,0,0,0-4.224,8.113A12.769,12.769,0,0,0,179.22,106.653Z" transform="translate(-32.898 0.272)" fill="#fff"/>
</svg>
