<svg xmlns="http://www.w3.org/2000/svg" width="190" height="72" viewBox="0 0 190 72">
  <g id="Logo" transform="translate(-205 -6305.001)">
    <g id="logo_берендеево" data-name="logo берендеево" transform="translate(57.68 6115.141)">
      <g id="Сгруппировать_16" data-name="Сгруппировать 16" transform="translate(147.32 245.415)">
        <path id="Контур_177" data-name="Контур 177" d="M147.4,357.266a.494.494,0,0,1-.083-.288c.014-.187.049-.3.111-.336a.753.753,0,0,1,.354-.055,1.341,1.341,0,0,0,.8-.2.817.817,0,0,0,.326-.485,4.027,4.027,0,0,0,.083-.756v-7.415a4.71,4.71,0,0,0-.083-.756.832.832,0,0,0-.326-.485,1.334,1.334,0,0,0-.8-.2h-.111a.385.385,0,0,1-.26-.066.528.528,0,0,1-.094-.326.512.512,0,0,1,.083-.291.287.287,0,0,1,.253-.121q1.2.057,2.2.055h6c.322,0,.485.149.485.447l.055,2.635a.32.32,0,0,1-.139.27.509.509,0,0,1-.309.1.964.964,0,0,1-.419-.094.326.326,0,0,1-.215-.243,8.235,8.235,0,0,0-.326-1.4,1.437,1.437,0,0,0-.523-.721,1.86,1.86,0,0,0-.981-.253h-2.635v4.167a12.1,12.1,0,0,1,1.924-.166,6.34,6.34,0,0,1,2.513.447,3.469,3.469,0,0,1,1.56,1.234,3.113,3.113,0,0,1,.523,1.775,2.932,2.932,0,0,1-.783,2.121,4.292,4.292,0,0,1-1.962,1.147,8.971,8.971,0,0,1-2.447.336l-2.3-.017q-1.009,0-2.222.055A.292.292,0,0,1,147.4,357.266Zm7.89-3.5a2.255,2.255,0,0,0-.953-2.007,4.034,4.034,0,0,0-2.316-.645,5.106,5.106,0,0,0-1.175.111v3.81a1.913,1.913,0,0,0,.288,1.234,1.461,1.461,0,0,0,1.092.319Q155.3,356.55,155.293,353.764Z" transform="translate(-147.32 -345.49)" fill="#394a3f"/>
        <path id="Контур_178" data-name="Контур 178" d="M184.876,362.9a3.84,3.84,0,0,1-1.484-1.626,5.105,5.105,0,0,1-.5-2.277,4.646,4.646,0,0,1,.513-2.121,4.268,4.268,0,0,1,1.466-1.654,3.846,3.846,0,0,1,2.184-.634,3.578,3.578,0,0,1,2.558.849,3.455,3.455,0,0,1,1.026,2.288.93.93,0,0,1-.336.839,1.755,1.755,0,0,1-.971.225h-4.538a4.706,4.706,0,0,0,.718,2.756,2.917,2.917,0,0,0,3.595.672,3.438,3.438,0,0,0,1.064-1.168.27.27,0,0,1,.187-.094.341.341,0,0,1,.225.076.365.365,0,0,1,.187.336.3.3,0,0,1-.038.166,4.158,4.158,0,0,1-1.466,1.449,3.931,3.931,0,0,1-2.007.513A4.45,4.45,0,0,1,184.876,362.9Zm2.96-4.818c.634,0,.971-.26,1.009-.783a2.29,2.29,0,0,0-.468-1.456,1.584,1.584,0,0,0-1.328-.6,1.946,1.946,0,0,0-1.57.756,3.513,3.513,0,0,0-.69,2.083h3.047Z" transform="translate(-170.56 -351.436)" fill="#394a3f"/>
        <path id="Контур_179" data-name="Контур 179" d="M210.393,366.889a.431.431,0,0,1-.083-.26c.014-.163.045-.26.1-.291a.778.778,0,0,1,.326-.045,1.076,1.076,0,0,0,.673-.166.679.679,0,0,0,.253-.413,3.912,3.912,0,0,0,.045-.69v-8.108a6.774,6.774,0,0,0-.028-.711.594.594,0,0,0-.232-.392,1.113,1.113,0,0,0-.69-.166.671.671,0,0,1-.336-.066c-.076-.042-.111-.146-.111-.309a.347.347,0,0,1,.076-.215.31.31,0,0,1,.225-.121,10.188,10.188,0,0,0,2-.485,3.735,3.735,0,0,1,.43-.111h.055c.2,0,.3.118.3.354v.9h.055a4.624,4.624,0,0,1,1.269-.832,3.37,3.37,0,0,1,1.383-.326,3.663,3.663,0,0,1,2.007.562,3.832,3.832,0,0,1,1.39,1.577,5.122,5.122,0,0,1,.506,2.305,4.537,4.537,0,0,1-.6,2.326,4.226,4.226,0,0,1-1.588,1.577,4.179,4.179,0,0,1-2.094.562,4.452,4.452,0,0,1-1.29-.159,4.1,4.1,0,0,1-.953-.419h-.076v2.26a3.886,3.886,0,0,0,.045.69.689.689,0,0,0,.253.412,1.076,1.076,0,0,0,.673.166h.111a.372.372,0,0,1,.225.056.419.419,0,0,1,.094.281.435.435,0,0,1-.076.26.247.247,0,0,1-.225.111c-.721-.038-1.376-.056-1.962-.056-.562,0-1.206.017-1.941.056A.262.262,0,0,1,210.393,366.889Zm7.1-5.342a5.536,5.536,0,0,0,.607-2.614,4.59,4.59,0,0,0-.672-2.513,2.216,2.216,0,0,0-2-1.054,2.257,2.257,0,0,0-1.113.253,3.855,3.855,0,0,0-.9.718v5.006a2.16,2.16,0,0,0,.794.964,2.334,2.334,0,0,0,1.373.4A2.033,2.033,0,0,0,217.493,361.547Z" transform="translate(-188.475 -351.272)" fill="#394a3f"/>
        <path id="Контур_180" data-name="Контур 180" d="M246.086,362.9a3.84,3.84,0,0,1-1.484-1.626,5.105,5.105,0,0,1-.5-2.277,4.646,4.646,0,0,1,.513-2.121,4.268,4.268,0,0,1,1.466-1.654,3.846,3.846,0,0,1,2.184-.634,3.578,3.578,0,0,1,2.558.849,3.455,3.455,0,0,1,1.026,2.288.93.93,0,0,1-.336.839,1.755,1.755,0,0,1-.971.225H246a4.707,4.707,0,0,0,.718,2.756,2.917,2.917,0,0,0,3.595.672,3.438,3.438,0,0,0,1.064-1.168.27.27,0,0,1,.187-.094.341.341,0,0,1,.225.076.365.365,0,0,1,.187.336.3.3,0,0,1-.038.166,4.158,4.158,0,0,1-1.466,1.449,3.931,3.931,0,0,1-2.007.513A4.467,4.467,0,0,1,246.086,362.9Zm2.96-4.818c.634,0,.971-.26,1.009-.783a2.29,2.29,0,0,0-.468-1.456,1.584,1.584,0,0,0-1.328-.6,1.946,1.946,0,0,0-1.57.756,3.513,3.513,0,0,0-.69,2.083h3.047Z" transform="translate(-209.864 -351.436)" fill="#394a3f"/>
        <path id="Контур_181" data-name="Контур 181" d="M272.3,363.555a.468.468,0,0,1-.076-.26c.014-.163.045-.26.1-.288a.841.841,0,0,1,.326-.045,1.082,1.082,0,0,0,.69-.17.575.575,0,0,0,.232-.381,6.649,6.649,0,0,0,.028-.718V356.6a.73.73,0,0,0-.232-.6,1.1,1.1,0,0,0-.718-.2h-.111a.356.356,0,0,1-.232-.055.428.428,0,0,1-.083-.281.434.434,0,0,1,.076-.26.247.247,0,0,1,.225-.111c.711.038,1.359.055,1.941.055.485,0,1.082-.017,1.792-.055a.258.258,0,0,1,.225.111.468.468,0,0,1,.076.26c-.014.163-.045.26-.1.288a.705.705,0,0,1-.308.045.875.875,0,0,0-.6.121.49.49,0,0,0-.187.326c-.014.125-.024.4-.038.822v1.7h3.98v-1.7c0-.073,0-.257-.01-.541a.775.775,0,0,0-.2-.589.892.892,0,0,0-.617-.139h-.111a.326.326,0,0,1-.215-.055.428.428,0,0,1-.083-.281.435.435,0,0,1,.076-.26.228.228,0,0,1,.2-.111c.711.038,1.314.055,1.813.055.562,0,1.206-.017,1.941-.055a.258.258,0,0,1,.225.111.468.468,0,0,1,.076.26c-.014.163-.045.26-.1.288a.768.768,0,0,1-.326.045,1.082,1.082,0,0,0-.69.17.625.625,0,0,0-.243.392,4.851,4.851,0,0,0-.038.711v4.614a4.885,4.885,0,0,0,.038.711.624.624,0,0,0,.243.392,1.111,1.111,0,0,0,.69.17h.111a.373.373,0,0,1,.225.055.419.419,0,0,1,.094.281.435.435,0,0,1-.076.26.247.247,0,0,1-.225.111c-.721-.038-1.369-.055-1.941-.055-.5,0-1.1.017-1.813.055a.235.235,0,0,1-.2-.111.468.468,0,0,1-.076-.26c.014-.163.045-.26.1-.288a.776.776,0,0,1,.309-.045.876.876,0,0,0,.6-.121.49.49,0,0,0,.187-.326c.014-.125.024-.4.038-.822v-2.184h-3.98V361.7c0,.073,0,.257.01.541a.775.775,0,0,0,.2.589.874.874,0,0,0,.617.139h.094a.373.373,0,0,1,.225.055.419.419,0,0,1,.094.281.434.434,0,0,1-.076.26.247.247,0,0,1-.225.111c-.711-.038-1.307-.055-1.792-.055-.586,0-1.234.017-1.941.055A.267.267,0,0,1,272.3,363.555Z" transform="translate(-228.024 -351.769)" fill="#394a3f"/>
        <path id="Контур_182" data-name="Контур 182" d="M305.321,365.923a.287.287,0,0,1-.121-.253V363.3a.379.379,0,0,1,.43-.43h.485a6.262,6.262,0,0,0,1.355-2.492,14.879,14.879,0,0,0,.5-3.241,4.883,4.883,0,0,0-.038-.711.639.639,0,0,0-.243-.392,1.111,1.111,0,0,0-.69-.17h-.111a.373.373,0,0,1-.225-.055.419.419,0,0,1-.094-.281.626.626,0,0,1,.076-.309.238.238,0,0,1,.225-.139c.721.038,1.362.055,1.924.055h3.681c.572,0,1.22-.017,1.941-.055a.241.241,0,0,1,.225.139.666.666,0,0,1,.076.309c-.014.163-.045.26-.1.288a.768.768,0,0,1-.326.045,1.081,1.081,0,0,0-.69.17.624.624,0,0,0-.243.392,4.841,4.841,0,0,0-.038.711v4.447a3.805,3.805,0,0,0,.055.783.562.562,0,0,0,.291.374,1.636,1.636,0,0,0,.756.132.379.379,0,0,1,.43.43v2.371a.292.292,0,0,1-.121.253.494.494,0,0,1-.288.083.8.8,0,0,1-.364-.076.272.272,0,0,1-.177-.225,7.942,7.942,0,0,0-.27-1.29,1.182,1.182,0,0,0-.44-.617,1.585,1.585,0,0,0-.9-.2h-4.52a1.615,1.615,0,0,0-.9.2,1.169,1.169,0,0,0-.44.617,7.946,7.946,0,0,0-.27,1.29.289.289,0,0,1-.177.225.876.876,0,0,1-.364.076A.5.5,0,0,1,305.321,365.923Zm5.519-3.054a.832.832,0,0,0,.589-.17,1.081,1.081,0,0,0,.177-.749v-6.219h-1.775c-.412,0-.669.087-.776.26a1.1,1.1,0,0,0-.159.589V357a18.657,18.657,0,0,1-.468,3.456,5.756,5.756,0,0,1-1.234,2.409h3.647Z" transform="translate(-249.338 -351.756)" fill="#394a3f"/>
        <path id="Контур_183" data-name="Контур 183" d="M338.82,362.9a3.863,3.863,0,0,1-1.484-1.626A5.108,5.108,0,0,1,336.83,359a4.646,4.646,0,0,1,.513-2.121,4.268,4.268,0,0,1,1.466-1.654,3.846,3.846,0,0,1,2.184-.634,3.578,3.578,0,0,1,2.558.849,3.456,3.456,0,0,1,1.026,2.288.93.93,0,0,1-.336.839,1.755,1.755,0,0,1-.971.225h-4.538a4.706,4.706,0,0,0,.718,2.756,2.917,2.917,0,0,0,3.595.672,3.438,3.438,0,0,0,1.064-1.168.27.27,0,0,1,.187-.094.348.348,0,0,1,.225.076.365.365,0,0,1,.187.336.3.3,0,0,1-.038.166,4.158,4.158,0,0,1-1.466,1.449,3.931,3.931,0,0,1-2.007.513A4.446,4.446,0,0,1,338.82,362.9Zm2.96-4.818c.634,0,.971-.26,1.009-.783a2.29,2.29,0,0,0-.468-1.456,1.583,1.583,0,0,0-1.328-.6,1.946,1.946,0,0,0-1.57.756,3.513,3.513,0,0,0-.69,2.083h3.047Z" transform="translate(-269.79 -351.436)" fill="#394a3f"/>
        <path id="Контур_184" data-name="Контур 184" d="M367.21,362.9a3.84,3.84,0,0,1-1.484-1.626A5.107,5.107,0,0,1,365.22,359a4.646,4.646,0,0,1,.513-2.121,4.268,4.268,0,0,1,1.466-1.654,3.846,3.846,0,0,1,2.184-.634,3.578,3.578,0,0,1,2.558.849,3.455,3.455,0,0,1,1.026,2.288.93.93,0,0,1-.336.839,1.755,1.755,0,0,1-.971.225h-4.538a4.706,4.706,0,0,0,.718,2.756,2.917,2.917,0,0,0,3.595.672,3.438,3.438,0,0,0,1.064-1.168.27.27,0,0,1,.187-.094.342.342,0,0,1,.225.076.365.365,0,0,1,.187.336.3.3,0,0,1-.038.166,4.158,4.158,0,0,1-1.466,1.449,3.931,3.931,0,0,1-2.007.513A4.462,4.462,0,0,1,367.21,362.9Zm2.964-4.818c.634,0,.971-.26,1.009-.783a2.29,2.29,0,0,0-.468-1.456,1.584,1.584,0,0,0-1.328-.6,1.946,1.946,0,0,0-1.57.756,3.513,3.513,0,0,0-.69,2.083h3.047Z" transform="translate(-288.137 -351.436)" fill="#394a3f"/>
        <path id="Контур_185" data-name="Контур 185" d="M393.383,363.548a.424.424,0,0,1-.083-.26c.014-.163.045-.26.1-.288a.768.768,0,0,1,.326-.045,1.082,1.082,0,0,0,.69-.17.639.639,0,0,0,.243-.392,4.847,4.847,0,0,0,.038-.711v-4.614a4.881,4.881,0,0,0-.038-.711.639.639,0,0,0-.243-.392,1.111,1.111,0,0,0-.69-.17h-.111a.373.373,0,0,1-.225-.055.458.458,0,0,1-.01-.541.253.253,0,0,1,.215-.111c.735.038,1.383.055,1.941.055h2.728a5.169,5.169,0,0,1,2.3.412,1.547,1.547,0,0,1,.8,1.511,1.611,1.611,0,0,1-.607,1.317,3.458,3.458,0,0,1-1.355.683v.038a2.788,2.788,0,0,1,1.3.374,2.371,2.371,0,0,1,.867.849,2.122,2.122,0,0,1,.3,1.075,1.785,1.785,0,0,1-1.113,1.664,5.67,5.67,0,0,1-2.586.562h-.447c-.26-.014-.991-.017-2.184-.017-.562,0-1.21.017-1.941.055A.294.294,0,0,1,393.383,363.548Zm3.633-4.725a4.78,4.78,0,0,0,1.719-.281,1.252,1.252,0,0,0,.728-1.328,1.45,1.45,0,0,0-.44-1.12,1.834,1.834,0,0,0-1.3-.413h-1.307v3.137h.6Zm2.336,3.754a1.561,1.561,0,0,0,.579-1.251,1.684,1.684,0,0,0-.711-1.39,3.594,3.594,0,0,0-2.2-.551h-.6V362a.913.913,0,0,0,.354.839,1.891,1.891,0,0,0,1.009.225A2.376,2.376,0,0,0,399.352,362.578Z" transform="translate(-306.276 -351.762)" fill="#394a3f"/>
        <path id="Контур_186" data-name="Контур 186" d="M425.944,362.9a4.367,4.367,0,0,1-2.094-3.726,4.464,4.464,0,0,1,.655-2.437,4.542,4.542,0,0,1,1.66-1.588,4.272,4.272,0,0,1,4.295.055,4.367,4.367,0,0,1,2.094,3.726,4.438,4.438,0,0,1-.662,2.437,4.6,4.6,0,0,1-1.671,1.588,4.175,4.175,0,0,1-2.017.551A4.249,4.249,0,0,1,425.944,362.9Zm4.118-1.168a5.851,5.851,0,0,0,.589-2.8,5.061,5.061,0,0,0-.607-2.624,2,2,0,0,0-1.841-1.019,1.967,1.967,0,0,0-1.868,1.064,5.827,5.827,0,0,0-.579,2.784,5.227,5.227,0,0,0,.6,2.641,1.991,1.991,0,0,0,1.848,1.036A1.97,1.97,0,0,0,430.062,361.734Z" transform="translate(-326.017 -351.442)" fill="#394a3f"/>
        <path id="Контур_187" data-name="Контур 187" d="M472.422,361.6a1.765,1.765,0,0,1-.149-.728,1.747,1.747,0,0,1,.783-1.577,3.3,3.3,0,0,1,1.848-.513,4.114,4.114,0,0,1,1.29.2c.412.135.908.336,1.494.6s1.1.458,1.511.589a4.144,4.144,0,0,0,1.269.2,1.626,1.626,0,0,0,1.168-.4,1.3,1.3,0,0,0,.419-.981,1.58,1.58,0,0,0-.485-1.168,2.051,2.051,0,0,0-1.494-.475H471.15q-.972,0-2.184.055a.291.291,0,0,1-.253-.121.493.493,0,0,1-.083-.288c.014-.187.052-.3.121-.336a.767.767,0,0,1,.347-.055,1.341,1.341,0,0,0,.8-.2.816.816,0,0,0,.326-.485,4.342,4.342,0,0,0,.083-.756v-7.415a4.711,4.711,0,0,0-.083-.756.832.832,0,0,0-.326-.485,1.334,1.334,0,0,0-.8-.2h-.111a.4.4,0,0,1-.253-.066c-.055-.042-.09-.152-.1-.326a.513.513,0,0,1,.083-.291.287.287,0,0,1,.253-.121q1.2.057,2.167.055,1.175,0,2.392-.055a.267.267,0,0,1,.232.121.5.5,0,0,1,.083.291c-.014.187-.049.3-.111.336a.753.753,0,0,1-.354.055,1.341,1.341,0,0,0-.8.2.816.816,0,0,0-.326.485,4.056,4.056,0,0,0-.083.756v7.3a1.862,1.862,0,0,0,.3,1.234,1.489,1.489,0,0,0,1.1.319h4.278v-8.853a4.711,4.711,0,0,0-.083-.756.832.832,0,0,0-.326-.485,1.334,1.334,0,0,0-.8-.2h-.111a.431.431,0,0,1-.27-.066c-.055-.042-.09-.153-.1-.326a.472.472,0,0,1,.094-.291.294.294,0,0,1,.243-.121q1.212.057,2.243.055,1.1,0,2.316-.055a.291.291,0,0,1,.253.121.5.5,0,0,1,.083.291c-.014.187-.052.3-.121.336a.825.825,0,0,1-.364.055,1.341,1.341,0,0,0-.8.2.816.816,0,0,0-.326.485,4.062,4.062,0,0,0-.083.756v7.117a1.96,1.96,0,0,0,.2.953,1.372,1.372,0,0,0,.5.534,6.424,6.424,0,0,0,.783.381,5.392,5.392,0,0,1,.877.44,1.914,1.914,0,0,1,.589.645,2.565,2.565,0,0,1,.291,1.158,2.81,2.81,0,0,1-.87,2.156,3.666,3.666,0,0,1-2.586.811,4.443,4.443,0,0,1-1.494-.243,14.131,14.131,0,0,1-1.643-.728,13.946,13.946,0,0,0-1.279-.589,2.877,2.877,0,0,0-1.036-.2,1.094,1.094,0,0,0-.749.232.739.739,0,0,0-.26.568.6.6,0,0,0,.149.374.606.606,0,0,1,.149.243.309.309,0,0,1-.111.232.376.376,0,0,1-.26.1A.517.517,0,0,1,472.422,361.6Z" transform="translate(-354.88 -345.497)" fill="#394a3f"/>
        <path id="Контур_188" data-name="Контур 188" d="M513.67,362.868a2.277,2.277,0,0,1,.094-3.352,4.181,4.181,0,0,1,1.868-.766,27.233,27.233,0,0,1,2.8-.27V357a1.925,1.925,0,0,0-.458-1.39,1.967,1.967,0,0,0-1.466-.475,1.544,1.544,0,0,0-1.009.354,1.168,1.168,0,0,0-.43.953.836.836,0,0,0,.139.5,1.712,1.712,0,0,0,.3.326.841.841,0,0,1,.159.149c0,.076-.076.17-.232.288a.918.918,0,0,1-.568.177,1.065,1.065,0,0,1-.887-.412,1.506,1.506,0,0,1-.326-.971,1.53,1.53,0,0,1,.867-1.439,4.373,4.373,0,0,1,2.1-.468,4.788,4.788,0,0,1,2.492.579,2.3,2.3,0,0,1,.964,2.149v4.354a1.552,1.552,0,0,0,.243.749.8.8,0,0,0,.728.354.326.326,0,0,1,.215.055.333.333,0,0,1,.066.243c0,.149-.114.26-.347.326a2.37,2.37,0,0,1-.683.1,2.011,2.011,0,0,1-1.251-.413,1.543,1.543,0,0,1-.617-1.1,2.584,2.584,0,0,1-1.206,1.12,3.981,3.981,0,0,1-1.747.392A2.551,2.551,0,0,1,513.67,362.868Zm3.588-.693a2.369,2.369,0,0,0,.86-.867,2.414,2.414,0,0,0,.319-1.224V359.02a6.72,6.72,0,0,0-2.763.634,1.7,1.7,0,0,0-.8,1.57q0,1.269,1.213,1.269A2.3,2.3,0,0,0,517.258,362.175Z" transform="translate(-383.619 -351.435)" fill="#394a3f"/>
        <path id="Контур_189" data-name="Контур 189" d="M540.543,366.889a.431.431,0,0,1-.083-.26c.014-.163.045-.26.1-.291a.767.767,0,0,1,.326-.045,1.076,1.076,0,0,0,.673-.166.7.7,0,0,0,.253-.413,3.92,3.92,0,0,0,.045-.69v-8.108a6.793,6.793,0,0,0-.028-.711.594.594,0,0,0-.232-.392,1.113,1.113,0,0,0-.69-.166.671.671,0,0,1-.336-.066c-.076-.042-.111-.146-.111-.309a.347.347,0,0,1,.076-.215.31.31,0,0,1,.225-.121,10.189,10.189,0,0,0,2-.485,3.734,3.734,0,0,1,.43-.111h.055c.2,0,.3.118.3.354v.9h.055a4.624,4.624,0,0,1,1.269-.832,3.371,3.371,0,0,1,1.383-.326,3.663,3.663,0,0,1,2.007.562,3.832,3.832,0,0,1,1.39,1.577,5.122,5.122,0,0,1,.506,2.305,4.536,4.536,0,0,1-.6,2.326,4.226,4.226,0,0,1-1.588,1.577,4.178,4.178,0,0,1-2.094.562,4.452,4.452,0,0,1-1.29-.159,4.094,4.094,0,0,1-.953-.419h-.073v2.26a3.888,3.888,0,0,0,.045.69.689.689,0,0,0,.253.412,1.069,1.069,0,0,0,.672.166h.111a.373.373,0,0,1,.225.056c.052.038.08.132.094.281a.435.435,0,0,1-.076.26.258.258,0,0,1-.225.111c-.721-.038-1.376-.056-1.962-.056-.562,0-1.21.017-1.941.056A.263.263,0,0,1,540.543,366.889Zm7.1-5.342a5.536,5.536,0,0,0,.607-2.614,4.59,4.59,0,0,0-.672-2.513,2.213,2.213,0,0,0-2-1.054,2.257,2.257,0,0,0-1.113.253,3.857,3.857,0,0,0-.9.718v5.006a2.161,2.161,0,0,0,.794.964,2.334,2.334,0,0,0,1.373.4A2.033,2.033,0,0,0,547.643,361.547Z" transform="translate(-401.356 -351.272)" fill="#394a3f"/>
        <path id="Контур_190" data-name="Контур 190" d="M575.325,362.289a4.706,4.706,0,0,1-1.085-3.252,4.645,4.645,0,0,1,.627-2.271,4.31,4.31,0,0,1,1.577-1.57,4.614,4.614,0,0,1,2.184-.607,4.473,4.473,0,0,1,2.066.447,1.55,1.55,0,0,1,.867,1.494,1.6,1.6,0,0,1-.347,1.019,1.123,1.123,0,0,1-.926.44.987.987,0,0,1-.607-.187c-.166-.125-.253-.232-.253-.319,0-.014.055-.069.17-.17a1.9,1.9,0,0,0,.309-.364.882.882,0,0,0,.139-.5,1,1,0,0,0-.419-.877,1.727,1.727,0,0,0-1.019-.3,1.961,1.961,0,0,0-1.952,1.054,6.009,6.009,0,0,0-.513,2.641,4.367,4.367,0,0,0,.711,2.579,2.2,2.2,0,0,0,1.886,1.009,2.589,2.589,0,0,0,1.373-.347,3.347,3.347,0,0,0,1.036-1.054.2.2,0,0,1,.187-.094.443.443,0,0,1,.2.055.3.3,0,0,1,.149.132.354.354,0,0,1,.055.187.306.306,0,0,1-.055.149,4.587,4.587,0,0,1-1.532,1.39,3.734,3.734,0,0,1-1.848.513A3.774,3.774,0,0,1,575.325,362.289Z" transform="translate(-423.221 -351.435)" fill="#394a3f"/>
        <path id="Контур_191" data-name="Контур 191" d="M602.375,363.653a.424.424,0,0,1-.083-.26c.014-.163.045-.26.1-.288a.767.767,0,0,1,.326-.045,1.081,1.081,0,0,0,.69-.17.639.639,0,0,0,.243-.392,4.851,4.851,0,0,0,.038-.711v-5.942h-.822a1.4,1.4,0,0,0-.877.232,1.3,1.3,0,0,0-.43.673,10.287,10.287,0,0,0-.26,1.335.29.29,0,0,1-.187.225.925.925,0,0,1-.374.076.471.471,0,0,1-.281-.094.287.287,0,0,1-.132-.243l.055-2.371c0-.288.149-.43.447-.43h7.415c.3,0,.447.142.447.43l.055,2.371a.287.287,0,0,1-.132.243.471.471,0,0,1-.281.094.882.882,0,0,1-.374-.076.285.285,0,0,1-.187-.225,8.571,8.571,0,0,0-.281-1.317,1.349,1.349,0,0,0-.468-.69,1.489,1.489,0,0,0-.9-.232h-.749v5.941c0,.073,0,.257.01.541a.776.776,0,0,0,.2.589.874.874,0,0,0,.617.139h.111a.326.326,0,0,1,.215.055.428.428,0,0,1,.083.281.435.435,0,0,1-.076.26.228.228,0,0,1-.2.111c-.711-.038-1.314-.055-1.813-.055-.562,0-1.21.017-1.941.055A.244.244,0,0,1,602.375,363.653Z" transform="translate(-439.636 -351.867)" fill="#394a3f"/>
        <path id="Контур_192" data-name="Контур 192" d="M629.293,363.548a.424.424,0,0,1-.083-.26c.014-.163.045-.26.1-.288a.767.767,0,0,1,.326-.045,1.082,1.082,0,0,0,.69-.17.64.64,0,0,0,.243-.392,4.851,4.851,0,0,0,.038-.711v-4.614a4.885,4.885,0,0,0-.038-.711.64.64,0,0,0-.243-.392,1.111,1.111,0,0,0-.69-.17h-.111a.373.373,0,0,1-.225-.055.458.458,0,0,1-.01-.541.253.253,0,0,1,.215-.111c.735.038,1.383.055,1.941.055h2.728a5.168,5.168,0,0,1,2.3.412,1.547,1.547,0,0,1,.8,1.511,1.611,1.611,0,0,1-.607,1.317,3.458,3.458,0,0,1-1.355.683v.038a2.788,2.788,0,0,1,1.3.374,2.37,2.37,0,0,1,.867.849,2.122,2.122,0,0,1,.3,1.075,1.785,1.785,0,0,1-1.113,1.664,5.67,5.67,0,0,1-2.586.562h-.447c-.26-.014-.991-.017-2.184-.017-.562,0-1.21.017-1.941.055A.294.294,0,0,1,629.293,363.548Zm3.633-4.725a4.78,4.78,0,0,0,1.719-.281,1.253,1.253,0,0,0,.728-1.328,1.45,1.45,0,0,0-.44-1.12,1.834,1.834,0,0,0-1.3-.413h-1.307v3.137h.6Zm2.336,3.754a1.561,1.561,0,0,0,.579-1.251,1.684,1.684,0,0,0-.711-1.39,3.594,3.594,0,0,0-2.2-.551h-.6V362a.913.913,0,0,0,.354.839,1.891,1.891,0,0,0,1.009.225A2.382,2.382,0,0,0,635.262,362.578Z" transform="translate(-458.505 -351.762)" fill="#394a3f"/>
        <path id="Контур_193" data-name="Контур 193" d="M661.854,362.9a4.367,4.367,0,0,1-2.094-3.726,4.464,4.464,0,0,1,.655-2.437,4.543,4.543,0,0,1,1.66-1.588,4.272,4.272,0,0,1,4.295.055,4.367,4.367,0,0,1,2.094,3.726,4.438,4.438,0,0,1-.662,2.437,4.6,4.6,0,0,1-1.671,1.588,4.175,4.175,0,0,1-2.017.551A4.249,4.249,0,0,1,661.854,362.9Zm4.118-1.168a5.851,5.851,0,0,0,.589-2.8,5.062,5.062,0,0,0-.607-2.624,2,2,0,0,0-1.841-1.019,1.967,1.967,0,0,0-1.868,1.064,5.825,5.825,0,0,0-.579,2.784,5.227,5.227,0,0,0,.6,2.641,1.991,1.991,0,0,0,1.848,1.036A1.97,1.97,0,0,0,665.972,361.734Z" transform="translate(-478.465 -351.442)" fill="#394a3f"/>
      </g>
      <g id="Сгруппировать_17" data-name="Сгруппировать 17" transform="translate(188.612 211.482)">
        <path id="Контур_194" data-name="Контур 194" d="M263.852,256.96a.245.245,0,0,1-.042-.142c.007-.094.024-.149.055-.166a.4.4,0,0,1,.177-.028.656.656,0,0,0,.4-.1.428.428,0,0,0,.163-.239,2.3,2.3,0,0,0,.042-.374v-3.668a2.351,2.351,0,0,0-.042-.374.391.391,0,0,0-.163-.239.681.681,0,0,0-.4-.1h-.055a.2.2,0,0,1-.128-.031.245.245,0,0,1-.045-.163.238.238,0,0,1,.042-.142.127.127,0,0,1,.114-.059c.406.017.773.028,1.1.028h2.9c.159,0,.239.073.239.222l.028,1.293a.155.155,0,0,1-.083.135.312.312,0,0,1-.166.052.432.432,0,0,1-.194-.042.156.156,0,0,1-.094-.125,3.717,3.717,0,0,0-.163-.686.7.7,0,0,0-.26-.35.922.922,0,0,0-.485-.125h-1.238v2.347h1.671a.137.137,0,0,1,.1.069.272.272,0,0,1,.038.142.224.224,0,0,1-.038.128.113.113,0,0,1-.1.055h-1.671v1.747a2.923,2.923,0,0,0,.045.309.356.356,0,0,0,.166.208.74.74,0,0,0,.433.083h.849a1.042,1.042,0,0,0,.489-.107.686.686,0,0,0,.263-.3,5.069,5.069,0,0,0,.236-.666c.042-.111.149-.152.315-.128a.436.436,0,0,1,.163.073.149.149,0,0,1,.059.139l-.184,1.165a.237.237,0,0,1-.083.156.346.346,0,0,1-.184.038h-3.047c-.333,0-.7.01-1.109.028A.162.162,0,0,1,263.852,256.96Z" transform="translate(-263.81 -250.977)" fill="#394a3f"/>
        <path id="Контур_195" data-name="Контур 195" d="M280.973,256.532a1.108,1.108,0,0,1-.513-.991.74.74,0,0,1,.225-.551.812.812,0,0,1,.586-.218.5.5,0,0,1,.322.107.268.268,0,0,1,.111.18c0,.007-.031.028-.094.066a.543.543,0,0,0-.166.166.552.552,0,0,0-.073.305.842.842,0,0,0,.263.669,1.207,1.207,0,0,0,.818.236,1.406,1.406,0,0,0,.666-.149,1.129,1.129,0,0,0,.44-.392.932.932,0,0,0,.153-.513.883.883,0,0,0-.191-.572,1.6,1.6,0,0,0-.468-.4,8.069,8.069,0,0,0-.756-.374,8.062,8.062,0,0,1-.894-.454,1.88,1.88,0,0,1-.582-.541,1.407,1.407,0,0,1-.239-.835,1.383,1.383,0,0,1,.548-1.2,2.759,2.759,0,0,1,2.669-.1.946.946,0,0,1,.523.867.739.739,0,0,1-.225.551.812.812,0,0,1-.586.218.5.5,0,0,1-.322-.107.268.268,0,0,1-.111-.18.465.465,0,0,1,.125-.066.679.679,0,0,0,.222-.166.442.442,0,0,0,.1-.305.63.63,0,0,0-.263-.537,1.108,1.108,0,0,0-.669-.194,1.22,1.22,0,0,0-.853.263.844.844,0,0,0-.291.652.832.832,0,0,0,.177.541,1.907,1.907,0,0,0,.562.43c.208.111.437.222.683.333a7.917,7.917,0,0,1,.936.489,1.943,1.943,0,0,1,.582.582,1.6,1.6,0,0,1,.236.894,1.325,1.325,0,0,1-.291.835,1.963,1.963,0,0,1-.783.586,2.7,2.7,0,0,1-1.085.211A2.651,2.651,0,0,1,280.973,256.532Z" transform="translate(-274.688 -250.67)" fill="#394a3f"/>
        <path id="Контур_196" data-name="Контур 196" d="M295.8,257.006a.245.245,0,0,1-.042-.142c.007-.094.024-.149.055-.166a.4.4,0,0,1,.177-.028.663.663,0,0,0,.4-.1.428.428,0,0,0,.163-.239,1.933,1.933,0,0,0,.042-.374v-4.406h-.638a.868.868,0,0,0-.485.135.765.765,0,0,0-.26.371,3.578,3.578,0,0,0-.152.7.165.165,0,0,1-.111.121.5.5,0,0,1-.211.045.246.246,0,0,1-.153-.052.164.164,0,0,1-.069-.135l.028-1.3c0-.149.083-.222.25-.222H299.3c.159,0,.239.073.239.222l.038,1.3a.159.159,0,0,1-.073.135.263.263,0,0,1-.156.052.478.478,0,0,1-.208-.045.161.161,0,0,1-.107-.121,4.291,4.291,0,0,0-.156-.7.718.718,0,0,0-.26-.364.889.889,0,0,0-.489-.135h-.627v4.406a2.351,2.351,0,0,0,.042.374.391.391,0,0,0,.163.239.656.656,0,0,0,.4.1h.055a.207.207,0,0,1,.125.031c.028.021.045.076.052.163a.238.238,0,0,1-.042.142.137.137,0,0,1-.125.059c-.4-.017-.756-.028-1.089-.028-.371,0-.756.01-1.154.028A.163.163,0,0,1,295.8,257.006Z" transform="translate(-283.868 -251.023)" fill="#394a3f"/>
        <path id="Контур_197" data-name="Контур 197" d="M311.332,256.96a.245.245,0,0,1-.042-.142c.007-.094.024-.149.055-.166a.4.4,0,0,1,.177-.028.656.656,0,0,0,.4-.1.428.428,0,0,0,.163-.239,2.3,2.3,0,0,0,.042-.374v-3.668a2.351,2.351,0,0,0-.042-.374.391.391,0,0,0-.163-.239.681.681,0,0,0-.4-.1h-.055a.2.2,0,0,1-.128-.031.244.244,0,0,1-.045-.163.238.238,0,0,1,.042-.142.127.127,0,0,1,.114-.059c.406.017.773.028,1.1.028h1.442a3.585,3.585,0,0,1,1.612.357,2.763,2.763,0,0,1,1.144,1.019,2.873,2.873,0,0,1,.419,1.57,2.649,2.649,0,0,1-.475,1.595,2.9,2.9,0,0,1-1.238.971,4.2,4.2,0,0,1-1.629.319h-1.276c-.326,0-.693.01-1.1.028A.163.163,0,0,1,311.332,256.96Zm4.212-.981a3.057,3.057,0,0,0,.5-1.872,3.171,3.171,0,0,0-.274-1.352,2.1,2.1,0,0,0-.79-.929,2.227,2.227,0,0,0-1.227-.333l-.721.01v4.517a.537.537,0,0,0,.218.5,1.4,1.4,0,0,0,.707.135A1.862,1.862,0,0,0,315.543,255.979Z" transform="translate(-294.831 -250.977)" fill="#394a3f"/>
        <path id="Контур_198" data-name="Контур 198" d="M329.966,266a.594.594,0,0,1,0-.825.621.621,0,0,1,.846,0,.586.586,0,0,1,0,.825.6.6,0,0,1-.43.163A.581.581,0,0,1,329.966,266Z" transform="translate(-306.925 -260.039)" fill="#394a3f"/>
      </g>
      <g id="Сгруппировать_18" data-name="Сгруппировать 18" transform="translate(276.866 212.729)">
        <path id="Контур_199" data-name="Контур 199" d="M513.09,258.953a.308.308,0,0,1,.042-.149.134.134,0,0,1,.107-.038,4.468,4.468,0,0,0,.735-.042.452.452,0,0,0,.322-.218,1.23,1.23,0,0,0,.107-.593v-1.92a2.422,2.422,0,0,0-.042-.624.348.348,0,0,0-.18-.246,1.153,1.153,0,0,0-.426-.055H513.3c-.111,0-.166-.073-.166-.222.007-.094.024-.149.055-.17a.2.2,0,0,1,.114-.031h.1a2.334,2.334,0,0,0,.756-.125c.246-.083.513-.184.8-.3a.27.27,0,0,1,.094-.017c.1,0,.149.069.149.211v3.5a1.268,1.268,0,0,0,.1.582.441.441,0,0,0,.305.222,3.409,3.409,0,0,0,.669.045h.094a.144.144,0,0,1,.107.038.283.283,0,0,1,.042.149c0,.149-.055.222-.166.222-.444-.017-.96-.028-1.553-.028s-1.1.01-1.543.028Q513.09,259.176,513.09,258.953Z" transform="translate(-513.09 -254.2)" fill="#394a3f"/>
        <path id="Контур_200" data-name="Контур 200" d="M525.759,259.463c-.125,0-.184-.055-.184-.166a.2.2,0,0,1,.166-.194,2.645,2.645,0,0,0,2.014-1.893,2.139,2.139,0,0,1-.607.288,2.335,2.335,0,0,1-.624.083,1.692,1.692,0,0,1-.811-.2,1.518,1.518,0,0,1-.582-.544,1.482,1.482,0,0,1-.211-.79,1.5,1.5,0,0,1,.267-.88,1.789,1.789,0,0,1,.7-.6,2.056,2.056,0,0,1,.922-.211,1.849,1.849,0,0,1,1.4.544,2.069,2.069,0,0,1,.523,1.487,2.818,2.818,0,0,1-.357,1.394,3.115,3.115,0,0,1-1,1.085,3.757,3.757,0,0,1-1.477.586A1.323,1.323,0,0,1,525.759,259.463Zm1.563-2.413a2,2,0,0,0,.471-.309,1.5,1.5,0,0,0,.055-.361,3.157,3.157,0,0,0-.1-.766,1.688,1.688,0,0,0-.333-.679.756.756,0,0,0-.607-.281.884.884,0,0,0-.721.364,1.487,1.487,0,0,0-.288.946,1.282,1.282,0,0,0,.288.874.948.948,0,0,0,.749.329A1.213,1.213,0,0,0,527.322,257.05Z" transform="translate(-520.819 -254.305)" fill="#394a3f"/>
        <path id="Контур_201" data-name="Контур 201" d="M539.969,259.463c-.125,0-.184-.055-.184-.166a.2.2,0,0,1,.166-.194,2.645,2.645,0,0,0,2.014-1.893,2.14,2.14,0,0,1-.607.288,2.335,2.335,0,0,1-.624.083,1.692,1.692,0,0,1-.811-.2,1.519,1.519,0,0,1-.582-.544,1.482,1.482,0,0,1-.211-.79,1.5,1.5,0,0,1,.267-.88,1.788,1.788,0,0,1,.7-.6,2.056,2.056,0,0,1,.922-.211,1.848,1.848,0,0,1,1.4.544,2.069,2.069,0,0,1,.523,1.487,2.818,2.818,0,0,1-.357,1.394,3.116,3.116,0,0,1-1,1.085,3.757,3.757,0,0,1-1.477.586C540.076,259.459,540.028,259.463,539.969,259.463Zm1.56-2.413a2,2,0,0,0,.471-.309,1.5,1.5,0,0,0,.055-.361,3.157,3.157,0,0,0-.1-.766,1.687,1.687,0,0,0-.333-.679.756.756,0,0,0-.607-.281.884.884,0,0,0-.721.364,1.488,1.488,0,0,0-.288.946,1.282,1.282,0,0,0,.288.874.948.948,0,0,0,.749.329A1.213,1.213,0,0,0,541.529,257.05Z" transform="translate(-530.103 -254.305)" fill="#394a3f"/>
        <path id="Контур_202" data-name="Контур 202" d="M554.5,259.248a1.488,1.488,0,0,1-.634-.482,1.142,1.142,0,0,1-.222-.693,1.013,1.013,0,0,1,.274-.707,2.268,2.268,0,0,1,.808-.53,2.337,2.337,0,0,1-.652-.544,1.019,1.019,0,0,1-.208-.627A1.06,1.06,0,0,1,554.1,255a1.639,1.639,0,0,1,.638-.482,2.06,2.06,0,0,1,.849-.177,1.932,1.932,0,0,1,.822.166,1.359,1.359,0,0,1,.562.454,1.092,1.092,0,0,1,.2.648.976.976,0,0,1-.232.624,2.03,2.03,0,0,1-.693.523,2.451,2.451,0,0,1,.863.544,1.053,1.053,0,0,1,.253.728,1.118,1.118,0,0,1-.246.7,1.711,1.711,0,0,1-.683.51,2.53,2.53,0,0,1-1,.191A2.492,2.492,0,0,1,554.5,259.248Zm1.768-.388a.876.876,0,0,0,.277-.666.7.7,0,0,0-.17-.468,1.458,1.458,0,0,0-.444-.343c-.18-.1-.468-.229-.853-.4a1.437,1.437,0,0,0-.444.461,1.156,1.156,0,0,0-.156.593,1.076,1.076,0,0,0,.291.78,1.01,1.01,0,0,0,.763.3A1.039,1.039,0,0,0,556.264,258.86Zm.059-2.711a1.189,1.189,0,0,0,.135-.551.977.977,0,0,0-.239-.669.857.857,0,0,0-.676-.274.922.922,0,0,0-.666.239.81.81,0,0,0-.25.61.692.692,0,0,0,.336.579,5.257,5.257,0,0,0,.974.5A1.162,1.162,0,0,0,556.323,256.149Z" transform="translate(-539.583 -254.291)" fill="#394a3f"/>
      </g>
      <g id="Сгруппировать_27" data-name="Сгруппировать 27" transform="translate(221.414 189.86)">
        <g id="Сгруппировать_19" data-name="Сгруппировать 19">
          <path id="Контур_203" data-name="Контур 203" d="M379.023,189.86a23.426,23.426,0,0,0-5.612,46.17,23.072,23.072,0,0,0,3.227.558c-.045-.166-.1-.374-.146-.62a22.769,22.769,0,1,1,10.361-1.241c.184.17.357.319.513.444a23.423,23.423,0,0,0-8.344-45.31Z" transform="translate(-355.6 -189.86)" fill="#394a3f"/>
        </g>
        <g id="Сгруппировать_20" data-name="Сгруппировать 20" transform="translate(6.715 33.756)">
          <path id="Контур_204" data-name="Контур 204" d="M393.457,292.733c-3.973,1.868-4.69,4.985-4.309,6.857.049.246-.045-.166,0,0,.031.114.125.548.146.62a17.125,17.125,0,0,1-2.95-.759,28.809,28.809,0,0,1-11.373-6.531s.139-.107.413-.295c1.515-1.047,5.751-6.056,15.523-5.065.229.024-2.565-.128.569-.246.319-.01.565-.253,1.088.18C393.013,287.7,398.6,290.32,393.457,292.733Z" transform="translate(-374.97 -287.238)" fill="#394a3f"/>
          <path id="Контур_205" data-name="Контур 205" d="M447.466,291.334a29.044,29.044,0,0,1-4.045,4.246,19.172,19.172,0,0,1-5.11,2.985l-.662.364c-.156-.125-.43-.232-.614-.4-1.147-1.061-2.555-2.96-1.92-4.978.912-2.912-2-5.442-2.555-5.879,7.834-.811,8.833.645,14.635,3.532C447.286,291.244,447.376,291.289,447.466,291.334Z" transform="translate(-412.597 -287.375)" fill="#394a3f"/>
        </g>
        <g id="Сгруппировать_22" data-name="Сгруппировать 22" transform="translate(8.773 10.361)">
          <g id="Сгруппировать_21" data-name="Сгруппировать 21">
            <path id="Контур_206" data-name="Контур 206" d="M384.4,230.974c-.017-.045-.035-.094-.055-.146-.1.024-.118-.062-.163-.114s.055-.139-.021-.194a.059.059,0,0,0-.052.052c-.01.114-.111.184-.146.284-.017.049-.055.066-.1.014a2.854,2.854,0,0,1-.218-.354.166.166,0,0,1,0-.1c0-.042.007-.087.007-.132a.04.04,0,0,0-.031-.049c-.024-.007-.035.007-.052.028a.313.313,0,0,0-.021.364c.017.042.049.08.028.128.007.007.01.014.017.017.035.007.069.017.08.055s-.014.038-.035.049a.109.109,0,0,1-.132-.007c-.038-.038-.069-.055-.114-.021-.08-.118-.062-.267-.159-.381-.028.049-.055.094-.083.142-.021-.031.017-.059,0-.1-.1.111-.236.055-.354.09-.076.021-.1.052-.087.121.01.045.021.083-.024.114a.047.047,0,0,0,0,.062c.042.062.017.111-.028.166a.306.306,0,0,1-.01-.229.734.734,0,0,0,.014-.34.23.23,0,0,0-.042.125c-.01.059-.059.042-.107.059.014.087.024.173.038.26.021.121-.007.146-.118.107-.028-.01-.045-.017-.073.01s-.069,0-.083-.028.007-.049.038-.062a.379.379,0,0,0,.149-.25.057.057,0,0,0-.024-.038c-.111-.073-.114-.094-.059-.225.028-.066,0-.1-.087-.1a1.565,1.565,0,0,1,0,.18c0,.052-.035.1-.035.135,0,.128-.087.218-.107.336a.348.348,0,0,0,.024.166c.017.052.031.107.048.159a.394.394,0,0,1-.319-.239.1.1,0,0,1,.021-.076c.094-.163.069-.232-.107-.281-.066-.017-.1-.042-.1-.111a.1.1,0,0,0-.045-.076.11.11,0,0,1,.017-.191c.066-.035.083-.1.128-.146.028-.028,0-.059-.021-.08a.091.091,0,0,0-.125-.024c-.073.059-.121.021-.18-.024s-.139-.1-.2-.149c.017-.049.076-.031.094-.087-.069-.062-.073-.163-.1-.253a.135.135,0,0,0-.152-.076c-.017.028-.007.038,0,.049s.01.045-.01.062a.045.045,0,0,1-.066-.007c-.1-.121-.194-.243-.076-.423,0,0,.024,0,.038.014.083.069.187.038.284.055.055.01.066-.035.066-.08s-.028-.062,0-.1c.066.055,0,.149.069.2.031-.08-.042-.187.055-.236l.017,0a.038.038,0,0,0-.024.038c.014.059.059.066.111.062a.152.152,0,0,0,.024-.094c0-.035-.007-.066.031-.08a.061.061,0,0,1,.076.052c.014.076.09.1.121.163.007.01.017.017.049.01a.268.268,0,0,1,.087-.3.176.176,0,0,0-.194.038c-.021-.01-.028-.031-.014-.045.045-.042.028-.087.014-.128-.038-.139-.035-.094.038-.26.083.017.09.2.222.1.028.076.059.135.146.087a.035.035,0,0,1,.031.01c.045.062.1.055.17.031.059.049.055.18.184.121a.233.233,0,0,0-.114-.225.235.235,0,0,1-.135-.3c.01-.028-.024-.062-.01-.1.028-.014.038.031.073.014a.22.22,0,0,1,.007-.156c.08-.042.094.028.125.076.083-.021.121.01.114.1a.134.134,0,0,0,.038.111c.038.038.076,0,.111-.007s.021-.045,0-.055c-.1-.066-.035-.159-.042-.239a.253.253,0,0,1,.059-.191c0-.01,0-.017-.007-.017-.052,0-.052-.094-.111-.073s-.035.08-.055.121-.083.035-.114.08c-.01-.021-.024-.035-.024-.049a.242.242,0,0,1,.291-.267c.045.01.045.01.114-.021.014.087.048.173-.045.239a.05.05,0,0,0,.014.08.137.137,0,0,0,.149-.01c.024-.014.021-.055.066-.059a1.078,1.078,0,0,0,.125.378c.083-.024.1-.09.1-.163.114.01.139.083.066.2.014.031.059.052.049.1a.036.036,0,0,0,.035.045c.031,0,.028-.024.035-.049a.582.582,0,0,0,.021-.073c.01-.055.038-.083.094-.076a.1.1,0,0,1,.087.094c.021.142.021.142.156.156a.143.143,0,0,0,.035.146.113.113,0,0,1,.01.114c-.007.028-.021.052-.059.049s-.052-.024-.059-.059.014-.1-.045-.149c-.066.1-.073.222-.153.305a.234.234,0,0,1-.135-.222c0-.049.045-.114-.028-.135s-.066.059-.1.107a.453.453,0,0,1,.007-.17c0-.024,0-.052-.035-.059s-.045.017-.049.045a.1.1,0,0,1-.049.087c-.094.055-.062.153-.069.232,0,.049.076.049.17-.021a.636.636,0,0,0-.083.309c.111.042.139.024.135-.087a.212.212,0,0,1,.021-.114.182.182,0,0,1,.038.309c-.076.069-.076.069-.049.17-.038-.01-.08-.024-.1.017a.073.073,0,0,0,.031.09c.031.021.052,0,.062-.045.017.076.062.132.028.2a.083.083,0,0,0,.014.069.125.125,0,0,1-.076.2c-.09.017-.118.076-.121.159,0,.028.007.052.035.059s.042-.007.052-.031c.045-.09.1-.08.17-.028.045.035.111.1.159.052s-.024-.114-.031-.173c0-.01-.017-.021-.028-.035a.146.146,0,0,1,.111-.028.108.108,0,0,0-.076-.094c-.1-.049-.111-.094-.045-.184.042-.055.031-.1-.035-.142a.082.082,0,0,0,.031-.107.141.141,0,0,1,.024-.17.457.457,0,0,0,.052-.1.089.089,0,0,1,.118-.055,1.352,1.352,0,0,1,.26.062.1.1,0,0,0,.09-.007c.028-.028-.01-.059.014-.09.038,0,.042.024.045.052a2.559,2.559,0,0,0,.045.5c-.2-.049-.326-.222-.527-.229-.017.017.01.045-.007.073a.063.063,0,0,0,.045.1c.055.014.052.052.048.094-.021.028-.062-.014-.09.031.059.055.059.149.1.222a.093.093,0,0,0,.028.024c.076.055.142-.007.211-.021.052-.007.031-.066.031-.107.073.007.139.031.2-.021.024-.021.052.017.073.042a.145.145,0,0,0,.211.035.078.078,0,0,1,.059-.021c.087.01.1-.045.1-.114.056,0,.114.024.125.076.021.094.08.1.156.107a.723.723,0,0,1,.121.014.6.6,0,0,0-.222.038c-.059.01-.118.111-.118.187s.073.18.142.184a1.059,1.059,0,0,0,.5-.007c-.007.083.045.083.1.08.09,0,.184-.007.284-.014-.024-.083-.08-.073-.118-.08.01-.128-.09-.187-.142-.274a.253.253,0,0,0-.277-.107c.139-.062.139-.062.083-.18.062.076.118.159.184.229.087.09.149.2.277.253a.52.52,0,0,1,.139.128.111.111,0,0,0,.128.031.331.331,0,0,1,.246.073c.042.052.1.042.159.059.014,0,.028-.014.028-.031,0-.035-.014-.073.014-.107a.129.129,0,0,0,.01-.114c.062.007.083.055.114.087a.062.062,0,0,0,.107-.007.407.407,0,0,0,.069-.153c.017-.073.069-.1.139-.132a1.5,1.5,0,0,1,.267-.111c.055-.014.049-.08.014-.132.017,0,.031,0,.042-.007a.426.426,0,0,1,.319-.038.073.073,0,0,0,.076-.045.274.274,0,0,1,.218-.132c.035,0,.055-.017.045-.052a.617.617,0,0,0-.263-.385.087.087,0,0,0-.087-.007c-.159.069-.232.021-.243-.153-.028,0-.014.038-.042.049-.076,0-.083-.1-.142-.111s-.111.035-.153.083c-.083-.031-.159-.055-.17-.17,0-.049-.087-.083-.153-.087s-.055.055-.073.094-.035.087-.052.128c-.062.007-.1-.045-.159-.055-.052.052-.021.1.007.142s.059.042.114,0a.184.184,0,0,0-.049.132c-.031-.038-.059-.08-.09-.118s-.08-.09-.146-.028c-.045.042-.08-.045-.135-.01-.035.055.014.118.01.2a.555.555,0,0,1-.288-.288.346.346,0,0,1,.1-.367c-.035-.038-.042.014-.062,0-.059-.243-.1-.211.052-.263,0-.118-.2-.222-.458-.232a.414.414,0,0,1,.548.423.112.112,0,0,0,.073-.028c-.073-.177-.069-.191.049-.246.042.01.028.08.083.08a.128.128,0,0,0-.01-.135c-.038-.069-.01-.125.062-.135a.2.2,0,0,0,.149-.059c.024-.024.069-.031.083.014.028.1.114.083.184.114-.024-.159-.2-.2-.26-.343.146-.014.187.014.2.135a.148.148,0,0,0,.243.1.212.212,0,0,1,.312.035.152.152,0,0,0,.035.021c.035-.062.056-.125.149-.107.045.01.055-.045.021-.08a.372.372,0,0,1-.118-.2c-.014-.076-.08-.094-.159-.073-.007-.094-.094-.132-.121-.208l.08.062c.049.038.09.035.125-.031l-.156-.114a.057.057,0,0,0-.069,0c-.021.021-.007.045.01.066-.087-.024-.132-.1-.187-.159a.961.961,0,0,0-.322-.229c-.031-.014-.069-.031-.094,0s-.094.09-.094.153.049.035.08.021c.1-.035.125-.024.163.073a.147.147,0,0,1-.062.2c-.062.028-.121.059-.187.09-.028-.059,0-.107,0-.159,0-.035.017-.069-.014-.1s-.062.014-.1.024c-.007-.08.035-.159-.031-.222a.438.438,0,0,0-.211-.062c-.028.014-.028.038-.031.062,0,.049,0,.1,0,.149s0,.069-.042.083a.084.084,0,0,1-.1-.042.735.735,0,0,0-.135-.191c.052-.087.069-.194.177-.243.035-.014.049-.052.014-.094a.087.087,0,0,1-.017-.087c.111-.045.125-.083.055-.149-.052-.049-.083-.038-.111.028-.014.031,0,.1-.059.09a.16.16,0,0,1-.111-.09c-.007-.014-.01-.028-.017-.045-.017-.035-.042-.059-.08-.031s-.066.059-.035.094.045.1.1.132a.073.073,0,0,1,.021.118.448.448,0,0,0-.059.125.173.173,0,0,1-.25-.035c-.01-.01-.031-.021-.042-.014-.153.062-.257-.052-.381-.094a.387.387,0,0,1-.045-.017c-.007.014-.017.024-.017.035a.229.229,0,0,0,.187.177c.052,0,.107-.024.132.049a.2.2,0,0,1-.035.215.389.389,0,0,1-.163.087c-.031-.014-.031-.045-.035-.073a.2.2,0,0,0-.087-.121.641.641,0,0,1-.236-.3c-.021-.066.031-.146.028-.225s-.024-.1-.094-.114a.082.082,0,0,0-.094.038c-.052.066-.076.062-.125-.017.01-.028.042,0,.066-.031a1.032,1.032,0,0,1-.059-.284c-.007-.062.014-.076.062-.083.083-.014.09-.031.042-.107-.024-.035-.038-.083-.1-.073l0,0a.373.373,0,0,1,.225-.09c.007.1.128.021.187.094.042.052.139-.035.2-.062.007-.028,0-.045-.024-.049s-.035-.014-.024-.038.021-.024.042-.017c.066.017.066-.024.059-.069a.855.855,0,0,0-.021-.1.139.139,0,0,0-.184-.09c-.035-.08-.035-.08-.1-.111-.017.028.024.042.017.069a.037.037,0,0,1-.017.007c-.073-.042-.163-.049-.232-.083s-.156-.069-.177-.139a.323.323,0,0,1,.066-.263l.055-.066a.132.132,0,0,1,.107.149.309.309,0,0,0,.246.295c.021-.1.017-.107-.1-.17a.244.244,0,0,0-.052-.215c-.031-.045-.038-.1.021-.128.146-.073.153-.215.177-.347a.122.122,0,0,1,.017-.069c.021-.031.09-.045.062-.09s-.024-.149-.121-.173a.289.289,0,0,0,.031-.125c.059.031.114.042.156-.021a.029.029,0,0,1,.021-.014c.1-.007.1-.007.09-.1-.094.007-.114-.007-.153-.1.007,0,.014-.007.017,0,.031.017.045.076.087.052a.143.143,0,0,0,.055-.132,1.341,1.341,0,0,1,.01-.166c0-.021,0-.045.024-.055s.045.017.062.035a.144.144,0,0,1,.024.125.112.112,0,0,0,.059.125c.031.017.042.052.059.083s.042.062.087.055a.089.089,0,0,0,.08-.08c.007-.042.014-.073.062-.08s.035-.038.045-.066a.453.453,0,0,1,.284-.309c.059-.017.038-.08.066-.114.215-.052.215-.055.232-.232-.111.007-.149-.042-.17-.159a.451.451,0,0,1,.059-.347.075.075,0,0,0-.021-.107.21.21,0,0,1-.062-.27.555.555,0,0,0,.007-.2c0-.024-.01-.049.01-.069a.158.158,0,0,1,.159.191c-.01.09-.021.177-.024.267,0,.035,0,.08.045.094s.052-.035.073-.055a.2.2,0,0,0,.028-.024c.052.049.062.094-.017.125-.052.017-.076.066-.125.094s-.031.1.035.128c.038-.021,0-.073.052-.1,0,.052-.01.1-.01.142,0,.069.049.1.107.1s.111-.042.1-.083a2.253,2.253,0,0,1,.031-.367c-.069.01-.1-.107-.18-.042a1.1,1.1,0,0,0-.01-.336c0-.024-.021-.045-.007-.073s.059-.01.09-.017c.059-.014.139-.01.128-.107a.026.026,0,0,1,.007-.017c.121-.045.1-.177.153-.263.052.01.066.066.114.08.031-.021.066-.055.118-.042.01,0,.024-.007.035-.014a1.109,1.109,0,0,0,.194-.277.266.266,0,0,0-.173-.281.242.242,0,0,1-.146-.177c.049-.017.049-.017.069.049.014.038.017.08.073.1.055-.042.014-.121.062-.166.121.017.128.149.2.232a1.1,1.1,0,0,0,.052-.673.245.245,0,0,1,.159.014c.052.021.01.1.055.132a.318.318,0,0,0,.121-.014.263.263,0,0,1-.017-.191.138.138,0,0,0-.052-.114.231.231,0,0,1-.049-.208c.007-.045.021-.1.073-.111a.154.154,0,0,1,.132.069c.024.035.035.083.1.073a.2.2,0,0,0,.055.27c.073.035.08-.042.107-.083.028.031.014.055.01.083s-.01.076.028.09.059-.035.073-.066a.168.168,0,0,0,.01-.073c0-.024-.007-.052.024-.066s.038.021.062.035c.028-.028.024-.076.066-.1.031.021.014.09.069.076s.038-.069.062-.094c.1-.1-.007-.191,0-.288.08,0,.1.125.2.083.031-.035-.031-.062-.01-.107a.336.336,0,0,0,.194.035c.049-.007.042.042.038.076-.031.187.028.277.211.319a.117.117,0,0,1,.083.111.1.1,0,0,0,.118.1.21.21,0,0,0,.059.2c-.08.049-.069.121-.052.191s.107.073.146.062a1.045,1.045,0,0,0,.18-.083c.021-.01,0-.052-.014-.076a.16.16,0,0,1-.021-.132c.024-.014.052.035.073,0s0-.059-.035-.069c.01-.059.059-.083.087-.125.073.038.142.08.211.118a.318.318,0,0,1,.159.149.1.1,0,0,0,.094.066c.049,0,.052-.049.062-.083s.017-.073.059-.076a.123.123,0,0,1,.114.066.075.075,0,0,1-.007.1.185.185,0,0,0-.021.2c.059.159.049.2-.083.312a.109.109,0,0,0,0,.187.26.26,0,0,1,.083.142c.028.09.059.1.125.035.042-.045.114-.017.153-.073.01.049-.045.055-.028.1.107.01.1.132.159.2a.191.191,0,0,0,.18.08c.1-.01.152.059.111.153-.028.062.007.083.066.094.031-.118.1-.159.211-.107a.108.108,0,0,0,.073-.007.282.282,0,0,1,.357.222.067.067,0,0,1,0,.045c-.059.094-.007.208-.059.305-.017.035.007.059.042.08.184.1.208.236.076.406-.01.014-.028.035-.014.049.049.059.042.142.087.2.049.007.052-.045.087-.052a.174.174,0,0,1,.083.277.245.245,0,0,0,.007.281.161.161,0,0,1-.007.2c-.111.132-.059.26,0,.388a.158.158,0,0,1-.1.225.135.135,0,0,0-.055.035.108.108,0,0,1-.187-.031c-.028-.073-.09-.09-.139-.132s-.062.014-.066.052a.438.438,0,0,1-.187.27c-.049-.069-.128-.1-.166-.173a.065.065,0,0,0-.121.021.137.137,0,0,1-.083.1.458.458,0,0,1-.194.485c-.014.01-.042.014-.038.035a.6.6,0,0,1-.087.364.175.175,0,0,1,.153.1c.031.052.114.045.18.035.042-.007.083-.017.128-.021s.09.024.076.08c-.031.107.062.114.114.146s.083-.024.121-.069l.163.1c.042.024.073.038.114-.007a.18.18,0,0,1,.281.038.239.239,0,0,0,.2.107c.035-.038,0-.08.038-.111a.125.125,0,0,0,.139.017c.045-.024.066.035.1.055a2.3,2.3,0,0,1,.225.187.237.237,0,0,1,.045.295.175.175,0,0,0,.121.263c.007,0,.014,0,.017.007a.479.479,0,0,1,.118.315c-.035-.049-.066-.1-.1-.142-.017-.021-.038-.045-.069-.031s-.028.049-.021.073a.232.232,0,0,1,0,.146c-.01.035-.028.08-.062.09-.163.045-.173.187-.211.312-.017.059-.031.1-.107.1-.052,0-.069.031-.066.08,0,.107.073.187.149.17.035-.01.08-.01.087-.055s-.045-.055-.076-.073a.18.18,0,0,1,.295-.007c-.042.038-.118.028-.149.087.083.069.153.059.194-.028.007-.014.01-.028.028-.035a1.314,1.314,0,0,0,.225-.1c.01-.007.024,0,.038-.007.107-.038.1.118.18.111.114-.007.132.052.125.146a.2.2,0,0,0,.014.062.2.2,0,0,1-.1.253c-.09.049-.135.142-.2.211s.024.225.111.246a.219.219,0,0,1,.2.25.211.211,0,0,0,0,.066c.021.076.01.135-.076.163a1.167,1.167,0,0,0-.107-.309c-.01-.031-.024-.073-.069-.055s-.08.038-.069.087a.673.673,0,0,1-.007.25c-.01.08.087.159.191.17a.567.567,0,0,1,.277.087c.042.028.083.049.121-.007.024-.035.052-.028.083-.014s.038.028.073.01.049.024.059.052a.494.494,0,0,1,.007.246.136.136,0,0,0,.118.18.444.444,0,0,1,.343.243.53.53,0,0,1,.028.319c-.024.121,0,.146.125.125.031-.007.083-.038.09.035-.035.014-.069-.017-.094,0s-.017.055-.035.076c-.062.069-.094.121.031.163.049.017.042.083.007.135-.055-.017-.111-.028-.132.035-.146,0-.288-.069-.4.083a.4.4,0,0,1-.142.1c-.066.038-.1-.028-.146-.052-.076-.045-.083-.035-.118.045-.062.139.045.222.09.322.014.035.038.062.01.111-.059-.049-.08-.121-.125-.173-.017-.021-.028-.052-.062-.045s-.042.035-.052.062a.5.5,0,0,1-.073.149c-.042.01-.076-.035-.114-.024a.2.2,0,0,0-.128.1c-.028.049.021.069.042.1a.143.143,0,0,0,.08.076c.087.024.076.073.038.135s-.045.111.045.132a.1.1,0,0,1,.059.045.566.566,0,0,0,.211.166.143.143,0,0,0-.045.156c.007.028.007.059.042.066s.038-.024.052-.045a.135.135,0,0,1,.028-.035c.1.045.121.135.052.239-.125.187-.139.229-.35.08-.035.066-.007.139-.038.2a.38.38,0,0,1-.128.184c-.052-.121-.208-.1-.274-.211-.031-.055-.073-.01-.1.024-.055.062-.087.153-.187.187-.01-.094-.076-.128-.153-.156s-.055-.073-.066-.121c-.031-.166-.111-.232-.263-.215a.155.155,0,0,0,.007.118.133.133,0,0,1-.007.114c-.045.1.045.142.1.2.028.031.062.052.024.1a.463.463,0,0,1-.1-.135c-.069-.09-.094-.087-.146.021a.2.2,0,0,1-.128-.08.2.2,0,0,0-.173-.09c-.059,0-.08-.059-.111-.1-.017-.024-.014-.062-.055-.076a.284.284,0,0,1-.142.142.166.166,0,0,0-.069.118c-.01.038-.014.076.024.1s.066-.007.094-.031a.122.122,0,0,1,.218.052.926.926,0,0,1,.052.236c.007.076-.062.125-.118.166a.141.141,0,0,0-.055.08.268.268,0,0,1-.215.2c-.045-.083,0-.184-.042-.267-.059-.007-.09.042-.146.042,0-.094.007-.187.017-.281a.317.317,0,0,0-.024-.218c-.035-.055-.073-.087-.128-.017-.017.024-.045.042-.076.076a.146.146,0,0,0-.09-.128.089.089,0,0,1-.038-.128.194.194,0,0,0-.055-.184.032.032,0,0,0-.042,0,.174.174,0,0,0,.024.215c.052.031.038.059,0,.1-.028-.094-.17-.1-.118-.246-.111.052-.215.1-.288-.042.007-.024.042-.049.028-.09s0-.076-.052-.087-.049.024-.066.055-.062.042-.094.059c-.059-.028-.049-.1-.09-.132-.135.121-.187.128-.34.038a.1.1,0,0,0-.035-.014c-.1-.024-.1-.028-.049-.118.017-.028.038-.055.007-.083a.055.055,0,0,0-.083.014c-.035.052-.066-.01-.1,0a.754.754,0,0,1-.132.024c.066.08.121.153.187.232a.281.281,0,0,1-.194.139c-.094.007-.114-.111-.187-.156a.181.181,0,0,0-.031-.253.244.244,0,0,1-.062-.3.479.479,0,0,1,.184-.2c.073-.038.1-.09.069-.166s0-.139,0-.2c-.055-.021-.08.014-.1.042a4.425,4.425,0,0,0-.444.572.2.2,0,0,0-.035.1c-.007.44.014.88.049,1.317.021.243.028.489.038.735.024.527.055,1.054.062,1.581.007.361.049.718.073,1.078.021.267.028.537.038.808.014.364.042.724.09,1.085.017.132.024.267.031.4.035.79.073,1.584.107,2.375.017.374.042.752.045,1.127,0,.319.052.638.049.957-.007.5.021.995.035,1.491,0,.146.007.291.017.437a.089.089,0,0,1-.052.1.471.471,0,0,1-.416.073c-.073-.021-.153-.035-.225-.055s-.09-.069-.083-.135a1.666,1.666,0,0,0,.01-.371,6.153,6.153,0,0,1,.028-.714c0-.076-.01-.156-.01-.232-.007-.416-.017-.832-.01-1.248,0-.111.017-.225.01-.333-.021-.274,0-.544-.007-.815-.014-.506-.031-1.012-.031-1.518,0-.211-.01-.423,0-.631a.6.6,0,0,0-.045-.246c-.031-.08-.069-.163.038-.229.035-.021.01-.083,0-.125a.529.529,0,0,1-.021-.069c.118-.042.076-.146.056-.2a3.14,3.14,0,0,1-.1-1.016c0-.132,0-.27-.01-.4a1.52,1.52,0,0,0-.028-.6c-.021-.045.035-.083.028-.132-.024-.163-.014-.333-.052-.492a.138.138,0,0,1,.007-.083.236.236,0,0,0-.031-.281.07.07,0,0,1-.014-.052,4.939,4.939,0,0,0-.017-.679c0-.01-.007-.021,0-.028.076-.153-.007-.309.021-.461.014-.08.052-.17-.038-.239a.054.054,0,0,1-.007-.042,3.42,3.42,0,0,0-.007-.776c-.014-.187-.021-.371-.031-.558a.286.286,0,0,0-.211-.274,1.226,1.226,0,0,0-.367-.114,1.05,1.05,0,0,0-.648.184c-.087.066-.159.159-.291.153a.1.1,0,0,0-.118.094,1,1,0,0,1-.312-.132c-.062-.031-.135-.069-.2,0a.171.171,0,0,1-.042-.208.166.166,0,0,0-.059-.215,1.776,1.776,0,0,1-.17-.229.167.167,0,0,1,.035-.229.689.689,0,0,1,.073-.069.75.75,0,0,1,.09-.042c-.017-.062.017-.132-.021-.194-.021-.031-.059-.066-.08-.028-.038.069-.139.087-.146.18a.617.617,0,0,0-.333.059c-.038-.1-.177-.142-.139-.281-.239-.09-.25-.1-.191-.263-.042-.014-.076.028-.125.017a.265.265,0,0,1,.107-.08.2.2,0,0,0,.073-.069.058.058,0,0,0,0-.076.068.068,0,0,0-.087-.01c-.017.01-.028.035-.052.031-.035-.028-.021-.059,0-.083s.042-.021.069-.01.066.014.1.024.107.021.083.1c-.01.035.017.052.049.055s.045-.014.045-.045a.026.026,0,0,1,0-.017c.062-.073.045-.121-.049-.139,0-.052.045-.062.069-.087a.168.168,0,0,0,0-.253,1.834,1.834,0,0,1-.111-.173c-.014-.017-.021-.045-.059-.052a.152.152,0,0,0,.014.111c.021.059,0,.1-.049.111-.1.035-.1.09-.052.166a.147.147,0,0,1,.028.09.2.2,0,0,1-.118-.014.126.126,0,0,0-.191.062c-.069.135-.111.139-.232.049-.038-.028-.076-.059-.111-.087a.205.205,0,0,1,.014-.194c.028.111.08-.014.121.007.021.01.042-.014.042-.038a.049.049,0,0,0-.024-.055.052.052,0,0,0-.062.007A.831.831,0,0,1,384.4,230.974Zm3.408-7.311c0,.024-.024.045,0,.08.069-.017.142-.031.211-.055s.1-.028.1.055a.177.177,0,0,0,.052-.173.084.084,0,0,1,.031-.111.09.09,0,0,0,.021-.125.18.18,0,0,1-.042-.173c-.083.121-.038.267-.08.419-.031-.073-.049-.125-.073-.173-.01-.021-.028-.045-.059-.035s-.024.031-.021.055.01.066-.01.08c-.069.031-.083.107-.128.156.007-.031.024-.069-.014-.1-.035,0-.035.035-.059.049-.038-.059-.114-.055-.163-.1a.191.191,0,0,1,.045-.1c.042.021.111-.007.139.08a.353.353,0,0,1,.1-.288c.007.042-.017.09.035.107.031-.031.052-.069.094-.09a.067.067,0,0,0,.035-.094.734.734,0,0,0-.118-.239.084.084,0,0,1-.031-.073c0-.045.01-.107-.059-.1s-.024.069-.035.107c0,0-.007.007-.017.017-.014-.073-.1,0-.121-.069s-.062-.059-.094-.014c-.069.1-.2.087-.288.156,0,0-.021,0-.028,0-.062-.049-.073.014-.1.045s0,.1-.059.118a.238.238,0,0,0-.128.125c-.1-.055-.215-.052-.239.017s-.055.069-.111.042c-.035-.017-.076-.049-.114,0a.363.363,0,0,0-.153-.229c-.035.09.01.156,0,.225a.062.062,0,0,0,.052.076c.042.007.062-.014.066-.055,0-.017.01-.028.031-.017,0,.052-.021.073-.073.09a.265.265,0,0,1-.243-.059.1.1,0,0,0-.139.031c-.038.042,0,.08.031.111a.16.16,0,0,0,.111.045c.052,0,.083.021.08.076,0,.035-.007.076.035.09s.062-.024.087-.055c.007-.01.021-.021.035-.038a1.49,1.49,0,0,1,.135.118c.031.038,0,.128.1.125a.383.383,0,0,0-.035-.191c-.007-.028-.017-.059.014-.076a.08.08,0,0,1,.087.014.272.272,0,0,1,.035.218c-.038.045-.059.09-.017.142s.09.073.149.031a.672.672,0,0,1,.215.367.29.29,0,0,0,.094.159c-.024-.1-.031-.17.031-.229a.245.245,0,0,0,.069-.211c0-.035-.021-.1.021-.111.1-.042.111-.118.1-.208,0-.01.007-.021.007-.035.1.017.073.094.076.153s-.007.1.042.128c.055,0,.017-.062.059-.062.028.024,0,.055.01.08.107.038.118-.042.128-.107C387.728,223.778,387.735,223.705,387.8,223.664Zm-1.494,2.971c-.083-.094-.139-.211-.274-.257-.066-.024-.184.007-.184.08,0,.107.087.156.156.218.052.049.08-.007.114-.024.031.017.059.031.087.049.09.045.1.038.1-.066.059.055.066.149.118.2a1.316,1.316,0,0,0,.447.357.7.7,0,0,1,.208.121c.083.073.139-.055.215-.014.021.01.045-.031.045-.066-.024-.017-.049.024-.066,0-.021-.107.083-.18.062-.3s-.094-.184-.111-.288c.066-.094.267-.114.159-.3.069-.045.076-.059.087-.153a.353.353,0,0,0,.049.18.375.375,0,0,1,.049-.031c.132-.035.146-.052.125-.187,0-.031-.007-.062.028-.08.08.055.087.066.087.159a.164.164,0,0,0,.035.1.049.049,0,0,0,.08.014.208.208,0,0,0-.031-.3c-.042-.024-.1-.045-.069-.114.035-.021.062.017.09,0a.05.05,0,0,0,.01-.052c-.017-.121-.121-.156-.211-.2s-.111-.028-.107.069c0,.073-.024.1-.1.09a.4.4,0,0,0-.066,0,.108.108,0,0,0-.076-.118c-.121-.042-.146-.139-.159-.25-.01-.066.021-.087.069-.052a.088.088,0,0,0,.146-.028c.007.09.007.09.128.166.028.017.055.069.09.024a.085.085,0,0,0-.021-.125.971.971,0,0,0-.149-.111c-.107-.045-.118-.132-.146-.215-.01-.031,0-.073-.049-.08s-.066.021-.083.059c-.028.076-.059.149-.087.225a.131.131,0,0,0-.163.042.071.071,0,0,1-.1.038c-.069-.024-.1.007-.094.08a.315.315,0,0,1-.042.215.392.392,0,0,0-.083-.028.668.668,0,0,0-.309.031c-.052.01-.1.017-.118.073s.01.087.052.118c.118.09.09.229.118.35,0,.007-.01.014-.017.028-.042-.021-.083-.042-.135-.066.045-.049-.014-.1,0-.149.014-.073-.038-.083-.09-.087s-.073.042-.073.094c0,.024.014.045.007.073a.22.22,0,0,0,.149.26.427.427,0,0,0,.229,0c.024-.007.042-.01.056.014-.01.055-.059.042-.1.049C386.286,226.5,386.269,226.534,386.31,226.634Zm-.045,5.914a1.6,1.6,0,0,0,.243.471.071.071,0,0,0,.076.021,1.236,1.236,0,0,0,.381-.222.166.166,0,0,1,.09-.049.615.615,0,0,0,.111-.017,1.063,1.063,0,0,1,.745.038c.142.066.2.014.2-.142a2.732,2.732,0,0,1-.017-.378.42.42,0,0,0-.132-.354c-.159-.159-.309-.333-.478-.482a.545.545,0,0,0-.09-.066c-.083-.052-.142-.021-.142.076s.007.187.01.281c-.052,0-.1-.014-.121.042-.024.073.052.076.08.111,0,.055-.031.1-.01.153a.268.268,0,0,1,0,.18,1.2,1.2,0,0,1-.114.243c-.024.052-.083.087-.128.031a.156.156,0,0,0-.222-.024c-.01.007-.024,0-.035.007-.066-.125-.09-.128-.184-.021a.091.091,0,0,1-.021.017c-.076.007-.052.059-.049.1,0,.028.028.055.007.087-.055-.007-.038-.066-.073-.09S386.317,232.51,386.265,232.548Zm4.8-.548a.209.209,0,0,1-.083-.159.054.054,0,0,1,.031-.062c.031-.01.042.014.049.042s.007.059.045.062.052-.031.055-.062.028-.042.038-.062c.038-.066-.014-.09-.055-.114s-.073-.038-.094.024c-.028.083-.107.059-.146.028-.073-.062-.18-.1-.18-.225a.211.211,0,0,0-.017-.062c-.017-.052-.042-.066-.1-.028a.478.478,0,0,0-.184.236c-.028-.031-.017-.055-.024-.08-.01-.042.024-.1-.045-.114-.052-.01-.073-.069-.128-.073a.108.108,0,0,0-.125.062c-.035.083-.1.163,0,.257.042.038.038.128.069.187a.382.382,0,0,0,.27.243c.052.01.062.055.017.076-.062.031-.08.09-.118.139a.079.079,0,0,0,.028.132.188.188,0,0,1,.1.2.478.478,0,0,0,0,.1c.007.062.042.062.083.031s.045-.094.083-.111c.08-.038.049-.08.028-.135-.073-.208-.024-.347.159-.426-.017.107.062.121.132.146C391.045,232.184,391.045,232.091,391.07,232Zm-1.99-1.085c-.055-.024-.049-.062-.049-.094,0-.177-.073-.229-.239-.159a.279.279,0,0,0-.083.059.382.382,0,0,1-.135.111c-.017.007-.038.021-.038.038.01.08-.045.142-.045.215,0,.281-.007.565-.007.846,0,.038-.007.09.038.107s.069-.031.09-.062a3.543,3.543,0,0,1,.53-.607c.107-.1.173-.191.118-.34a.068.068,0,0,1,0-.045.171.171,0,0,0-.045-.17C389.16,230.829,389.083,230.811,389.08,230.915ZM387.8,231c-.045-.139-.066-.25-.107-.361-.035-.083-.049-.08-.111-.045a.126.126,0,0,1-.059.024.069.069,0,0,0-.076.083.517.517,0,0,1-.135.374.072.072,0,0,0,.017.114.728.728,0,0,1,.114.076c.128.149.3.253.437.392.031.031.069.076.118.049s.1-.059.111-.139c.014-.267.01-.534.01-.8,0-.038.01-.1-.052-.1s-.132.028-.128.087C387.953,230.863,387.853,230.895,387.8,231Zm-2.565-.51a.547.547,0,0,0,.021.121c.014.035.021.1.062.094.1-.014.08.045.076.1.021,0,.038,0,.055,0s.066.01.08-.028-.017-.045-.045-.055-.014-.028-.017-.045c-.024-.1.08-.139.111-.208.01-.021.038-.035.024-.062s-.038-.035-.069-.035a4.364,4.364,0,0,1-.638-.059c-.073-.01-.156-.028-.194.062-.1-.024-.191-.035-.25-.121a.039.039,0,0,0-.066,0,.4.4,0,0,0-.114.177.078.078,0,0,0,.017.076c.083.1.222.146.263.281.007.017.031.017.052.014a.075.075,0,0,1,.059.017c.024.024.052.066.094.035s.021-.073,0-.111a.063.063,0,0,1,.01-.076.076.076,0,0,1,.076-.021c.125.031.121.031.139-.09,0-.01.014-.017.021-.028.052.01.038.083.087.087.035-.049.007-.094-.017-.153A.229.229,0,0,0,385.239,230.486Zm5.141-5.137a.615.615,0,0,0-.094-.062.363.363,0,0,1-.2-.146c-.021-.035-.059-.028-.087.007s-.049.055-.09.031c.076-.055.042-.149-.09-.246-.01.125-.125.211-.094.343.024.014.045,0,.062-.007.1-.038.135-.024.159.076a.149.149,0,0,0,.094.1c.045.021.066.045.038.094s0,.066.021.1c.069.125.211.153.3.263,0-.062,0-.121.059-.146-.028-.08-.118-.1-.132-.18,0-.014-.021-.017-.038-.014-.08.017-.1-.035-.114-.1.042-.007.062.038.107.024C390.307,225.459,390.311,225.4,390.38,225.348Zm-1.057-.586c-.111.014-.114.107-.132.18s.052.128.111.083c.125-.09.295-.021.412-.128.01-.01.042-.007.045-.031s-.007-.052-.035-.055-.052.007-.059-.024c.017-.024.042-.042.049-.066s.024-.09-.031-.1a.154.154,0,0,1-.156-.173c0-.024-.007-.052-.038-.055s-.042.017-.055.042a.591.591,0,0,1-.083.135A.126.126,0,0,0,389.323,224.762Zm-1.491-.211c.052-.035.038-.1.08-.132a.124.124,0,0,0,.035-.135c-.024-.139-.028-.139.1-.2.038-.021.069-.042.062-.09a.108.108,0,0,0-.073-.1c-.076-.021-.159-.055-.211.042a.069.069,0,0,1-.035.028c-.1.021-.111.094-.111.177a.488.488,0,0,0,.066.232C387.784,224.426,387.756,224.509,387.832,224.551Zm-.087,3.928a.635.635,0,0,1-.038.385c-.024.107-.066.222.069.295a.35.35,0,0,1,.128.128c.017.028.035.073.083.055a.1.1,0,0,0,.059-.107.692.692,0,0,0-.014-.083,2.366,2.366,0,0,0-.211-.523C387.8,228.579,387.808,228.513,387.745,228.478Zm-.184-3.546c-.055,0-.1-.035-.118.028a.069.069,0,0,0,.049.087c.08.021.184.042.236,0a.242.242,0,0,0,.1-.225,1.682,1.682,0,0,1-.076-.371.042.042,0,0,0-.042-.042c-.028,0-.038.017-.042.042C387.645,224.617,387.527,224.755,387.562,224.932Zm1.082,1.283c-.1-.083-.173-.014-.218.042-.062.069,0,.166-.017.25.042.007.042-.049.073-.024.049.035.073-.007.1-.028.062-.042.045-.166.163-.156a.159.159,0,0,1,.007-.017.48.48,0,0,0,.01-.222.085.085,0,0,0-.08-.069c-.045,0-.062.035-.073.073A.244.244,0,0,0,388.643,226.215Zm1.075,5.723a.087.087,0,0,0-.035.125c.021.049-.007.073-.045.052a.265.265,0,0,1-.156-.149c-.035-.094-.083-.1-.153-.024.021.045.1.045.1.087-.01.156.031.229.2.166a.013.013,0,0,1,.01,0c.038.062.038.066.121.035.021-.007.035.007.052.014.083.028.121-.007.1-.09-.01-.035,0-.076-.031-.1-.049,0-.076.052-.125.045C389.739,232.039,389.78,231.983,389.718,231.938Zm.069-1.945c0,.052.021.066.069.052a.224.224,0,0,1,.2.007c.024.017.038.038.069.017a.063.063,0,0,0,.028-.087.192.192,0,0,1,0-.146.079.079,0,0,0-.045-.107c-.045-.028-.1-.035-.128,0-.045.069-.121.1-.166.173A.28.28,0,0,0,389.787,229.993Zm2.94-2.045c.021.017.024.031.031.031.076,0,.128.028.114.118a.127.127,0,0,1-.153.111c-.055,0-.066.028-.052.069a.216.216,0,0,0,.1.118c.024.014.055.01.059-.021.014-.09.083-.094.146-.094.1,0,.1-.045.083-.118a.542.542,0,0,0-.035-.1.517.517,0,0,0-.184-.163C392.81,227.886,392.775,227.931,392.727,227.948Zm-.766-.125c.1-.083.087-.2.121-.305.014-.045-.024-.094-.062-.128s-.062.007-.09.017c-.066.021-.094.1-.17.1.017.069.007.142.052.191s.09-.01.139-.01C391.95,227.74,391.912,227.782,391.961,227.823Zm2.031,3.085a.13.13,0,0,1,.069-.125c.042-.031.094-.021.159-.059a.262.262,0,0,1-.166-.153c-.017-.035-.055-.035-.09-.031a.344.344,0,0,0-.2.218.054.054,0,0,0,.031.052C393.853,230.839,393.909,230.87,393.992,230.908Zm-4.347-10.053c.135.045.191.128.17.243-.121-.031-.146-.01-.128.114.007.049.014.1.024.146.007.031.01.066.049.069s.052-.031.062-.059a1.371,1.371,0,0,0,.042-.291.287.287,0,0,0-.007-.208c-.028-.049-.014-.132-.09-.139S389.687,220.807,389.645,220.856Zm-1.83,6.039c.01-.069-.035-.146.035-.2.045-.035.052-.062-.014-.076-.024,0-.024-.024-.035-.038a.5.5,0,0,0-.149-.135c-.038-.024-.1-.031-.094.038A.422.422,0,0,0,387.815,226.894Zm1.057-5.792c.017.042.035.09.052.135.01.024.017.049.049.049a.06.06,0,0,0,.059-.052.35.35,0,0,1,.062-.142c.021-.028.007-.066-.01-.1a.065.065,0,0,0-.087-.031.06.06,0,0,1-.073-.014c0-.031.024-.073-.024-.1a.267.267,0,0,1-.055.024c-.08.021-.111.052-.042.125.031.031.014.062,0,.094a.03.03,0,0,0,0,.024C388.83,221.13,388.834,221.088,388.872,221.1Zm-.014,9.515c.121,0,.149-.021.114-.094a1.125,1.125,0,0,0-.18-.312c-.045-.045-.08-.031-.09.028a.426.426,0,0,0,.007.229C388.74,230.541,388.737,230.659,388.858,230.617Zm-6.711-.586c-.159,0-.236.066-.229.184a1.309,1.309,0,0,0,.1.343c.01.024.021.045.066.024A1.792,1.792,0,0,1,382.147,230.031Zm5.4-2.7c-.1.215.049.347.114.5.017.038.073.031.08-.021a1.447,1.447,0,0,1,.031-.246.055.055,0,0,0-.014-.042A.457.457,0,0,1,387.544,227.335Zm.867-4.836c.028.049.062.052.09.021s.052-.024.083-.017a.063.063,0,0,0,.087-.028.15.15,0,0,0,.014-.142c-.017-.035-.059-.031-.09-.038s-.052.052-.094.055c-.045-.035-.09-.052-.125.021-.066.135-.066.17.014.211C388.414,222.565,388.4,222.537,388.411,222.5Zm2.666,9.093c.042-.017.052-.042.045-.073a.619.619,0,0,1-.042-.263.069.069,0,0,0-.056-.066c-.038-.01-.059.021-.066.049s-.045.062-.073.09c-.059.059-.042.114.035.142S391.045,231.519,391.077,231.591Zm-2.96-8.5c.028-.014.014-.049.031-.066a.158.158,0,0,0,.014-.2c-.045-.069-.142-.014-.2-.073-.014-.014-.035.031-.031.052a.576.576,0,0,0,.114.267A.06.06,0,0,0,388.116,223.1Zm-2.1.763a.064.064,0,0,0-.007.024c-.01.076-.073.132-.087.208a.055.055,0,0,0,.042.073c.042.01.052-.017.059-.052s0-.059.021-.076c.125-.083.076-.215.083-.326,0-.049-.045-.083-.1-.031C385.932,223.757,385.932,223.757,386.012,223.858Zm3.456,7.578c0,.035,0,.066-.007.1a.241.241,0,0,1,0,.1c-.045.094.021.121.08.156.024.014.052.028.076,0a.07.07,0,0,0,.014-.076.132.132,0,0,1-.007-.1c.045-.17.038-.173-.083-.218-.021.024.021.059-.014.083C389.5,231.474,389.513,231.435,389.468,231.435Zm-3.553-5.685c.021.014.038.028.055.038.045.024.076,0,.062-.042a.538.538,0,0,0-.1-.18c-.035-.038-.076.017-.118.031a.158.158,0,0,0-.042.225.054.054,0,0,0,.076,0C385.877,225.813,385.884,225.778,385.915,225.75Zm-1.6,4.135a.248.248,0,0,0,.257.2c.031.024.042.083.111.069a.169.169,0,0,1-.049-.166c.014-.049-.028-.114-.08-.1C384.466,229.924,384.4,229.882,384.31,229.886Zm2.666,1.369a.092.092,0,0,0-.028.014,1.2,1.2,0,0,0-.069.4.079.079,0,0,0,.083.049.06.06,0,0,0,.049-.059A1.146,1.146,0,0,0,386.976,231.255Zm1.258-4.579c.007-.024.017-.049.024-.069.035-.111-.024-.222.01-.333a.044.044,0,0,0-.042-.052c-.035-.007-.049.017-.066.042A.44.44,0,0,0,388.234,226.676Zm1.844-1.948.021-.01a2.468,2.468,0,0,1-.059-.51c-.094.038-.087.1-.069.173-.024.007-.028-.024-.049-.01.038.094.09.184.031.284C390,224.683,390.04,224.7,390.078,224.728Zm-8.125,4.957a.426.426,0,0,0-.225.132.048.048,0,0,0-.007.052c.024.049.049.1.076.156A.525.525,0,0,0,381.953,229.685Zm7.8,1.5a.531.531,0,0,1,.049.281.414.414,0,0,0,.024.146c.021.066.055.069.121.028a.337.337,0,0,1-.052-.274C389.9,231.269,389.836,231.241,389.749,231.189Zm.094-5.019a.712.712,0,0,0,.083-.017c.024-.007.038-.021.028-.049a.276.276,0,0,0-.2-.111.185.185,0,0,1-.142.01c-.017-.007-.042,0-.045.017a.058.058,0,0,0,.01.042c.007.014.028.024.038.014.062-.052.09,0,.128.038S389.794,226.18,389.843,226.17Zm-2.953-3.04a.717.717,0,0,0,.118-.139.088.088,0,0,0-.014-.125c-.042-.035-.083-.007-.114.024C386.785,222.974,386.785,223.012,386.889,223.13Zm-.964,7.616c.007.035.01.062.017.09s.031.08.076.083.045-.049.059-.08a.264.264,0,0,0,.021-.09c0-.059-.017-.118-.087-.118S385.939,230.7,385.925,230.746Zm1.182,1.179c-.031,0-.038,0-.045,0-.052.017-.069.076-.118.1s-.042.159,0,.187a.129.129,0,0,0,.107.007.048.048,0,0,0,.031-.069A.222.222,0,0,1,387.108,231.924Zm1.532-2.638a.216.216,0,0,0,.111-.1c.017-.038.042-.087-.01-.114a.193.193,0,0,1-.083-.125A.393.393,0,0,0,388.64,229.286Zm-.939-7.557c-.177.045-.257.1-.263.187.042-.017.1-.059.114-.049.069.055.132-.021.2,0a.055.055,0,0,0,.076-.031c-.049-.01-.09-.021-.128-.031C387.683,221.774,387.721,221.757,387.7,221.729Zm.042,1.033a1.261,1.261,0,0,1,0-.281c.007-.038-.021-.055-.052-.066s-.056.017-.069.045a.154.154,0,0,0-.007.111C387.645,222.641,387.655,222.724,387.742,222.762Zm.666-2.312c-.028-.045-.01-.128-.087-.121s-.09.069-.09.132a.116.116,0,0,0,.1.121C388.4,220.578,388.39,220.5,388.407,220.45Zm2.638,6.656c0-.024,0-.052-.028-.066s-.045.01-.062.028a.226.226,0,0,0-.055.191c.007.052.055.059.1.066a.031.031,0,0,0,.035-.042A.433.433,0,0,1,391.045,227.106Zm-2.3-.676a.33.33,0,0,0-.132.218c-.007.045-.01.1.045.1s.059-.049.066-.083c.01-.059.01-.118.073-.146A.151.151,0,0,0,388.747,226.43Zm-.291,3.973c0,.035,0,.076.045.087s.094.038.135,0-.01-.069-.024-.1c0-.007-.007-.017-.01-.024-.014-.038-.021-.087-.076-.073S388.459,230.35,388.456,230.4Zm1.071-3.959c.059,0,.094-.021.107-.049a1.339,1.339,0,0,0,.056-.166c.028-.087.014-.111-.094-.118A.766.766,0,0,1,389.527,226.444Zm-2.049-4.09c.038.024.073.062.111.024.021-.017.017-.052.01-.08-.017-.049-.059-.049-.1-.042a.461.461,0,0,0-.073.01c-.052.024-.049.073-.049.118,0,.024.007.055.038.055C387.471,222.443,387.465,222.391,387.478,222.353Zm-5.318,7.547c.049-.073.028-.159.038-.239a.06.06,0,0,0-.052-.066.07.07,0,0,0-.066.024c-.024.028-.01.052,0,.076a.12.12,0,0,1,.014.114C382.085,229.851,382.116,229.879,382.161,229.9Zm11.179.842a.231.231,0,0,0-.139.257.055.055,0,0,0,.055.038c.021,0,.042,0,.045-.024C393.316,230.926,393.326,230.839,393.34,230.742Zm-3.865-.693c-.021.045.01.076.031.107.038.059-.035.069-.045.114.055.024.028.111.094.142C389.614,230.226,389.583,230.09,389.475,230.049Zm1.889-2.6c-.017-.045-.038-.1-.059-.153-.007-.021-.017-.042-.042-.042a.049.049,0,0,0-.045.049.463.463,0,0,0,.035.18c.01.031.049.038.08.035S391.364,227.487,391.364,227.449Zm-2.673.641c.049.01.073-.038.114-.035s.059-.035.059-.066a.073.073,0,0,0-.048-.08.082.082,0,0,0-.094.021A.234.234,0,0,0,388.692,228.09Zm.125.974a.133.133,0,0,0,.083-.128c0-.035-.007-.073-.055-.066s-.1.031-.111.094A.1.1,0,0,0,388.816,229.064Zm-.4.007c.052,0,.08-.035.076-.066a1.326,1.326,0,0,0-.031-.2c0-.01-.024-.017-.038-.021s-.028.014-.028.031A.442.442,0,0,0,388.418,229.071Zm.766-5.04a1.425,1.425,0,0,1-.1.367.109.109,0,0,0,.1-.1A.383.383,0,0,0,389.184,224.031Zm-1.5-3.636a.082.082,0,0,1-.052.087c-.024.01-.049.038-.031.066s.062.028.09.014a.4.4,0,0,1,.107-.059C387.784,220.409,387.784,220.409,387.68,220.395Zm-1.917,11.179c-.055-.038-.052-.118-.111-.163-.052.045-.021.1-.028.142s-.028.066.007.087.052-.014.076-.031S385.745,231.609,385.763,231.574Zm3.31-3.227c-.024.076-.142.059-.118.128.021.052-.021.135.073.17C388.983,228.534,389.142,228.482,389.073,228.347Zm.218,3.227c-.01-.042-.017-.09-.073-.087a.089.089,0,0,0-.09.087c0,.052.069.069.107.08S389.291,231.616,389.291,231.574Zm-2.139-10.386c.038-.066.083-.114.01-.166-.035.049-.132-.017-.139.066S387.118,221.13,387.153,221.188Zm-1.7,9.9c.014.083.017.163.1.218a.15.15,0,0,0,.028-.166C385.561,231.1,385.513,231.089,385.454,231.089Zm-.232-5.082c.049-.021.132.021.128-.076,0-.042-.021-.1-.069-.09C385.2,225.858,385.218,225.938,385.222,226.007Zm5.56,6.839c-.049.017-.056.059-.062.1s.038.066.073.083a.063.063,0,0,0,.076-.017c.024-.038,0-.066-.035-.08S390.817,232.87,390.782,232.846Zm-3.768-10.6a.227.227,0,0,0,.149-.18.039.039,0,0,0-.024-.052c-.031-.01-.049.007-.055.035C387.066,222.118,387.038,222.183,387.014,222.249Zm4.565,9.436c-.052.1.014.166.052.243.014.028.042.024.062,0s.031-.042,0-.059C391.631,231.827,391.628,231.747,391.579,231.685Zm.7-3.29a.071.071,0,0,0,.069-.076c0-.055-.045-.069-.087-.08s-.052.024-.049.059A.087.087,0,0,0,392.283,228.4Zm.121-1.7a.155.155,0,0,0-.024-.156.058.058,0,0,0-.062-.031c-.031.01-.028.038-.024.062A.127.127,0,0,0,392.4,226.7Zm-9.439,3.005c-.107-.042-.152-.017-.17.09-.007.035.031.052.035.045C382.854,229.768,382.958,229.785,382.965,229.706Zm7.626-4.981c.038.021.083.024.087-.007a.774.774,0,0,1,.08-.222C390.609,224.523,390.675,224.669,390.591,224.724Zm.381-2.312a.2.2,0,0,0-.166.01.1.1,0,0,0,.111.073C390.955,222.5,390.969,222.461,390.973,222.412Zm-6.957,8c0-.038-.024-.052-.055-.045s-.08.014-.069.066.021.076.069.069S384.005,230.444,384.015,230.409Zm2.215-7.151c.038-.08-.035-.09-.049-.135-.024-.094-.059-.038-.09-.017C386.144,223.157,386.182,223.2,386.23,223.258Zm5.134,9.581c.017-.069.1-.094.076-.146s-.094.01-.159-.014C391.312,232.735,391.333,232.773,391.364,232.839Zm-1.182-3.026c-.014.135.01.177.114.2A.264.264,0,0,0,390.182,229.813Zm-2.167-8.576c-.017.066-.073.107-.007.156a.046.046,0,0,0,.073-.014C388.127,221.313,388.054,221.292,388.016,221.237Zm-2.666,10.257a.446.446,0,0,0,.024.173c.031.028.052.01.062-.017S385.4,231.512,385.35,231.494Zm7.377,1.449c.062-.024.1-.055.083-.118a.043.043,0,0,0-.066-.028C392.689,232.832,392.7,232.884,392.727,232.943Zm-7.1-1.945a.772.772,0,0,1-.055-.146.039.039,0,0,0-.049-.031.037.037,0,0,0-.028.031C385.485,230.908,385.551,230.985,385.631,231Zm-3.456-1.952c.069-.09.045-.163-.059-.2A.752.752,0,0,0,382.175,229.047Zm3.581-2.666c.007-.024-.01-.042-.017-.059-.014-.035-.035-.069-.076-.073a.033.033,0,0,0-.035.035.113.113,0,0,0,.062.1A.048.048,0,0,0,385.756,226.381Zm4.208-4.34a.37.37,0,0,0,.139-.159C389.988,221.889,389.971,221.965,389.964,222.041Zm-.253,5.883a.207.207,0,0,0-.121-.2C389.565,227.83,389.635,227.865,389.711,227.924Zm-3.9,2.583a.049.049,0,0,0,.042-.059c0-.038-.024-.066-.066-.062a.05.05,0,0,0-.045.059C385.749,230.486,385.773,230.5,385.815,230.506Zm3.875-.083c.094-.021.1-.09.114-.153-.024-.014-.042-.035-.08-.017C389.742,230.309,389.711,230.357,389.69,230.423Zm-.6-6.455c-.028.055-.1.062-.073.125.01.028.052.028.073.01C389.135,224.073,389.122,224.028,389.087,223.969Zm-7.443,5.921a.111.111,0,0,0-.052-.132.023.023,0,0,0-.038.01c-.017.055.028.083.055.118C381.613,229.889,381.627,229.886,381.644,229.889Zm4.267-1.321a.115.115,0,0,0,.062.132C386.033,228.6,386.019,228.576,385.912,228.569Zm1.685-1.6a.093.093,0,0,0,.014-.125c-.014-.024-.035-.049-.066-.031s-.017.049,0,.073S387.572,226.929,387.6,226.967Zm1.068,3.13c-.055.014-.111-.024-.125.049a.044.044,0,0,0,.031.059C388.626,230.212,388.64,230.163,388.664,230.1Zm2.836-2.818c-.052.055-.066.1-.017.159C391.548,227.393,391.541,227.345,391.5,227.279Zm-2.829-6.739c.031-.066.031-.1-.017-.118-.024-.01-.055-.017-.066.01C388.567,220.5,388.647,220.485,388.671,220.54Zm.6,6.579c.048.028.087.028.111-.014a.035.035,0,0,0-.017-.049C389.319,227.043,389.291,227.071,389.271,227.12Zm.464,2.111c.007.059-.014.111.042.146C389.832,229.279,389.829,229.262,389.735,229.231Zm-2.291-8.274a.057.057,0,0,0,.042-.062c0-.028-.007-.062-.042-.059s-.042.038-.042.069S387.413,220.953,387.444,220.956Zm.634,7.3c-.031.01-.049.028-.042.059s.014.052.045.042.038-.038.038-.066S388.106,228.25,388.078,228.253Zm-.277-2.846c.055-.055.052-.1-.01-.139C387.752,225.321,387.728,225.362,387.8,225.407Zm2.212,5.272c0-.049,0-.1-.055-.09s-.055.055-.038.1A.76.76,0,0,1,390.012,230.68Zm-5.113-6.462c-.007-.055.021-.1-.035-.132-.017-.01-.035.007-.042.024C384.813,224.163,384.84,224.19,384.9,224.218Zm4.794,7.647c.031-.052.045-.094.007-.132a.031.031,0,0,0-.049,0C389.628,231.785,389.655,231.824,389.694,231.865Zm-5.64-1.841c.01-.045.017-.087-.035-.1a.032.032,0,0,0-.049.028C383.963,230,384,230.014,384.054,230.025Z" transform="translate(-380.909 -219.75)" fill="#394a3f"/>
            <path id="Контур_207" data-name="Контур 207" d="M390.279,259.453l-.125.038c.132.049.17.128.118.243-.038.087-.069.187-.194.2-.014-.059-.038-.125-.121-.114-.062.007-.1.076-.163.09-.038-.028-.066-.073-.114-.087a.05.05,0,0,1-.028-.045.118.118,0,0,0-.094-.139c-.052-.021-.038-.073-.035-.114a.112.112,0,0,1,.09-.114c.069-.014.142-.024.211-.038.094-.021.111-.073.042-.142a.124.124,0,0,1-.042-.114c.01-.073-.031-.111-.1-.111s-.128-.021-.121-.118c.007-.062-.045-.087-.1-.052a.387.387,0,0,1-.159.069c-.052.007-.052.052-.035.087.062.153-.059.243-.118.354a.068.068,0,0,1-.08.028c-.038-.066.035-.139,0-.211-.149.048-.163.076-.076.173a.308.308,0,0,1-.232-.062c-.031-.017-.045-.028-.08-.014-.059.028-.1,0-.132-.049a.25.25,0,0,1-.038-.27c.028-.059.114-.073.142-.017s.069.1.128.059a.113.113,0,0,0,0-.173c-.087-.076-.094-.184-.142-.277a.191.191,0,0,1,0-.163.053.053,0,0,1,.055-.042c.042,0,.031.038.031.066a.311.311,0,0,0,.055.184c.024.031.052.069.1.059s.052-.052.08-.083c.069-.083.024-.211.125-.288.024-.01.042.059.083.017-.007-.035-.073-.087.007-.121a.133.133,0,0,1,.163.087c.014.038.017.083.066.094.069.014.125,0,.128-.08.149.007.291-.069.447,0a1.229,1.229,0,0,0,.007.274.632.632,0,0,0,.187.288c.038.042.052.069.035.118s-.024.107-.049.159c-.042.094.035.132.107.156,0,.073-.038.132-.035.2Zm-.745-.849c0,.094.062.146.1.211a.042.042,0,0,0,.045.024c.028,0,.031-.028.035-.049a.265.265,0,0,1,.062-.142c.017-.024.052-.049.024-.08a.069.069,0,0,0-.094,0A.194.194,0,0,1,389.534,258.6Zm-.322.579a.208.208,0,0,0-.17-.3c.024.062-.062.114-.01.166a.162.162,0,0,0,.159.035C389.2,259.121,389.2,259.152,389.212,259.183Zm.156-.437a.183.183,0,0,0-.1-.087c-.031-.007-.052.017-.052.049,0,.059.052.073.1.083C389.343,258.8,389.361,258.781,389.368,258.746Z" transform="translate(-385.887 -244.839)" fill="#394a3f"/>
            <path id="Контур_208" data-name="Контур 208" d="M387.24,237.714c-.035,0-.066-.01-.1-.017-.038.052-.028.132-.073.191a.091.091,0,0,1-.031-.111c.017-.059,0-.09-.059-.083s-.073-.028-.087-.073l-.021-.062a.094.094,0,0,0-.094-.066c-.049,0-.055.042-.073.073s-.01.049-.035.062c-.083-.076-.073-.184.024-.218a.088.088,0,0,0,.062-.114.457.457,0,0,1-.017-.09.134.134,0,0,1,.052-.114c.042-.031.066.014.1.024.066.028.118.114.211.045-.056.17-.056.17.014.243a.369.369,0,0,0,.17-.211c.035-.1.09-.114.166-.035a.047.047,0,0,0,.042.017c.038-.014.014-.049.021-.08a.137.137,0,0,0,.125.031c-.007.066-.059.1-.069.156-.024.139.059.194.146.239s.066.094.045.159c-.052.139-.052.142.08.2.021.01.038.021.042.045a.122.122,0,0,1-.156.139c-.049-.017-.08-.007-.083.049-.045-.007-.052-.049-.08-.066-.059-.038-.073-.076-.017-.135s.052-.08-.069-.18c-.052.045.007.107-.031.159-.055,0-.107-.049-.166-.007a.28.28,0,0,1-.031-.17c.01-.049-.007-.111.049-.139s.024-.062.01-.09a.047.047,0,0,0-.083-.014.076.076,0,0,1-.083.017c-.042-.014-.087-.01-.1.038a.09.09,0,0,0,.052.107c.045.021.076,0,.094-.045.007-.017.014-.035.049-.017A.107.107,0,0,0,387.24,237.714Zm.329-.094a.065.065,0,0,0,.055-.08c-.01-.035-.021-.094-.066-.087s-.059.073-.066.118S387.534,237.613,387.569,237.62Z" transform="translate(-384.633 -231.072)" fill="#394a3f"/>
            <path id="Контур_209" data-name="Контур 209" d="M393.159,257.947c.014-.024.021-.045.031-.062.035-.062.076-.059.111,0,.024.042.045.08.1.073a.267.267,0,0,1,.329.232c.007.035.014.08.055.069.1-.028.173.038.257.069.052.021.055.062.059.1-.045.017-.066-.017-.1-.038s-.083-.038-.087.035a.338.338,0,0,1-.021.08c-.01.028-.035.059-.007.087a.089.089,0,0,0,.1.014c.045-.028.1-.049.135,0s.024.1-.007.146a.231.231,0,0,0-.021.052c-.049.1-.1.114-.191.069a.286.286,0,0,0-.1-.014c0-.062-.045-.121.01-.184.028-.031,0-.059-.038-.059s-.055.01-.083.01c-.066,0-.121,0-.087-.1.028-.073-.028-.08-.083-.087a.249.249,0,0,1-.09.146.1.1,0,0,1-.014-.146c.014-.017.028-.035.014-.059a.056.056,0,0,0-.066-.017.185.185,0,0,0-.09.045c-.076.107-.121.01-.156-.028a.1.1,0,0,1,.028-.156A.177.177,0,0,0,393.159,257.947Zm.437.149a.4.4,0,0,0,.014-.062c0-.028-.021-.042-.045-.052a.071.071,0,0,0-.069.01.032.032,0,0,0-.007.049.918.918,0,0,0,.135.149c.028.021.062.031.087-.01C393.7,258.127,393.634,258.137,393.6,258.1Z" transform="translate(-388.878 -244.635)" fill="#394a3f"/>
            <path id="Контур_210" data-name="Контур 210" d="M383.97,241.976c.062-.014.111-.017.132-.066-.007-.031-.062-.021-.052-.08a.42.42,0,0,1,.187.2.319.319,0,0,1,.028.2c-.017.069.066.107.066.187-.042-.01-.08-.017-.118-.028s-.073-.045-.042-.087c.049-.076,0-.118-.048-.153A1.067,1.067,0,0,1,383.97,241.976Z" transform="translate(-382.909 -234.176)" fill="#394a3f"/>
            <path id="Контур_211" data-name="Контур 211" d="M408.586,259.006c-.177-.177-.187-.211.062-.406A1.5,1.5,0,0,1,408.586,259.006Z" transform="translate(-398.908 -245.133)" fill="#394a3f"/>
            <path id="Контур_212" data-name="Контур 212" d="M383.316,242.757c-.1-.1,0-.229-.066-.336l.021-.01c.055.024.107.045.166.073C383.392,242.573,383.451,242.7,383.316,242.757Z" transform="translate(-382.439 -234.555)" fill="#394a3f"/>
            <path id="Контур_213" data-name="Контур 213" d="M408.013,222.914a3.721,3.721,0,0,1-.253-.454c.125,0,.159.028.163.149,0,.059.042.087.076.121C408.051,222.8,408.055,222.814,408.013,222.914Z" transform="translate(-398.452 -221.521)" fill="#394a3f"/>
            <path id="Контур_214" data-name="Контур 214" d="M389.91,237.376c.007.142-.083.159-.194.153a.313.313,0,0,0-.055.014.351.351,0,0,1,.062-.208.059.059,0,0,1,.09-.007.318.318,0,0,0,.1.049Z" transform="translate(-386.627 -231.223)" fill="#394a3f"/>
            <path id="Контур_215" data-name="Контур 215" d="M391.41,263.3c.028-.076.052-.139.073-.2a.3.3,0,0,0,.142.163c.038.021.01.08,0,.118C391.528,263.409,391.5,263.3,391.41,263.3Z" transform="translate(-387.77 -248.073)" fill="#394a3f"/>
            <path id="Контур_216" data-name="Контур 216" d="M393.78,260.427a.164.164,0,0,1,.191-.062c.035.007.031.042.031.069a.111.111,0,0,1-.083.1c-.024.01-.052.014-.062-.017A.226.226,0,0,0,393.78,260.427Z" transform="translate(-389.318 -246.281)" fill="#394a3f"/>
            <path id="Контур_217" data-name="Контур 217" d="M393.58,261.371c.021,0,.059-.01.052-.028-.028-.08.069-.121.052-.2-.01-.042.094-.083.173-.059-.135.059-.1.215-.2.288-.024.014-.055.066-.073,0Z" transform="translate(-389.188 -246.753)" fill="#394a3f"/>
            <path id="Контур_218" data-name="Контур 218" d="M408.114,222.09c.031.031.062.062.09.094a.063.063,0,0,1,0,.094.069.069,0,0,1-.094,0,.784.784,0,0,1-.087-.1A.251.251,0,0,1,408.114,222.09Z" transform="translate(-398.622 -221.279)" fill="#394a3f"/>
            <path id="Контур_219" data-name="Контур 219" d="M394.526,260.73c.055.007.111,0,.135.052.017.031-.014.059-.038.076a.075.075,0,0,1-.1-.014C394.481,260.806,394.515,260.772,394.526,260.73Z" transform="translate(-389.79 -246.524)" fill="#394a3f"/>
            <path id="Контур_220" data-name="Контур 220" d="M392.562,249.56c.08.049.069.1.014.153A.275.275,0,0,1,392.562,249.56Z" transform="translate(-388.52 -239.226)" fill="#394a3f"/>
            <path id="Контур_221" data-name="Контур 221" d="M396.38,260.652a1.411,1.411,0,0,0,.055-.135c.035-.007.069.007.062.035C396.484,260.61,396.418,260.617,396.38,260.652Z" transform="translate(-391.017 -246.384)" fill="#394a3f"/>
            <path id="Контур_222" data-name="Контур 222" d="M395.794,258.664c-.035.014-.062.028-.107.045a.067.067,0,0,0-.007-.087C395.753,258.6,395.753,258.6,395.794,258.664Z" transform="translate(-390.56 -245.137)" fill="#394a3f"/>
            <path id="Контур_223" data-name="Контур 223" d="M398.437,239.5c-.073.073-.045.156-.049.232a.176.176,0,0,1-.038.128c-.045.049-.08.014-.114-.007s-.048.031-.08.024a.291.291,0,0,1,.121-.374c.01-.024-.017-.038-.021-.066A.8.8,0,0,1,398.437,239.5Z" transform="translate(-392.159 -232.614)" fill="#394a3f"/>
            <path id="Контур_224" data-name="Контур 224" d="M399,240.568a.232.232,0,0,1,.107-.01.131.131,0,0,1-.08.149A.2.2,0,0,1,399,240.568Z" transform="translate(-392.727 -233.344)" fill="#394a3f"/>
            <path id="Контур_225" data-name="Контур 225" d="M397.08,239.388c.107-.031.135,0,.128.121C397.146,239.488,397.09,239.464,397.08,239.388Z" transform="translate(-391.474 -232.573)" fill="#394a3f"/>
          </g>
        </g>
        <g id="Сгруппировать_26" data-name="Сгруппировать 26" transform="translate(18.168 23.382)">
          <path id="Контур_226" data-name="Контур 226" d="M418.759,259.187a3.744,3.744,0,0,0,.69.419q1.466.848,2.94,1.678a.582.582,0,0,1,.322.537c0,.423-.343.662-.686.471-.614-.343-1.22-.7-1.83-1.043q-2.33-1.331-4.662-2.666a.287.287,0,0,0-.326,0c-2.156,1.22-4.319,2.43-6.475,3.657a.473.473,0,0,1-.721-.461.583.583,0,0,1,.343-.544q2.153-1.206,4.309-2.427c.86-.485,1.719-.967,2.576-1.456a.256.256,0,0,1,.291.01q1.518.874,3.044,1.74c.062.035.132.059.2.09Z" transform="translate(-408.01 -257.312)" fill="#394a3f"/>
          <path id="Контур_227" data-name="Контур 227" d="M417.026,272.964q-2.574-.005-5.148-.014c-.343,0-.686-.01-1.03,0-.149,0-.215-.073-.232-.239a1.7,1.7,0,0,1-.01-.187c-.014-.5.024-.544.437-.544l8.236.021c1.31,0,2.621.014,3.934.007.211,0,.281.1.288.322,0,.062.007.125.007.187-.007.416-.045.465-.392.461Q420.064,272.973,417.026,272.964Z" transform="translate(-409.704 -266.896)" fill="#394a3f"/>
          <g id="Сгруппировать_23" data-name="Сгруппировать 23" transform="translate(6.295 6.544)">
            <path id="Контур_228" data-name="Контур 228" d="M426.18,276.19c.69,0,1.373,0,2.073.007,0,1.362-.007,2.721-.01,4.1-.69,0-1.373,0-2.073-.007C426.173,278.935,426.177,277.583,426.18,276.19Zm1.66,2.128h.135c.059,0,.128,0,.132-.1.007-.111-.069-.114-.135-.114a1.436,1.436,0,0,0-.211.007.087.087,0,0,0-.08.087.1.1,0,0,0,.08.111C427.81,278.322,427.855,278.322,427.841,278.318Z" transform="translate(-426.17 -276.19)" fill="#394a3f"/>
          </g>
          <path id="Контур_229" data-name="Контур 229" d="M421.684,276.282c0-.18,0-.329,0-.475-.007-.26-.1-.385-.305-.388-.52-.007-1.036-.007-1.556,0-.215,0-.3.121-.309.381,0,.08,0,.156,0,.236v.225c-.437,0-.863,0-1.3,0a2.344,2.344,0,0,1-.014-.562c0-.191-.055-.27-.215-.27-.641,0-1.283,0-1.927,0-.156,0-.225.076-.218.267s0,.361,0,.558c-.43,0-.856,0-1.29,0a1.64,1.64,0,0,1-.017-.433c-.007-.291-.09-.406-.326-.406-.513-.007-1.026-.007-1.539-.007-.191,0-.288.114-.3.343-.007.163,0,.326,0,.52-.329,0-.638,0-.95,0-.194,0-.388,0-.586,0-.038,0-.087.014-.114-.007-.218-.177-.125-.447-.128-.686,0-.156.042-.284.218-.281.655.01,1.31.007,1.965.007q2.517.01,5.037.017l4.607.01c.274,0,.544.007.818,0,.135,0,.208.059.225.218.007.076.017.156.021.232.01.468-.035.523-.419.52C422.61,276.285,422.162,276.285,421.684,276.282Z" transform="translate(-409.683 -269.051)" fill="#394a3f"/>
          <path id="Контур_230" data-name="Контур 230" d="M432.57,286.266c0-.333,0-.631,0-.919.062-.069.132-.045.194-.045q2.387.005,4.773.014c.243,0,.27.035.3.329a.834.834,0,0,1,0,.094c.014.489-.028.541-.423.537q-2.3-.005-4.6-.014C432.743,286.266,432.667,286.266,432.57,286.266Z" transform="translate(-424.056 -275.597)" fill="#394a3f"/>
          <path id="Контур_231" data-name="Контур 231" d="M415.816,285.3c0,.295,0,.6,0,.9-.069.059-.142.035-.211.035-1.591,0-3.179-.01-4.77-.007-.191,0-.26-.09-.27-.295,0-.038,0-.08,0-.118-.01-.523.017-.558.44-.558q2.288.005,4.576.014A.4.4,0,0,1,415.816,285.3Z" transform="translate(-409.673 -275.566)" fill="#394a3f"/>
          <path id="Контур_232" data-name="Контур 232" d="M433.873,281.983c.076.374.118.413.44.413.447,0,.894,0,1.342,0,.309,0,.357-.045.433-.426h.534c.274,0,.544-.01.818.007.125.007.3-.1.364.107a1.251,1.251,0,0,1-.007.78c-.028.08-.087.083-.149.083q-2.511-.01-5.023-.024c-.007,0-.01,0-.035-.014,0-.3,0-.607,0-.932C433.023,281.983,433.45,281.983,433.873,281.983Z" transform="translate(-424.069 -273.414)" fill="#394a3f"/>
          <path id="Контур_233" data-name="Контур 233" d="M412.32,281.923c.09.4.128.43.454.43.44,0,.884,0,1.324,0,.322,0,.361-.035.444-.416.416,0,.839,0,1.272,0,0,.315,0,.624,0,.932-.059.052-.128.031-.191.031q-2.387-.005-4.773-.014c-.229,0-.267-.045-.284-.322,0-.038,0-.08,0-.118-.007-.5.024-.537.426-.534C411.432,281.92,411.872,281.92,412.32,281.923Z" transform="translate(-409.675 -273.389)" fill="#394a3f"/>
          <path id="Контур_234" data-name="Контур 234" d="M428.835,264.722c-.25,0-.485,0-.718,0a.41.41,0,0,1-.024-.218q0-1.471.007-2.94c0-.25.284-.475.478-.381.288.142.291.142.288.523,0,.919,0,1.834-.007,2.752A.652.652,0,0,1,428.835,264.722Z" transform="translate(-421.129 -259.825)" fill="#394a3f"/>
          <path id="Контур_235" data-name="Контур 235" d="M426.352,265.207c-.25,0-.482,0-.711,0-.059-.062-.038-.139-.038-.2,0-.832.007-1.66,0-2.492a.261.261,0,0,1,.149-.281c.2-.1.388-.215.607-.336C426.359,263.006,426.355,264.095,426.352,265.207Z" transform="translate(-419.502 -260.303)" fill="#394a3f"/>
          <path id="Контур_236" data-name="Контур 236" d="M431.344,265.211c-.232,0-.465,0-.714,0,0-1.1.007-2.187.01-3.317.239.139.465.267.69.4.052.028.055.08.055.135-.007.915-.01,1.834-.017,2.749C431.368,265.176,431.361,265.183,431.344,265.211Z" transform="translate(-422.789 -260.303)" fill="#394a3f"/>
          <path id="Контур_237" data-name="Контур 237" d="M423.876,266.105c-.26,0-.5,0-.756,0,0-.3,0-.589,0-.877,0-.447.007-.891,0-1.338a.245.245,0,0,1,.142-.263c.2-.1.4-.218.617-.343C423.883,264.237,423.879,265.162,423.876,266.105Z" transform="translate(-417.882 -261.211)" fill="#394a3f"/>
          <path id="Контур_238" data-name="Контур 238" d="M433.875,266.145c-.267,0-.5,0-.745,0,0-.936.007-1.865.007-2.822.239.135.465.267.69.4a.119.119,0,0,1,.052.114C433.879,264.592,433.879,265.358,433.875,266.145Z" transform="translate(-424.422 -261.237)" fill="#394a3f"/>
          <path id="Контур_239" data-name="Контур 239" d="M438.133,260.917a.454.454,0,0,1-.1-.388c-.121-.08-.246,0-.364-.069a1.794,1.794,0,0,1,0-.51c.634,0,1.262,0,1.893.007a1.474,1.474,0,0,1,0,.523c-.118.01-.232.017-.361.028,0,.319,0,.62,0,.974-.295-.166-.558-.322-.828-.468-.08-.042-.149-.128-.25-.107C438.126,260.91,438.133,260.917,438.133,260.917Z" transform="translate(-427.377 -259.036)" fill="#394a3f"/>
          <path id="Контур_240" data-name="Контур 240" d="M412.343,278.618c0,.336,0,.638,0,.964-.544,0-1.078.031-1.605-.017-.246-.024-.156-.347-.159-.548,0-.156-.035-.392.177-.4C411.275,278.6,411.8,278.615,412.343,278.618Z" transform="translate(-409.677 -271.229)" fill="#394a3f"/>
          <path id="Контур_241" data-name="Контур 241" d="M420.64,267.023c0-.617,0-1.21,0-1.806a.157.157,0,0,1,.094-.156c.211-.118.423-.239.655-.371,0,.787,0,1.553-.007,2.336C421.143,267.023,420.907,267.023,420.64,267.023Z" transform="translate(-416.262 -262.133)" fill="#394a3f"/>
          <path id="Контур_242" data-name="Контур 242" d="M442.65,279.657c0-.333,0-.634,0-.967.26,0,.51,0,.763,0s.506.01.759,0c.153-.007.232.062.243.246,0,.062.014.125.017.187.014.482-.028.537-.419.537C443.565,279.661,443.118,279.661,442.65,279.657Z" transform="translate(-430.642 -271.28)" fill="#394a3f"/>
          <path id="Контур_243" data-name="Контур 243" d="M435.627,264.74c.232.132.447.257.666.378.066.035.076.1.076.173,0,.586,0,1.175-.007,1.771a5.289,5.289,0,0,1-.742.021C435.624,266.307,435.627,265.544,435.627,264.74Z" transform="translate(-426.049 -262.165)" fill="#394a3f"/>
          <path id="Контур_244" data-name="Контур 244" d="M438.117,266.16c.232.132.451.26.673.385a.153.153,0,0,1,.069.153c0,.43,0,.86,0,1.3a5.9,5.9,0,0,1-.745.014C438.113,267.4,438.117,266.794,438.117,266.16Z" transform="translate(-427.676 -263.093)" fill="#394a3f"/>
          <path id="Контур_245" data-name="Контур 245" d="M423.3,279.619c-.437,0-.86,0-1.293,0,0-.319,0-.617,0-.936.433,0,.856,0,1.293,0C423.306,278.992,423.306,279.294,423.3,279.619Z" transform="translate(-417.157 -271.273)" fill="#394a3f"/>
          <path id="Контур_246" data-name="Контур 246" d="M433.89,278.723c0,.319,0,.614,0,.929-.433,0-.86,0-1.3,0,0-.312,0-.614,0-.929C433.027,278.72,433.45,278.72,433.89,278.723Z" transform="translate(-424.069 -271.299)" fill="#394a3f"/>
          <path id="Контур_247" data-name="Контур 247" d="M418.9,266.09c0,.638,0,1.231,0,1.841-.246,0-.482,0-.752,0,0-.347.021-.7,0-1.047-.021-.291.059-.447.288-.534A3.873,3.873,0,0,0,418.9,266.09Z" transform="translate(-414.629 -263.047)" fill="#394a3f"/>
          <g id="Сгруппировать_24" data-name="Сгруппировать 24" transform="translate(2.825 6.523)">
            <path id="Контур_248" data-name="Контур 248" d="M417.092,278.383c-.239,0-.482-.007-.721,0-.146,0-.215-.055-.211-.243.007-.589.007-1.175,0-1.764,0-.187.073-.25.215-.246.485.007.974.014,1.459.014.146,0,.194.073.194.239,0,.589-.007,1.175,0,1.764,0,.17-.052.243-.194.239C417.584,278.379,417.338,278.386,417.092,278.383Zm.059-1.2c.263,0,.516,0,.79,0,0-.284,0-.548,0-.811,0-.087-.035-.125-.107-.125h-.683C417.155,276.573,417.155,276.872,417.151,277.187Zm-.114.007c0-.326,0-.627,0-.932-.263,0-.513,0-.763,0,0,.319,0,.621,0,.932C416.531,277.194,416.777,277.194,417.037,277.194Zm-.773,1.057c.274,0,.523,0,.766,0,0-.322,0-.624,0-.915-.267,0-.513,0-.766,0C416.267,277.652,416.267,277.946,416.264,278.251Zm.9-.919c0,.329,0,.627,0,.922.267,0,.516,0,.766,0,0-.315,0-.61,0-.922C417.668,277.336,417.418,277.336,417.162,277.333Z" transform="translate(-416.16 -276.13)" fill="#394a3f"/>
          </g>
          <g id="Сгруппировать_25" data-name="Сгруппировать 25" transform="translate(9.977 6.55)">
            <path id="Контур_249" data-name="Контур 249" d="M437.729,278.455c-.246,0-.492-.007-.738,0-.139,0-.2-.059-.2-.232.007-.586.007-1.175.007-1.761,0-.184.049-.26.218-.253.478.017.957.01,1.435,0,.146,0,.211.049.208.243-.007.586-.007,1.175,0,1.761,0,.184-.062.25-.211.246C438.211,278.452,437.969,278.455,437.729,278.455Zm-.055-2.135c-.236,0-.461,0-.683,0-.059,0-.1.031-.1.107,0,.277,0,.555,0,.832.281,0,.53,0,.787,0C437.674,276.944,437.674,276.646,437.674,276.32Zm-.007,2.021c0-.312,0-.617,0-.929-.263,0-.516,0-.766,0,0,.322,0,.62,0,.929C437.154,278.338,437.393,278.338,437.667,278.341Zm.884-1.075c0-.329,0-.631,0-.95-.267.017-.517-.024-.766.017,0,.322,0,.624,0,.929C438.048,277.266,438.291,277.266,438.551,277.266Zm-.763.139c0,.319,0,.627,0,.929.263,0,.506,0,.763,0,0-.315,0-.614,0-.929C438.291,277.405,438.045,277.405,437.788,277.405Z" transform="translate(-436.79 -276.209)" fill="#394a3f"/>
          </g>
          <path id="Контур_250" data-name="Контур 250" d="M440.56,268.9c0-.451,0-.88,0-1.352.25.142.482.274.711.409a.13.13,0,0,1,.049.118c0,.27,0,.544,0,.825Z" transform="translate(-429.277 -264.001)" fill="#394a3f"/>
          <path id="Контур_251" data-name="Контур 251" d="M416.425,268.859c-.257,0-.489,0-.745,0,0-.295,0-.582,0-.867a.1.1,0,0,1,.049-.094c.225-.128.454-.257.7-.4C416.429,267.971,416.425,268.4,416.425,268.859Z" transform="translate(-413.021 -263.968)" fill="#394a3f"/>
          <path id="Контур_252" data-name="Контур 252" d="M443.815,269.844c-.26,0-.5,0-.745,0,0-.281,0-.551,0-.87a6.283,6.283,0,0,1,.714.43C443.888,269.483,443.819,269.677,443.815,269.844Z" transform="translate(-430.917 -264.929)" fill="#394a3f"/>
          <path id="Контур_253" data-name="Контур 253" d="M413.906,269.819c-.256,0-.489,0-.721,0-.076-.392-.066-.43.232-.593a2.437,2.437,0,0,1,.492-.253C413.906,269.258,413.906,269.528,413.906,269.819Z" transform="translate(-411.365 -264.929)" fill="#394a3f"/>
          <path id="Контур_254" data-name="Контур 254" d="M445.524,270.39c.218.125.406.232.6.34a.179.179,0,0,0-.007.038h-.572A.786.786,0,0,1,445.524,270.39Z" transform="translate(-432.511 -265.857)" fill="#394a3f"/>
          <path id="Контур_255" data-name="Контур 255" d="M411.71,270.7h-.586a.193.193,0,0,0-.014-.042c.191-.107.385-.218.6-.336Z" transform="translate(-410.035 -265.811)" fill="#394a3f"/>
        </g>
      </g>
    </g>
  </g>
</svg>
