<svg xmlns="http://www.w3.org/2000/svg" width="20" height="11" viewBox="0 0 20 11">
  <path id="Icon_awesome-vk" data-name="Icon awesome-vk" d="M20.852,7.5c.137-.43,0-.746-.661-.746H18a.94.94,0,0,0-.95.574,16.71,16.71,0,0,1-2.688,4.142c-.509.471-.743.622-1.021.622-.137,0-.349-.151-.349-.581V7.5c0-.516-.156-.746-.616-.746H8.941a.512.512,0,0,0-.557.464c0,.488.787.6.869,1.977v2.984c0,.653-.126.773-.4.773-.743,0-2.547-2.523-3.616-5.411-.215-.56-.427-.787-.988-.787H2.058c-.624,0-.75.272-.75.574,0,.536.743,3.2,3.457,6.72a8.673,8.673,0,0,0,6.672,3.706c1.392,0,1.563-.289,1.563-.787,0-2.3-.126-2.513.572-2.513.323,0,.88.151,2.179,1.31,1.485,1.375,1.73,1.99,2.562,1.99H20.5c.624,0,.939-.289.757-.859-.416-1.2-3.226-3.668-3.353-3.833-.323-.385-.23-.557,0-.9,0,0,2.673-3.482,2.948-4.661Z" transform="translate(-1.308 -6.75)" fill="#333" opacity="0.8"/>
</svg>
